STARTFONT 2.1
COMMENT
COMMENT Converted from OpenType font "ipaexg.ttf" by "otf2bdf 3.0".
COMMENT
FONT -FreeType-IPAexGothic-Medium-R-Normal--16-160-72-72-P-138-ISO10646-1
SIZE 16 72 72
FONTBOUNDINGBOX 20 20 -4 -5
STARTPROPERTIES 19
FOUNDRY "FreeType"
FAMILY_NAME "IPAexGothic"
WEIGHT_NAME "Medium"
SLANT "R"
SETWIDTH_NAME "Normal"
ADD_STYLE_NAME ""
PIXEL_SIZE 16
POINT_SIZE 160
RESOLUTION_X 72
RESOLUTION_Y 72
SPACING "P"
AVERAGE_WIDTH 138
CHARSET_REGISTRY "ISO10646"
CHARSET_ENCODING "1"
FONT_ASCENT 14
FONT_DESCENT 1
COPYRIGHT "Copyright(c) Information-technology Promotion Agency, Japan (IPA), 2003-2019. You must accept "https://opensource.org/licenses/IPA/" to use this product."
_OTF_FONTFILE "ipaexg.ttf"
_OTF_PSNAME "IPAexGothic"
ENDPROPERTIES
CHARS 11691
STARTCHAR 0020
ENCODING 32
SWIDTH 250 0
DWIDTH 4 0
BBX 0 0 0 0
BITMAP
ENDCHAR
STARTCHAR 0021
ENCODING 33
SWIDTH 312 0
DWIDTH 5 0
BBX 1 12 2 0
BITMAP
80
80
80
80
80
80
80
80
80
00
80
80
ENDCHAR
STARTCHAR 0022
ENCODING 34
SWIDTH 312 0
DWIDTH 5 0
BBX 4 4 1 8
BITMAP
B0
A0
A0
A0
ENDCHAR
STARTCHAR 0023
ENCODING 35
SWIDTH 625 0
DWIDTH 10 0
BBX 8 12 1 0
BITMAP
12
12
12
FF
24
24
24
FF
24
44
48
48
ENDCHAR
STARTCHAR 0024
ENCODING 36
SWIDTH 625 0
DWIDTH 10 0
BBX 7 14 2 -1
BITMAP
10
30
FC
84
80
80
E0
38
0C
06
86
C4
78
10
ENDCHAR
STARTCHAR 0025
ENCODING 37
SWIDTH 875 0
DWIDTH 14 0
BBX 12 12 1 0
BITMAP
7040
9880
8880
8900
9A00
7200
04E0
0920
0910
1110
2120
40E0
ENDCHAR
STARTCHAR 0026
ENCODING 38
SWIDTH 687 0
DWIDTH 11 0
BBX 10 12 1 0
BITMAP
3C00
6600
6200
6600
2C00
3800
7880
CC80
8700
8300
C780
7CC0
ENDCHAR
STARTCHAR 0027
ENCODING 39
SWIDTH 187 0
DWIDTH 3 0
BBX 1 4 1 8
BITMAP
80
80
80
80
ENDCHAR
STARTCHAR 0028
ENCODING 40
SWIDTH 312 0
DWIDTH 5 0
BBX 4 15 1 -3
BITMAP
30
20
40
40
40
C0
C0
C0
C0
C0
40
40
60
20
10
ENDCHAR
STARTCHAR 0029
ENCODING 41
SWIDTH 312 0
DWIDTH 5 0
BBX 4 15 0 -3
BITMAP
40
60
20
20
30
10
10
10
10
10
30
20
20
40
C0
ENDCHAR
STARTCHAR 002A
ENCODING 42
SWIDTH 375 0
DWIDTH 6 0
BBX 4 4 1 7
BITMAP
D0
E0
F0
40
ENDCHAR
STARTCHAR 002B
ENCODING 43
SWIDTH 687 0
DWIDTH 11 0
BBX 9 9 1 1
BITMAP
0800
0800
0800
0800
FF80
0800
0800
0800
0800
ENDCHAR
STARTCHAR 002C
ENCODING 44
SWIDTH 250 0
DWIDTH 4 0
BBX 2 4 1 -3
BITMAP
C0
C0
80
80
ENDCHAR
STARTCHAR 002D
ENCODING 45
SWIDTH 375 0
DWIDTH 6 0
BBX 4 1 1 5
BITMAP
F0
ENDCHAR
STARTCHAR 002E
ENCODING 46
SWIDTH 250 0
DWIDTH 4 0
BBX 2 2 1 0
BITMAP
C0
C0
ENDCHAR
STARTCHAR 002F
ENCODING 47
SWIDTH 500 0
DWIDTH 8 0
BBX 6 14 1 -2
BITMAP
04
08
08
08
10
10
20
20
20
40
40
40
80
80
ENDCHAR
STARTCHAR 0030
ENCODING 48
SWIDTH 625 0
DWIDTH 10 0
BBX 8 12 1 0
BITMAP
3C
66
C3
C3
81
81
81
81
C3
C3
66
3C
ENDCHAR
STARTCHAR 0031
ENCODING 49
SWIDTH 625 0
DWIDTH 10 0
BBX 4 12 2 0
BITMAP
30
F0
10
10
10
10
10
10
10
10
10
10
ENDCHAR
STARTCHAR 0032
ENCODING 50
SWIDTH 625 0
DWIDTH 10 0
BBX 8 12 1 0
BITMAP
3C
62
43
C3
03
06
0C
18
30
40
C0
FF
ENDCHAR
STARTCHAR 0033
ENCODING 51
SWIDTH 625 0
DWIDTH 10 0
BBX 8 12 1 0
BITMAP
3C
42
03
03
06
3C
0E
03
03
83
C2
7C
ENDCHAR
STARTCHAR 0034
ENCODING 52
SWIDTH 625 0
DWIDTH 10 0
BBX 9 12 1 0
BITMAP
0600
0E00
1E00
1600
2600
6600
C600
8600
FF80
0600
0600
0600
ENDCHAR
STARTCHAR 0035
ENCODING 53
SWIDTH 625 0
DWIDTH 10 0
BBX 8 12 1 0
BITMAP
7F
40
40
40
5C
62
C3
01
01
03
C2
3C
ENDCHAR
STARTCHAR 0036
ENCODING 54
SWIDTH 625 0
DWIDTH 10 0
BBX 8 12 1 0
BITMAP
1E
23
40
40
DC
E2
C1
C1
C1
41
62
3C
ENDCHAR
STARTCHAR 0037
ENCODING 55
SWIDTH 625 0
DWIDTH 10 0
BBX 8 12 1 0
BITMAP
FF
03
02
04
04
0C
08
18
10
10
30
30
ENDCHAR
STARTCHAR 0038
ENCODING 56
SWIDTH 625 0
DWIDTH 10 0
BBX 8 12 1 0
BITMAP
3E
43
C3
C3
66
3C
66
C3
81
81
C3
3C
ENDCHAR
STARTCHAR 0039
ENCODING 57
SWIDTH 625 0
DWIDTH 10 0
BBX 8 12 1 0
BITMAP
3C
46
C2
83
83
C3
45
3B
03
02
C6
78
ENDCHAR
STARTCHAR 003A
ENCODING 58
SWIDTH 312 0
DWIDTH 5 0
BBX 1 8 2 0
BITMAP
80
80
00
00
00
00
80
80
ENDCHAR
STARTCHAR 003B
ENCODING 59
SWIDTH 312 0
DWIDTH 5 0
BBX 2 11 1 -3
BITMAP
40
40
00
00
00
00
40
40
40
80
80
ENDCHAR
STARTCHAR 003C
ENCODING 60
SWIDTH 687 0
DWIDTH 11 0
BBX 9 8 1 1
BITMAP
0380
0C00
3000
C000
C000
3800
0600
0180
ENDCHAR
STARTCHAR 003D
ENCODING 61
SWIDTH 687 0
DWIDTH 11 0
BBX 9 4 1 3
BITMAP
FF80
0000
0000
FF80
ENDCHAR
STARTCHAR 003E
ENCODING 62
SWIDTH 687 0
DWIDTH 11 0
BBX 9 8 1 1
BITMAP
C000
3800
0600
0180
0300
0C00
3000
C000
ENDCHAR
STARTCHAR 003F
ENCODING 63
SWIDTH 562 0
DWIDTH 9 0
BBX 7 12 1 0
BITMAP
78
C4
86
86
06
0C
18
10
10
00
30
30
ENDCHAR
STARTCHAR 0040
ENCODING 64
SWIDTH 875 0
DWIDTH 14 0
BBX 12 12 1 0
BITMAP
0F80
3040
6720
4D90
C890
9090
9090
D110
5920
6EC0
3020
0FC0
ENDCHAR
STARTCHAR 0041
ENCODING 65
SWIDTH 625 0
DWIDTH 10 0
BBX 10 12 0 0
BITMAP
0C00
0C00
0E00
1200
1200
3300
2100
3F00
6080
4080
40C0
C0C0
ENDCHAR
STARTCHAR 0042
ENCODING 66
SWIDTH 687 0
DWIDTH 11 0
BBX 8 12 2 0
BITMAP
FC
86
82
82
86
F8
86
82
83
82
86
FC
ENDCHAR
STARTCHAR 0043
ENCODING 67
SWIDTH 750 0
DWIDTH 12 0
BBX 10 12 1 0
BITMAP
1F00
3180
40C0
C080
C000
C000
8000
C000
C000
60C0
3180
1F00
ENDCHAR
STARTCHAR 0044
ENCODING 68
SWIDTH 750 0
DWIDTH 12 0
BBX 9 12 2 0
BITMAP
FC00
8600
8100
8180
8080
8080
8080
8080
8180
8100
8600
FC00
ENDCHAR
STARTCHAR 0045
ENCODING 69
SWIDTH 625 0
DWIDTH 10 0
BBX 7 12 2 0
BITMAP
FE
80
80
80
80
FC
80
80
80
80
80
FE
ENDCHAR
STARTCHAR 0046
ENCODING 70
SWIDTH 562 0
DWIDTH 9 0
BBX 7 12 2 0
BITMAP
FE
80
80
80
80
FC
80
80
80
80
80
80
ENDCHAR
STARTCHAR 0047
ENCODING 71
SWIDTH 750 0
DWIDTH 12 0
BBX 10 12 1 0
BITMAP
1F00
3180
4080
C080
C000
C000
83C0
C040
C040
4040
30C0
1F00
ENDCHAR
STARTCHAR 0048
ENCODING 72
SWIDTH 750 0
DWIDTH 12 0
BBX 8 11 2 1
BITMAP
81
81
81
81
81
FF
81
81
81
81
81
ENDCHAR
STARTCHAR 0049
ENCODING 73
SWIDTH 312 0
DWIDTH 5 0
BBX 1 12 2 0
BITMAP
80
80
80
80
80
80
80
80
80
80
80
80
ENDCHAR
STARTCHAR 004A
ENCODING 74
SWIDTH 375 0
DWIDTH 6 0
BBX 5 11 0 0
BITMAP
18
18
18
18
18
18
18
18
18
10
F0
ENDCHAR
STARTCHAR 004B
ENCODING 75
SWIDTH 625 0
DWIDTH 10 0
BBX 8 12 2 0
BITMAP
82
84
8C
98
B0
E0
D0
98
8C
84
86
83
ENDCHAR
STARTCHAR 004C
ENCODING 76
SWIDTH 500 0
DWIDTH 8 0
BBX 6 11 2 0
BITMAP
80
80
80
80
80
80
80
80
80
80
FC
ENDCHAR
STARTCHAR 004D
ENCODING 77
SWIDTH 875 0
DWIDTH 14 0
BBX 11 11 2 1
BITMAP
C060
C0A0
E0A0
A1A0
A120
B160
9360
9A60
8E60
8C60
8C60
ENDCHAR
STARTCHAR 004E
ENCODING 78
SWIDTH 750 0
DWIDTH 12 0
BBX 9 11 2 1
BITMAP
C180
C180
A180
B180
9180
9980
8D80
8580
8780
8380
8180
ENDCHAR
STARTCHAR 004F
ENCODING 79
SWIDTH 812 0
DWIDTH 13 0
BBX 11 12 1 0
BITMAP
1F00
3180
40C0
C040
C060
8060
8060
C060
C040
40C0
3180
1F00
ENDCHAR
STARTCHAR 0050
ENCODING 80
SWIDTH 625 0
DWIDTH 10 0
BBX 7 12 2 0
BITMAP
FC
86
82
82
82
86
F8
80
80
80
80
80
ENDCHAR
STARTCHAR 0051
ENCODING 81
SWIDTH 812 0
DWIDTH 13 0
BBX 11 13 1 -1
BITMAP
1F00
3180
40C0
C040
C060
8060
8060
C060
C440
43C0
3180
1FC0
0020
ENDCHAR
STARTCHAR 0052
ENCODING 82
SWIDTH 625 0
DWIDTH 10 0
BBX 8 12 2 0
BITMAP
F8
86
82
82
82
86
F8
8C
84
86
82
83
ENDCHAR
STARTCHAR 0053
ENCODING 83
SWIDTH 562 0
DWIDTH 9 0
BBX 8 12 1 0
BITMAP
3C
46
C0
C0
E0
78
1E
06
03
02
C6
7C
ENDCHAR
STARTCHAR 0054
ENCODING 84
SWIDTH 625 0
DWIDTH 10 0
BBX 10 11 0 1
BITMAP
FFC0
0800
0800
0800
0800
0800
0800
0800
0800
0800
0800
ENDCHAR
STARTCHAR 0055
ENCODING 85
SWIDTH 750 0
DWIDTH 12 0
BBX 10 11 1 0
BITMAP
C0C0
C0C0
C0C0
C0C0
C0C0
C0C0
C0C0
C0C0
4080
6180
3E00
ENDCHAR
STARTCHAR 0056
ENCODING 86
SWIDTH 625 0
DWIDTH 10 0
BBX 10 12 0 0
BITMAP
C0C0
40C0
6080
6180
2100
3100
1300
1200
1E00
0C00
0C00
0C00
ENDCHAR
STARTCHAR 0057
ENCODING 87
SWIDTH 937 0
DWIDTH 15 0
BBX 15 12 0 0
BITMAP
C106
4304
4284
628C
6288
26C8
3458
3450
1C50
1870
1830
0820
ENDCHAR
STARTCHAR 0058
ENCODING 88
SWIDTH 687 0
DWIDTH 11 0
BBX 9 12 1 0
BITMAP
C180
4100
6300
3600
1400
1C00
1C00
3400
2600
6300
C100
C180
ENDCHAR
STARTCHAR 0059
ENCODING 89
SWIDTH 625 0
DWIDTH 10 0
BBX 10 11 0 1
BITMAP
C0C0
6180
2100
3200
1E00
0C00
0C00
0C00
0C00
0C00
0C00
ENDCHAR
STARTCHAR 005A
ENCODING 90
SWIDTH 625 0
DWIDTH 10 0
BBX 9 12 1 0
BITMAP
FF00
0300
0600
0600
0C00
1800
1800
3000
6000
4000
C000
FF80
ENDCHAR
STARTCHAR 005B
ENCODING 91
SWIDTH 312 0
DWIDTH 5 0
BBX 3 14 1 -2
BITMAP
E0
C0
C0
C0
C0
C0
C0
C0
C0
C0
C0
C0
C0
E0
ENDCHAR
STARTCHAR 005C
ENCODING 92
SWIDTH 500 0
DWIDTH 8 0
BBX 6 14 1 -2
BITMAP
80
40
40
40
20
20
20
10
10
08
08
08
04
04
ENDCHAR
STARTCHAR 005D
ENCODING 93
SWIDTH 312 0
DWIDTH 5 0
BBX 2 14 1 -2
BITMAP
C0
40
40
40
40
40
40
40
40
40
40
40
40
C0
ENDCHAR
STARTCHAR 005E
ENCODING 94
SWIDTH 500 0
DWIDTH 8 0
BBX 8 4 0 6
BITMAP
18
24
66
C3
ENDCHAR
STARTCHAR 005F
ENCODING 95
SWIDTH 500 0
DWIDTH 8 0
BBX 8 1 0 -2
BITMAP
FF
ENDCHAR
STARTCHAR 0060
ENCODING 96
SWIDTH 500 0
DWIDTH 8 0
BBX 3 3 2 9
BITMAP
C0
40
20
ENDCHAR
STARTCHAR 0061
ENCODING 97
SWIDTH 562 0
DWIDTH 9 0
BBX 7 8 1 0
BITMAP
78
C4
04
3C
C4
84
CE
7E
ENDCHAR
STARTCHAR 0062
ENCODING 98
SWIDTH 625 0
DWIDTH 10 0
BBX 8 12 1 0
BITMAP
C0
C0
C0
C0
DC
E2
C3
C1
C1
C3
E2
DC
ENDCHAR
STARTCHAR 0063
ENCODING 99
SWIDTH 562 0
DWIDTH 9 0
BBX 7 8 1 0
BITMAP
3C
46
C0
80
80
C0
46
3C
ENDCHAR
STARTCHAR 0064
ENCODING 100
SWIDTH 625 0
DWIDTH 10 0
BBX 7 12 1 0
BITMAP
02
02
02
02
3A
C6
82
82
82
C2
C6
3A
ENDCHAR
STARTCHAR 0065
ENCODING 101
SWIDTH 562 0
DWIDTH 9 0
BBX 7 8 1 0
BITMAP
3C
46
82
FE
80
C0
42
3C
ENDCHAR
STARTCHAR 0066
ENCODING 102
SWIDTH 312 0
DWIDTH 5 0
BBX 6 12 0 0
BITMAP
1C
20
20
20
F8
20
20
20
20
20
20
20
ENDCHAR
STARTCHAR 0067
ENCODING 103
SWIDTH 562 0
DWIDTH 9 0
BBX 7 11 1 -2
BITMAP
7E
C4
86
C4
78
40
C0
3E
C2
82
7C
ENDCHAR
STARTCHAR 0068
ENCODING 104
SWIDTH 625 0
DWIDTH 10 0
BBX 7 12 1 0
BITMAP
C0
C0
C0
C0
DC
E2
C2
C2
C2
C2
C2
C2
ENDCHAR
STARTCHAR 0069
ENCODING 105
SWIDTH 250 0
DWIDTH 4 0
BBX 2 11 1 0
BITMAP
C0
C0
00
00
C0
C0
C0
C0
C0
C0
C0
ENDCHAR
STARTCHAR 006A
ENCODING 106
SWIDTH 250 0
DWIDTH 4 0
BBX 3 14 0 -3
BITMAP
60
60
00
00
60
60
60
60
60
60
60
60
60
C0
ENDCHAR
STARTCHAR 006B
ENCODING 107
SWIDTH 500 0
DWIDTH 8 0
BBX 7 12 1 0
BITMAP
C0
C0
C0
C0
C4
C8
D0
F0
D0
C8
CC
C6
ENDCHAR
STARTCHAR 006C
ENCODING 108
SWIDTH 250 0
DWIDTH 4 0
BBX 2 12 1 0
BITMAP
C0
C0
C0
C0
C0
C0
C0
C0
C0
C0
C0
C0
ENDCHAR
STARTCHAR 006D
ENCODING 109
SWIDTH 875 0
DWIDTH 14 0
BBX 12 8 1 0
BITMAP
FDE0
E620
C630
C630
C630
C630
C630
C630
ENDCHAR
STARTCHAR 006E
ENCODING 110
SWIDTH 625 0
DWIDTH 10 0
BBX 7 8 1 0
BITMAP
DC
E2
C2
C2
C2
C2
C2
C2
ENDCHAR
STARTCHAR 006F
ENCODING 111
SWIDTH 625 0
DWIDTH 10 0
BBX 8 8 1 0
BITMAP
3C
46
C3
83
83
C3
46
3C
ENDCHAR
STARTCHAR 0070
ENCODING 112
SWIDTH 625 0
DWIDTH 10 0
BBX 8 11 1 -3
BITMAP
DC
E2
C3
C1
C1
C3
E2
DC
C0
C0
C0
ENDCHAR
STARTCHAR 0071
ENCODING 113
SWIDTH 625 0
DWIDTH 10 0
BBX 8 11 1 -3
BITMAP
3B
47
C3
83
83
C3
C7
3B
03
03
03
ENDCHAR
STARTCHAR 0072
ENCODING 114
SWIDTH 375 0
DWIDTH 6 0
BBX 5 8 1 0
BITMAP
D8
E0
C0
C0
C0
C0
C0
C0
ENDCHAR
STARTCHAR 0073
ENCODING 115
SWIDTH 437 0
DWIDTH 7 0
BBX 6 8 1 0
BITMAP
78
88
80
60
18
0C
8C
78
ENDCHAR
STARTCHAR 0074
ENCODING 116
SWIDTH 375 0
DWIDTH 6 0
BBX 4 10 1 0
BITMAP
40
40
F0
40
40
40
40
40
40
70
ENDCHAR
STARTCHAR 0075
ENCODING 117
SWIDTH 625 0
DWIDTH 10 0
BBX 7 8 1 0
BITMAP
C2
C2
C2
C2
C2
C2
46
7A
ENDCHAR
STARTCHAR 0076
ENCODING 118
SWIDTH 500 0
DWIDTH 8 0
BBX 8 8 0 0
BITMAP
C3
42
66
24
24
38
18
18
ENDCHAR
STARTCHAR 0077
ENCODING 119
SWIDTH 750 0
DWIDTH 12 0
BBX 12 8 0 0
BITMAP
C630
4620
4620
6960
2940
2940
30C0
1080
ENDCHAR
STARTCHAR 0078
ENCODING 120
SWIDTH 500 0
DWIDTH 8 0
BBX 6 8 1 0
BITMAP
84
C8
78
30
30
58
CC
84
ENDCHAR
STARTCHAR 0079
ENCODING 121
SWIDTH 500 0
DWIDTH 8 0
BBX 8 11 0 -3
BITMAP
C3
42
66
24
24
1C
18
18
10
30
60
ENDCHAR
STARTCHAR 007A
ENCODING 122
SWIDTH 500 0
DWIDTH 8 0
BBX 6 8 1 0
BITMAP
FC
08
18
30
20
40
C0
FC
ENDCHAR
STARTCHAR 007B
ENCODING 123
SWIDTH 312 0
DWIDTH 5 0
BBX 4 14 1 -2
BITMAP
30
40
40
40
40
40
40
80
40
40
40
40
40
60
ENDCHAR
STARTCHAR 007C
ENCODING 124
SWIDTH 187 0
DWIDTH 3 0
BBX 1 14 1 -2
BITMAP
80
80
80
80
80
80
80
80
80
80
80
80
80
80
ENDCHAR
STARTCHAR 007D
ENCODING 125
SWIDTH 312 0
DWIDTH 5 0
BBX 3 14 1 -2
BITMAP
C0
40
40
40
40
40
60
20
40
40
40
40
40
40
ENDCHAR
STARTCHAR 007E
ENCODING 126
SWIDTH 500 0
DWIDTH 8 0
BBX 5 2 1 10
BITMAP
60
98
ENDCHAR
STARTCHAR 00A0
ENCODING 160
SWIDTH 250 0
DWIDTH 4 0
BBX 0 0 0 0
BITMAP
ENDCHAR
STARTCHAR 00A1
ENCODING 161
SWIDTH 312 0
DWIDTH 5 0
BBX 1 12 2 0
BITMAP
80
80
00
80
80
80
80
80
80
80
80
80
ENDCHAR
STARTCHAR 00A2
ENCODING 162
SWIDTH 625 0
DWIDTH 10 0
BBX 8 11 1 1
BITMAP
04
3C
66
4B
88
98
D0
53
72
3C
20
ENDCHAR
STARTCHAR 00A3
ENCODING 163
SWIDTH 812 0
DWIDTH 13 0
BBX 11 12 1 0
BITMAP
0F00
1980
1080
1800
7F00
0800
0400
7400
8C20
8C20
CA40
7180
ENDCHAR
STARTCHAR 00A4
ENCODING 164
SWIDTH 625 0
DWIDTH 10 0
BBX 8 7 1 1
BITMAP
7E
42
41
81
42
42
3C
ENDCHAR
STARTCHAR 00A5
ENCODING 165
SWIDTH 625 0
DWIDTH 10 0
BBX 10 12 0 0
BITMAP
C0C0
6180
2100
3300
1200
0C00
7F80
0C00
7F80
0C00
0C00
0C00
ENDCHAR
STARTCHAR 00A6
ENCODING 166
SWIDTH 187 0
DWIDTH 3 0
BBX 1 14 1 -2
BITMAP
80
80
80
80
80
80
00
00
80
80
80
80
80
80
ENDCHAR
STARTCHAR 00A7
ENCODING 167
SWIDTH 625 0
DWIDTH 10 0
BBX 7 14 1 -1
BITMAP
3C
46
46
40
30
4C
C6
42
36
0C
06
42
46
3C
ENDCHAR
STARTCHAR 00A8
ENCODING 168
SWIDTH 500 0
DWIDTH 8 0
BBX 4 1 2 10
BITMAP
90
ENDCHAR
STARTCHAR 00A9
ENCODING 169
SWIDTH 1000 0
DWIDTH 16 0
BBX 14 13 1 -1
BITMAP
07C0
3820
4790
4C68
9808
9808
9804
9808
4C68
4788
2010
1860
0780
ENDCHAR
STARTCHAR 00AA
ENCODING 170
SWIDTH 437 0
DWIDTH 7 0
BBX 5 8 1 4
BITMAP
70
08
78
C8
98
68
00
F8
ENDCHAR
STARTCHAR 00AB
ENCODING 171
SWIDTH 625 0
DWIDTH 10 0
BBX 6 7 2 1
BITMAP
24
48
D8
90
D8
48
24
ENDCHAR
STARTCHAR 00AC
ENCODING 172
SWIDTH 687 0
DWIDTH 11 0
BBX 8 4 1 2
BITMAP
FF
01
01
01
ENDCHAR
STARTCHAR 00AD
ENCODING 173
SWIDTH 687 0
DWIDTH 11 0
BBX 9 1 1 5
BITMAP
FF80
ENDCHAR
STARTCHAR 00AE
ENCODING 174
SWIDTH 1000 0
DWIDTH 16 0
BBX 14 12 1 0
BITMAP
0FC0
3020
4F90
4CC8
8C48
8CC4
8F84
8CC8
4C48
2C70
1820
0FC0
ENDCHAR
STARTCHAR 00AF
ENCODING 175
SWIDTH 500 0
DWIDTH 8 0
BBX 4 1 2 10
BITMAP
F0
ENDCHAR
STARTCHAR 00B0
ENCODING 176
SWIDTH 312 0
DWIDTH 5 0
BBX 3 3 1 10
BITMAP
E0
A0
E0
ENDCHAR
STARTCHAR 00B1
ENCODING 177
SWIDTH 687 0
DWIDTH 11 0
BBX 9 9 1 1
BITMAP
0800
0800
0800
FF80
0800
0800
0800
0000
FF80
ENDCHAR
STARTCHAR 00B2
ENCODING 178
SWIDTH 375 0
DWIDTH 6 0
BBX 4 6 1 6
BITMAP
70
90
10
60
80
F0
ENDCHAR
STARTCHAR 00B3
ENCODING 179
SWIDTH 375 0
DWIDTH 6 0
BBX 4 6 1 6
BITMAP
70
90
70
10
90
F0
ENDCHAR
STARTCHAR 00B4
ENCODING 180
SWIDTH 500 0
DWIDTH 8 0
BBX 3 3 3 9
BITMAP
60
40
80
ENDCHAR
STARTCHAR 00B6
ENCODING 182
SWIDTH 1000 0
DWIDTH 16 0
BBX 6 14 4 -1
BITMAP
7C
F4
F4
F4
F4
34
14
14
14
14
14
14
14
14
ENDCHAR
STARTCHAR 00B7
ENCODING 183
SWIDTH 250 0
DWIDTH 4 0
BBX 2 2 1 4
BITMAP
C0
C0
ENDCHAR
STARTCHAR 00B8
ENCODING 184
SWIDTH 500 0
DWIDTH 8 0
BBX 4 4 2 -4
BITMAP
40
30
30
C0
ENDCHAR
STARTCHAR 00B9
ENCODING 185
SWIDTH 375 0
DWIDTH 6 0
BBX 3 6 1 6
BITMAP
20
E0
20
20
20
20
ENDCHAR
STARTCHAR 00BA
ENCODING 186
SWIDTH 437 0
DWIDTH 7 0
BBX 5 8 1 4
BITMAP
70
C8
88
88
88
70
00
F8
ENDCHAR
STARTCHAR 00BB
ENCODING 187
SWIDTH 625 0
DWIDTH 10 0
BBX 6 7 2 1
BITMAP
90
90
48
24
48
98
90
ENDCHAR
STARTCHAR 00BC
ENCODING 188
SWIDTH 875 0
DWIDTH 14 0
BBX 11 12 1 -1
BITMAP
2040
E040
2080
2100
2100
2200
0440
08C0
0940
1140
23E0
2040
ENDCHAR
STARTCHAR 00BD
ENCODING 189
SWIDTH 875 0
DWIDTH 14 0
BBX 12 12 1 0
BITMAP
2040
E040
2080
2100
2100
2200
04E0
0930
0820
10C0
2100
61F0
ENDCHAR
STARTCHAR 00BE
ENCODING 190
SWIDTH 875 0
DWIDTH 14 0
BBX 11 12 1 -1
BITMAP
7040
9080
1080
3100
1200
F200
0440
08C0
0940
1140
23E0
2040
ENDCHAR
STARTCHAR 00BF
ENCODING 191
SWIDTH 562 0
DWIDTH 9 0
BBX 7 12 1 0
BITMAP
10
10
00
10
10
30
60
C0
80
82
C6
78
ENDCHAR
STARTCHAR 00C0
ENCODING 192
SWIDTH 625 0
DWIDTH 10 0
BBX 10 14 0 0
BITMAP
0800
0C00
0000
0C00
0C00
1A00
1200
1300
2100
3F00
6080
4080
40C0
C0C0
ENDCHAR
STARTCHAR 00C1
ENCODING 193
SWIDTH 625 0
DWIDTH 10 0
BBX 10 14 0 0
BITMAP
0600
0400
0000
0C00
0C00
1A00
1200
1300
2100
3F00
6080
4080
40C0
C0C0
ENDCHAR
STARTCHAR 00C2
ENCODING 194
SWIDTH 625 0
DWIDTH 10 0
BBX 10 15 0 0
BITMAP
0C00
0A00
1000
0C00
0C00
0E00
1200
1200
3300
2100
3F00
6080
4080
40C0
C0C0
ENDCHAR
STARTCHAR 00C3
ENCODING 195
SWIDTH 625 0
DWIDTH 10 0
BBX 10 15 0 0
BITMAP
1800
2700
0000
0C00
0C00
0E00
1200
1200
3300
2100
3F00
6080
4080
40C0
C0C0
ENDCHAR
STARTCHAR 00C4
ENCODING 196
SWIDTH 625 0
DWIDTH 10 0
BBX 10 14 0 0
BITMAP
1300
0000
0C00
0C00
0E00
1200
1200
3300
2100
3F00
6080
4080
40C0
C0C0
ENDCHAR
STARTCHAR 00C5
ENCODING 197
SWIDTH 625 0
DWIDTH 10 0
BBX 10 15 0 0
BITMAP
0C00
1200
0C00
0C00
0C00
0E00
1A00
1200
1300
2100
3F00
6080
4080
40C0
C0C0
ENDCHAR
STARTCHAR 00C6
ENCODING 198
SWIDTH 875 0
DWIDTH 14 0
BBX 13 12 0 0
BITMAP
07F8
0E00
0B00
0B00
1300
11F8
3100
3F00
6100
6180
4180
C1F8
ENDCHAR
STARTCHAR 00C7
ENCODING 199
SWIDTH 750 0
DWIDTH 12 0
BBX 9 16 1 -4
BITMAP
1F00
3180
6080
C080
C000
C000
8000
C000
C000
6080
7180
3F80
0400
0E00
0200
0E00
ENDCHAR
STARTCHAR 00C8
ENCODING 200
SWIDTH 625 0
DWIDTH 10 0
BBX 7 14 2 0
BITMAP
20
00
FE
80
80
80
80
FC
80
80
80
80
80
FE
ENDCHAR
STARTCHAR 00C9
ENCODING 201
SWIDTH 625 0
DWIDTH 10 0
BBX 7 14 2 0
BITMAP
18
00
FE
80
80
80
80
FC
80
80
80
80
80
FE
ENDCHAR
STARTCHAR 00CA
ENCODING 202
SWIDTH 625 0
DWIDTH 10 0
BBX 7 15 2 0
BITMAP
30
68
00
FE
80
80
80
80
FC
80
80
80
80
80
FE
ENDCHAR
STARTCHAR 00CB
ENCODING 203
SWIDTH 625 0
DWIDTH 10 0
BBX 7 14 2 0
BITMAP
4C
00
FE
80
80
80
80
FC
80
80
80
80
80
FE
ENDCHAR
STARTCHAR 00CC
ENCODING 204
SWIDTH 312 0
DWIDTH 5 0
BBX 2 14 1 0
BITMAP
80
40
00
40
40
40
40
40
40
40
40
40
40
40
ENDCHAR
STARTCHAR 00CD
ENCODING 205
SWIDTH 312 0
DWIDTH 5 0
BBX 2 14 2 0
BITMAP
C0
80
00
80
80
80
80
80
80
80
80
80
80
80
ENDCHAR
STARTCHAR 00CE
ENCODING 206
SWIDTH 312 0
DWIDTH 5 0
BBX 4 14 0 0
BITMAP
60
90
00
20
20
20
20
20
20
20
20
20
20
20
ENDCHAR
STARTCHAR 00CF
ENCODING 207
SWIDTH 312 0
DWIDTH 5 0
BBX 5 14 0 0
BITMAP
98
98
00
20
20
20
20
20
20
20
20
20
20
20
ENDCHAR
STARTCHAR 00D0
ENCODING 208
SWIDTH 750 0
DWIDTH 12 0
BBX 11 12 0 0
BITMAP
3F00
2180
2040
2060
2020
FC20
2020
2020
2060
2040
2180
3F00
ENDCHAR
STARTCHAR 00D1
ENCODING 209
SWIDTH 750 0
DWIDTH 12 0
BBX 9 14 2 1
BITMAP
3200
4E00
0000
C180
C180
A180
B180
9180
9980
8D80
8580
8780
8380
8180
ENDCHAR
STARTCHAR 00D2
ENCODING 210
SWIDTH 812 0
DWIDTH 13 0
BBX 11 14 1 0
BITMAP
0800
0400
1F00
3180
40C0
C040
C060
8060
8060
C060
C040
40C0
3180
1F00
ENDCHAR
STARTCHAR 00D3
ENCODING 211
SWIDTH 812 0
DWIDTH 13 0
BBX 11 14 1 0
BITMAP
0600
0000
1F00
3180
40C0
C040
C060
8060
8060
C060
C040
40C0
3180
1F00
ENDCHAR
STARTCHAR 00D4
ENCODING 212
SWIDTH 812 0
DWIDTH 13 0
BBX 11 15 1 0
BITMAP
0C00
0A00
0000
1F00
3180
40C0
C040
C060
8060
8060
C060
C040
40C0
3180
1F00
ENDCHAR
STARTCHAR 00D5
ENCODING 213
SWIDTH 812 0
DWIDTH 13 0
BBX 11 15 1 0
BITMAP
1800
1700
0000
1F00
3180
40C0
C040
C060
8060
8060
C060
C040
40C0
3180
1F00
ENDCHAR
STARTCHAR 00D6
ENCODING 214
SWIDTH 812 0
DWIDTH 13 0
BBX 11 14 1 0
BITMAP
1300
0000
1F00
3180
40C0
C040
C060
8060
8060
C060
C040
40C0
3180
1F00
ENDCHAR
STARTCHAR 00D7
ENCODING 215
SWIDTH 687 0
DWIDTH 11 0
BBX 7 7 2 1
BITMAP
82
44
28
10
28
44
80
ENDCHAR
STARTCHAR 00D8
ENCODING 216
SWIDTH 812 0
DWIDTH 13 0
BBX 11 12 1 0
BITMAP
1F40
3180
41C0
C140
C260
8460
8860
C860
D040
60C0
7180
5F00
ENDCHAR
STARTCHAR 00D9
ENCODING 217
SWIDTH 750 0
DWIDTH 12 0
BBX 10 14 1 0
BITMAP
1800
0800
0000
C0C0
C0C0
C0C0
C0C0
C0C0
C0C0
C0C0
C0C0
4080
6180
3E00
ENDCHAR
STARTCHAR 00DA
ENCODING 218
SWIDTH 750 0
DWIDTH 12 0
BBX 10 14 1 0
BITMAP
0400
0C00
0000
C0C0
C0C0
C0C0
C0C0
C0C0
C0C0
C0C0
C0C0
4080
6180
3E00
ENDCHAR
STARTCHAR 00DB
ENCODING 219
SWIDTH 750 0
DWIDTH 12 0
BBX 10 14 1 0
BITMAP
0C00
1200
0000
C0C0
C0C0
C0C0
C0C0
C0C0
C0C0
C0C0
C0C0
4080
6180
3E00
ENDCHAR
STARTCHAR 00DC
ENCODING 220
SWIDTH 750 0
DWIDTH 12 0
BBX 10 14 1 0
BITMAP
1200
1200
0000
C0C0
C0C0
C0C0
C0C0
C0C0
C0C0
C0C0
C0C0
4080
6180
3E00
ENDCHAR
STARTCHAR 00DD
ENCODING 221
SWIDTH 625 0
DWIDTH 10 0
BBX 10 13 0 1
BITMAP
0400
0000
C0C0
6180
2100
3200
1E00
0C00
0C00
0C00
0C00
0C00
0C00
ENDCHAR
STARTCHAR 00DE
ENCODING 222
SWIDTH 625 0
DWIDTH 10 0
BBX 8 12 1 0
BITMAP
C0
C0
FC
C3
C1
C1
C1
C3
FC
C0
C0
C0
ENDCHAR
STARTCHAR 00DF
ENCODING 223
SWIDTH 562 0
DWIDTH 9 0
BBX 7 12 1 0
BITMAP
3C
44
C6
C4
C4
D8
C4
C6
C2
C2
C6
FC
ENDCHAR
STARTCHAR 00E0
ENCODING 224
SWIDTH 562 0
DWIDTH 9 0
BBX 7 11 1 0
BITMAP
30
10
00
78
C4
04
3C
C4
84
CE
7A
ENDCHAR
STARTCHAR 00E1
ENCODING 225
SWIDTH 562 0
DWIDTH 9 0
BBX 7 11 1 0
BITMAP
18
10
00
78
C4
04
3C
C4
84
CE
7A
ENDCHAR
STARTCHAR 00E2
ENCODING 226
SWIDTH 562 0
DWIDTH 9 0
BBX 7 11 1 0
BITMAP
38
48
00
78
C4
04
3C
C4
84
CE
7A
ENDCHAR
STARTCHAR 00E3
ENCODING 227
SWIDTH 562 0
DWIDTH 9 0
BBX 7 12 1 0
BITMAP
74
5C
00
00
78
C4
04
3C
C4
84
CE
7A
ENDCHAR
STARTCHAR 00E4
ENCODING 228
SWIDTH 562 0
DWIDTH 9 0
BBX 7 11 1 0
BITMAP
6C
00
00
78
C4
04
3C
C4
84
CE
7A
ENDCHAR
STARTCHAR 00E5
ENCODING 229
SWIDTH 562 0
DWIDTH 9 0
BBX 7 12 1 0
BITMAP
18
28
10
00
78
C4
04
3C
C4
84
CE
7A
ENDCHAR
STARTCHAR 00E6
ENCODING 230
SWIDTH 875 0
DWIDTH 14 0
BBX 12 8 1 0
BITMAP
79E0
C630
0610
7FF0
C400
8600
CF10
79E0
ENDCHAR
STARTCHAR 00E7
ENCODING 231
SWIDTH 562 0
DWIDTH 9 0
BBX 7 12 1 -4
BITMAP
3C
46
C0
80
80
C0
C6
7C
10
18
0C
30
ENDCHAR
STARTCHAR 00E8
ENCODING 232
SWIDTH 562 0
DWIDTH 9 0
BBX 7 11 1 0
BITMAP
30
10
00
3C
46
82
FE
80
C0
42
3C
ENDCHAR
STARTCHAR 00E9
ENCODING 233
SWIDTH 562 0
DWIDTH 9 0
BBX 7 11 1 0
BITMAP
18
10
00
3C
46
82
FE
80
C0
42
3C
ENDCHAR
STARTCHAR 00EA
ENCODING 234
SWIDTH 562 0
DWIDTH 9 0
BBX 7 11 1 0
BITMAP
38
24
00
3C
46
82
FE
80
C0
42
3C
ENDCHAR
STARTCHAR 00EB
ENCODING 235
SWIDTH 562 0
DWIDTH 9 0
BBX 7 11 1 0
BITMAP
6C
00
00
3C
46
82
FE
80
C0
42
3C
ENDCHAR
STARTCHAR 00EC
ENCODING 236
SWIDTH 250 0
DWIDTH 4 0
BBX 2 11 1 0
BITMAP
80
40
00
C0
C0
C0
C0
C0
C0
C0
C0
ENDCHAR
STARTCHAR 00ED
ENCODING 237
SWIDTH 250 0
DWIDTH 4 0
BBX 3 11 1 0
BITMAP
60
C0
00
C0
C0
C0
C0
C0
C0
C0
C0
ENDCHAR
STARTCHAR 00EE
ENCODING 238
SWIDTH 250 0
DWIDTH 4 0
BBX 4 11 0 0
BITMAP
60
90
00
60
60
60
60
60
60
60
60
ENDCHAR
STARTCHAR 00EF
ENCODING 239
SWIDTH 250 0
DWIDTH 4 0
BBX 4 11 0 0
BITMAP
90
00
00
60
60
60
60
60
60
60
60
ENDCHAR
STARTCHAR 00F0
ENCODING 240
SWIDTH 625 0
DWIDTH 10 0
BBX 8 12 1 0
BITMAP
24
18
3C
46
3E
43
C3
83
83
C3
46
3C
ENDCHAR
STARTCHAR 00F1
ENCODING 241
SWIDTH 625 0
DWIDTH 10 0
BBX 7 12 1 0
BITMAP
30
4C
00
00
DC
E2
C2
C2
C2
C2
C2
C2
ENDCHAR
STARTCHAR 00F2
ENCODING 242
SWIDTH 625 0
DWIDTH 10 0
BBX 8 11 1 0
BITMAP
30
18
00
3C
46
C3
83
83
C3
C6
3C
ENDCHAR
STARTCHAR 00F3
ENCODING 243
SWIDTH 625 0
DWIDTH 10 0
BBX 8 11 1 0
BITMAP
08
10
00
3C
46
C3
83
83
C3
C6
3C
ENDCHAR
STARTCHAR 00F4
ENCODING 244
SWIDTH 625 0
DWIDTH 10 0
BBX 8 11 1 0
BITMAP
18
24
00
3C
46
C3
83
83
C3
C6
3C
ENDCHAR
STARTCHAR 00F5
ENCODING 245
SWIDTH 625 0
DWIDTH 10 0
BBX 8 12 1 0
BITMAP
30
4C
00
00
3C
46
C3
83
83
C3
C6
3C
ENDCHAR
STARTCHAR 00F6
ENCODING 246
SWIDTH 625 0
DWIDTH 10 0
BBX 8 11 1 0
BITMAP
24
00
00
3C
46
C3
83
83
C3
C6
3C
ENDCHAR
STARTCHAR 00F7
ENCODING 247
SWIDTH 687 0
DWIDTH 11 0
BBX 9 7 1 2
BITMAP
0800
0800
0000
FF80
0000
0800
0800
ENDCHAR
STARTCHAR 00F8
ENCODING 248
SWIDTH 625 0
DWIDTH 10 0
BBX 8 8 1 0
BITMAP
3E
46
C7
8B
93
A3
C6
FC
ENDCHAR
STARTCHAR 00F9
ENCODING 249
SWIDTH 625 0
DWIDTH 10 0
BBX 7 11 1 0
BITMAP
30
10
00
C2
C2
C2
C2
C2
C2
46
7A
ENDCHAR
STARTCHAR 00FA
ENCODING 250
SWIDTH 625 0
DWIDTH 10 0
BBX 7 11 1 0
BITMAP
08
10
00
C2
C2
C2
C2
C2
C2
46
7A
ENDCHAR
STARTCHAR 00FB
ENCODING 251
SWIDTH 625 0
DWIDTH 10 0
BBX 7 11 1 0
BITMAP
38
24
00
C2
C2
C2
C2
C2
C2
46
7A
ENDCHAR
STARTCHAR 00FC
ENCODING 252
SWIDTH 625 0
DWIDTH 10 0
BBX 7 11 1 0
BITMAP
64
00
00
C2
C2
C2
C2
C2
C2
46
7A
ENDCHAR
STARTCHAR 00FD
ENCODING 253
SWIDTH 500 0
DWIDTH 8 0
BBX 8 14 0 -3
BITMAP
08
10
00
C3
42
66
24
24
1C
18
18
10
30
60
ENDCHAR
STARTCHAR 00FE
ENCODING 254
SWIDTH 625 0
DWIDTH 10 0
BBX 8 15 1 -3
BITMAP
C0
C0
C0
C0
DC
E2
C3
C1
C1
C1
E3
DE
C0
C0
C0
ENDCHAR
STARTCHAR 00FF
ENCODING 255
SWIDTH 500 0
DWIDTH 8 0
BBX 8 14 0 -3
BITMAP
24
00
00
C3
42
66
24
24
1C
18
18
10
30
60
ENDCHAR
STARTCHAR 0100
ENCODING 256
SWIDTH 625 0
DWIDTH 10 0
BBX 10 14 0 0
BITMAP
1E00
0000
0C00
0C00
0E00
1A00
1200
3300
2100
3F00
6080
4080
40C0
C0C0
ENDCHAR
STARTCHAR 0101
ENCODING 257
SWIDTH 562 0
DWIDTH 9 0
BBX 7 11 1 0
BITMAP
78
00
00
78
C4
04
3C
C4
84
CE
7A
ENDCHAR
STARTCHAR 0102
ENCODING 258
SWIDTH 625 0
DWIDTH 10 0
BBX 10 15 0 0
BITMAP
1200
1E00
0000
0C00
0C00
0E00
1200
1200
3300
2100
3F00
6080
4080
40C0
C0C0
ENDCHAR
STARTCHAR 0103
ENCODING 259
SWIDTH 562 0
DWIDTH 9 0
BBX 7 11 1 0
BITMAP
44
38
00
78
C4
04
3C
C4
84
CE
7A
ENDCHAR
STARTCHAR 0104
ENCODING 260
SWIDTH 625 0
DWIDTH 10 0
BBX 10 16 0 -4
BITMAP
0C00
0C00
0E00
1200
1200
3300
2100
3F00
6080
4080
40C0
C0C0
00C0
0100
0100
01C0
ENDCHAR
STARTCHAR 0105
ENCODING 261
SWIDTH 562 0
DWIDTH 9 0
BBX 7 12 1 -4
BITMAP
78
C4
04
3C
C4
84
CE
7A
04
08
08
0E
ENDCHAR
STARTCHAR 0106
ENCODING 262
SWIDTH 750 0
DWIDTH 12 0
BBX 10 14 1 0
BITMAP
0600
0000
1F00
3180
4080
C080
C000
C000
8000
C000
C000
60C0
3180
1F00
ENDCHAR
STARTCHAR 0107
ENCODING 263
SWIDTH 562 0
DWIDTH 9 0
BBX 7 11 1 0
BITMAP
08
10
00
3C
46
C0
80
80
C0
C6
3C
ENDCHAR
STARTCHAR 0108
ENCODING 264
SWIDTH 750 0
DWIDTH 12 0
BBX 10 15 1 0
BITMAP
0C00
0A00
0000
1F00
3180
4080
C080
C000
C000
8000
C000
C000
60C0
3180
1F00
ENDCHAR
STARTCHAR 0109
ENCODING 265
SWIDTH 562 0
DWIDTH 9 0
BBX 7 11 1 0
BITMAP
38
24
00
3C
46
C0
80
80
C0
C6
3C
ENDCHAR
STARTCHAR 010C
ENCODING 268
SWIDTH 750 0
DWIDTH 12 0
BBX 10 15 1 0
BITMAP
0A00
0E00
0000
1F00
3180
4080
C080
C000
C000
8000
C000
C000
60C0
3180
1F00
ENDCHAR
STARTCHAR 010D
ENCODING 269
SWIDTH 562 0
DWIDTH 9 0
BBX 7 11 1 0
BITMAP
28
18
00
3C
46
C0
80
80
C0
C6
3C
ENDCHAR
STARTCHAR 010E
ENCODING 270
SWIDTH 750 0
DWIDTH 12 0
BBX 9 15 2 0
BITMAP
2400
1800
0000
FC00
8600
8100
8180
8080
8080
8080
8080
8180
8100
8600
FC00
ENDCHAR
STARTCHAR 010F
ENCODING 271
SWIDTH 625 0
DWIDTH 10 0
BBX 10 12 1 0
BITMAP
0240
0240
0280
0200
3A00
C600
8200
8200
8200
C200
4600
3A00
ENDCHAR
STARTCHAR 0111
ENCODING 273
SWIDTH 625 0
DWIDTH 10 0
BBX 8 12 1 0
BITMAP
02
02
0F
02
3A
C6
82
82
82
C2
46
3A
ENDCHAR
STARTCHAR 0112
ENCODING 274
SWIDTH 625 0
DWIDTH 10 0
BBX 7 14 2 0
BITMAP
78
00
FE
80
80
80
80
FC
80
80
80
80
80
FE
ENDCHAR
STARTCHAR 0113
ENCODING 275
SWIDTH 562 0
DWIDTH 9 0
BBX 7 11 1 0
BITMAP
3C
00
00
3C
46
82
FE
80
C0
42
3C
ENDCHAR
STARTCHAR 0118
ENCODING 280
SWIDTH 625 0
DWIDTH 10 0
BBX 7 16 2 -4
BITMAP
FE
80
80
80
80
FC
80
80
80
80
80
FE
30
60
48
70
ENDCHAR
STARTCHAR 0119
ENCODING 281
SWIDTH 562 0
DWIDTH 9 0
BBX 7 12 1 -4
BITMAP
3C
46
82
FE
80
C0
42
3C
10
20
20
38
ENDCHAR
STARTCHAR 011A
ENCODING 282
SWIDTH 625 0
DWIDTH 10 0
BBX 7 15 2 0
BITMAP
48
30
00
FE
80
80
80
80
FC
80
80
80
80
80
FE
ENDCHAR
STARTCHAR 011B
ENCODING 283
SWIDTH 562 0
DWIDTH 9 0
BBX 7 11 1 0
BITMAP
28
10
00
3C
46
82
FE
80
C0
42
3C
ENDCHAR
STARTCHAR 011C
ENCODING 284
SWIDTH 750 0
DWIDTH 12 0
BBX 10 15 1 0
BITMAP
0C00
0A00
0000
1F00
3180
6080
C080
C000
C000
83C0
C040
C040
6040
30C0
1F00
ENDCHAR
STARTCHAR 011D
ENCODING 285
SWIDTH 562 0
DWIDTH 9 0
BBX 7 14 1 -3
BITMAP
38
48
00
7E
C4
86
C4
78
40
C0
3E
C2
82
7C
ENDCHAR
STARTCHAR 0124
ENCODING 292
SWIDTH 750 0
DWIDTH 12 0
BBX 8 14 2 1
BITMAP
18
3C
00
81
81
81
81
81
FF
81
81
81
81
81
ENDCHAR
STARTCHAR 0125
ENCODING 293
SWIDTH 625 0
DWIDTH 10 0
BBX 8 15 0 0
BITMAP
20
70
90
60
60
60
60
6E
71
61
61
61
61
61
61
ENDCHAR
STARTCHAR 0127
ENCODING 295
SWIDTH 625 0
DWIDTH 10 0
BBX 7 12 1 0
BITMAP
C0
F0
C0
C0
DC
E2
C2
C2
C2
C2
C2
C2
ENDCHAR
STARTCHAR 012A
ENCODING 298
SWIDTH 312 0
DWIDTH 5 0
BBX 4 14 0 0
BITMAP
F0
00
20
20
20
20
20
20
20
20
20
20
20
20
ENDCHAR
STARTCHAR 012B
ENCODING 299
SWIDTH 250 0
DWIDTH 4 0
BBX 4 11 0 0
BITMAP
F0
00
00
60
60
60
60
60
60
60
60
ENDCHAR
STARTCHAR 0134
ENCODING 308
SWIDTH 375 0
DWIDTH 6 0
BBX 6 14 0 0
BITMAP
18
24
00
18
18
18
18
18
18
18
18
18
10
F0
ENDCHAR
STARTCHAR 0135
ENCODING 309
SWIDTH 250 0
DWIDTH 4 0
BBX 4 15 0 -3
BITMAP
60
70
90
00
60
60
60
60
60
60
60
60
60
40
C0
ENDCHAR
STARTCHAR 0139
ENCODING 313
SWIDTH 500 0
DWIDTH 8 0
BBX 6 14 2 0
BITMAP
20
40
00
80
80
80
80
80
80
80
80
80
80
FC
ENDCHAR
STARTCHAR 013A
ENCODING 314
SWIDTH 250 0
DWIDTH 4 0
BBX 3 15 1 0
BITMAP
20
40
C0
C0
C0
C0
C0
C0
C0
C0
C0
C0
C0
C0
C0
ENDCHAR
STARTCHAR 013D
ENCODING 317
SWIDTH 500 0
DWIDTH 8 0
BBX 6 11 2 0
BITMAP
88
90
90
80
80
80
80
80
80
80
FC
ENDCHAR
STARTCHAR 013E
ENCODING 318
SWIDTH 312 0
DWIDTH 5 0
BBX 4 12 1 0
BITMAP
D0
D0
E0
C0
C0
C0
C0
C0
C0
C0
C0
C0
ENDCHAR
STARTCHAR 0141
ENCODING 321
SWIDTH 500 0
DWIDTH 8 0
BBX 8 11 0 0
BITMAP
20
20
20
2C
30
60
A0
20
20
20
3F
ENDCHAR
STARTCHAR 0142
ENCODING 322
SWIDTH 250 0
DWIDTH 4 0
BBX 4 12 0 0
BITMAP
60
60
60
60
70
60
E0
60
60
60
60
60
ENDCHAR
STARTCHAR 0143
ENCODING 323
SWIDTH 750 0
DWIDTH 12 0
BBX 9 13 2 1
BITMAP
0C00
0000
C180
C180
A180
B180
9180
9980
8D80
8580
8780
8380
8180
ENDCHAR
STARTCHAR 0144
ENCODING 324
SWIDTH 625 0
DWIDTH 10 0
BBX 7 11 1 0
BITMAP
0C
18
00
DC
E2
C2
C2
C2
C2
C2
C2
ENDCHAR
STARTCHAR 0147
ENCODING 327
SWIDTH 750 0
DWIDTH 12 0
BBX 9 14 2 1
BITMAP
2400
1800
0000
C180
C180
A180
B180
9180
9980
8D80
8580
8780
8380
8180
ENDCHAR
STARTCHAR 0148
ENCODING 328
SWIDTH 625 0
DWIDTH 10 0
BBX 7 11 1 0
BITMAP
3C
18
00
DC
E2
C2
C2
C2
C2
C2
C2
ENDCHAR
STARTCHAR 014B
ENCODING 331
SWIDTH 625 0
DWIDTH 10 0
BBX 7 11 1 -3
BITMAP
DC
E2
C2
C2
C2
C2
C2
C2
02
06
0C
ENDCHAR
STARTCHAR 014C
ENCODING 332
SWIDTH 812 0
DWIDTH 13 0
BBX 11 14 1 0
BITMAP
1F00
0000
1F00
3180
40C0
C040
C060
8060
8060
C060
C040
40C0
3180
1F00
ENDCHAR
STARTCHAR 014D
ENCODING 333
SWIDTH 625 0
DWIDTH 10 0
BBX 8 11 1 0
BITMAP
3C
00
00
3C
46
C3
83
83
C3
C6
3C
ENDCHAR
STARTCHAR 0150
ENCODING 336
SWIDTH 812 0
DWIDTH 13 0
BBX 11 15 1 0
BITMAP
0500
0A00
0000
1F00
3180
40C0
C040
C060
8060
8060
C060
C040
40C0
3180
1F00
ENDCHAR
STARTCHAR 0151
ENCODING 337
SWIDTH 625 0
DWIDTH 10 0
BBX 8 11 1 0
BITMAP
14
28
00
3C
46
C3
83
83
C3
C6
3C
ENDCHAR
STARTCHAR 0152
ENCODING 338
SWIDTH 1000 0
DWIDTH 16 0
BBX 14 12 1 0
BITMAP
1FFC
3180
6180
C180
C180
81F8
8180
C180
C180
4180
3180
1FFC
ENDCHAR
STARTCHAR 0153
ENCODING 339
SWIDTH 937 0
DWIDTH 15 0
BBX 14 8 1 0
BITMAP
3CF0
4798
C308
83FC
8300
C300
4788
3CF0
ENDCHAR
STARTCHAR 0154
ENCODING 340
SWIDTH 625 0
DWIDTH 10 0
BBX 8 14 2 0
BITMAP
10
00
F8
86
82
82
82
84
F8
8C
84
86
82
83
ENDCHAR
STARTCHAR 0155
ENCODING 341
SWIDTH 375 0
DWIDTH 6 0
BBX 5 11 1 0
BITMAP
30
20
00
D8
E0
C0
C0
C0
C0
C0
C0
ENDCHAR
STARTCHAR 0158
ENCODING 344
SWIDTH 625 0
DWIDTH 10 0
BBX 8 15 2 0
BITMAP
48
30
00
F8
86
82
82
82
84
F8
8C
84
86
82
83
ENDCHAR
STARTCHAR 0159
ENCODING 345
SWIDTH 375 0
DWIDTH 6 0
BBX 5 11 1 0
BITMAP
F0
60
00
D8
E0
C0
C0
C0
C0
C0
C0
ENDCHAR
STARTCHAR 015A
ENCODING 346
SWIDTH 562 0
DWIDTH 9 0
BBX 8 14 1 0
BITMAP
08
00
3C
46
C0
C0
E0
78
1E
06
03
02
C6
7C
ENDCHAR
STARTCHAR 015B
ENCODING 347
SWIDTH 437 0
DWIDTH 7 0
BBX 6 11 1 0
BITMAP
10
20
00
78
88
80
60
18
0C
8C
78
ENDCHAR
STARTCHAR 015C
ENCODING 348
SWIDTH 562 0
DWIDTH 9 0
BBX 8 15 1 0
BITMAP
18
28
00
3C
46
C0
C0
E0
78
1E
06
03
02
C6
7C
ENDCHAR
STARTCHAR 015D
ENCODING 349
SWIDTH 437 0
DWIDTH 7 0
BBX 6 11 1 0
BITMAP
30
48
00
78
88
80
60
18
0C
8C
78
ENDCHAR
STARTCHAR 015E
ENCODING 350
SWIDTH 562 0
DWIDTH 9 0
BBX 8 16 1 -4
BITMAP
3C
46
C0
C0
E0
78
1E
06
03
02
C6
7C
00
10
10
20
ENDCHAR
STARTCHAR 015F
ENCODING 351
SWIDTH 437 0
DWIDTH 7 0
BBX 6 12 1 -4
BITMAP
78
88
80
60
18
0C
8C
78
00
20
40
40
ENDCHAR
STARTCHAR 0160
ENCODING 352
SWIDTH 562 0
DWIDTH 9 0
BBX 8 15 1 0
BITMAP
28
38
00
3C
46
C0
C0
E0
78
1E
06
03
02
C6
7C
ENDCHAR
STARTCHAR 0161
ENCODING 353
SWIDTH 437 0
DWIDTH 7 0
BBX 6 11 1 0
BITMAP
50
20
00
78
88
80
60
18
0C
8C
78
ENDCHAR
STARTCHAR 0162
ENCODING 354
SWIDTH 625 0
DWIDTH 10 0
BBX 10 15 0 -3
BITMAP
FFC0
0800
0800
0800
0800
0800
0800
0800
0800
0800
0800
0000
0800
0800
1000
ENDCHAR
STARTCHAR 0163
ENCODING 355
SWIDTH 375 0
DWIDTH 6 0
BBX 4 14 1 -4
BITMAP
40
40
F0
40
40
40
40
40
40
70
00
20
40
40
ENDCHAR
STARTCHAR 0164
ENCODING 356
SWIDTH 625 0
DWIDTH 10 0
BBX 10 14 0 1
BITMAP
1200
0C00
0000
FFC0
0800
0800
0800
0800
0800
0800
0800
0800
0800
0800
ENDCHAR
STARTCHAR 0165
ENCODING 357
SWIDTH 375 0
DWIDTH 6 0
BBX 5 12 1 0
BITMAP
08
08
50
40
F0
40
40
40
40
40
40
70
ENDCHAR
STARTCHAR 016A
ENCODING 362
SWIDTH 750 0
DWIDTH 12 0
BBX 10 14 1 0
BITMAP
1E00
0000
C0C0
C0C0
C0C0
C0C0
C0C0
C0C0
C0C0
C0C0
C0C0
4080
6180
1E00
ENDCHAR
STARTCHAR 016B
ENCODING 363
SWIDTH 625 0
DWIDTH 10 0
BBX 7 11 1 0
BITMAP
3C
00
00
C2
C2
C2
C2
C2
C2
46
7A
ENDCHAR
STARTCHAR 016C
ENCODING 364
SWIDTH 750 0
DWIDTH 12 0
BBX 10 14 1 0
BITMAP
1200
1E00
0000
C0C0
C0C0
C0C0
C0C0
C0C0
C0C0
C0C0
C0C0
4080
6180
3E00
ENDCHAR
STARTCHAR 016D
ENCODING 365
SWIDTH 625 0
DWIDTH 10 0
BBX 7 11 1 0
BITMAP
24
38
00
C2
C2
C2
C2
C2
C2
46
7A
ENDCHAR
STARTCHAR 016E
ENCODING 366
SWIDTH 750 0
DWIDTH 12 0
BBX 10 15 1 0
BITMAP
0C00
1400
0C00
C0C0
C0C0
C0C0
C0C0
C0C0
C0C0
C0C0
C0C0
C0C0
4080
6180
3E00
ENDCHAR
STARTCHAR 016F
ENCODING 367
SWIDTH 625 0
DWIDTH 10 0
BBX 7 12 1 0
BITMAP
18
28
18
00
C2
C2
C2
C2
C2
C2
46
7A
ENDCHAR
STARTCHAR 0170
ENCODING 368
SWIDTH 750 0
DWIDTH 12 0
BBX 10 14 1 0
BITMAP
0B00
0A00
0000
C0C0
C0C0
C0C0
C0C0
C0C0
C0C0
C0C0
C0C0
4080
6180
3E00
ENDCHAR
STARTCHAR 0171
ENCODING 369
SWIDTH 625 0
DWIDTH 10 0
BBX 7 11 1 0
BITMAP
16
2C
00
C2
C2
C2
C2
C2
C2
46
7A
ENDCHAR
STARTCHAR 0179
ENCODING 377
SWIDTH 625 0
DWIDTH 10 0
BBX 9 14 1 0
BITMAP
0C00
0000
FF00
0300
0200
0600
0C00
1800
1800
3000
6000
4000
C000
FF80
ENDCHAR
STARTCHAR 017A
ENCODING 378
SWIDTH 500 0
DWIDTH 8 0
BBX 6 11 1 0
BITMAP
10
20
00
FC
08
18
30
20
40
C0
FC
ENDCHAR
STARTCHAR 017B
ENCODING 379
SWIDTH 625 0
DWIDTH 10 0
BBX 9 14 1 0
BITMAP
1800
1800
FF00
0300
0200
0600
0C00
1800
1800
3000
6000
4000
C000
FF80
ENDCHAR
STARTCHAR 017C
ENCODING 380
SWIDTH 500 0
DWIDTH 8 0
BBX 6 11 1 0
BITMAP
30
30
00
FC
08
18
30
20
40
C0
FC
ENDCHAR
STARTCHAR 017D
ENCODING 381
SWIDTH 625 0
DWIDTH 10 0
BBX 9 15 1 0
BITMAP
2400
1800
0000
FF00
0300
0200
0600
0C00
1800
1800
3000
6000
4000
C000
FF80
ENDCHAR
STARTCHAR 017E
ENCODING 382
SWIDTH 500 0
DWIDTH 8 0
BBX 6 11 1 0
BITMAP
78
30
00
FC
08
18
30
20
40
C0
FC
ENDCHAR
STARTCHAR 0193
ENCODING 403
SWIDTH 750 0
DWIDTH 12 0
BBX 12 14 1 0
BITMAP
0060
0050
1EC0
31C0
60C0
C0C0
C000
C000
83C0
C040
C040
6040
30C0
1F00
ENDCHAR
STARTCHAR 01C2
ENCODING 450
SWIDTH 500 0
DWIDTH 8 0
BBX 6 12 1 0
BITMAP
10
10
10
10
FC
10
10
FC
10
10
10
10
ENDCHAR
STARTCHAR 01CD
ENCODING 461
SWIDTH 625 0
DWIDTH 10 0
BBX 10 15 0 0
BITMAP
1200
0C00
0000
0C00
0C00
0E00
1200
1200
3300
2100
3F00
6080
4080
40C0
C0C0
ENDCHAR
STARTCHAR 01CE
ENCODING 462
SWIDTH 562 0
DWIDTH 9 0
BBX 7 11 1 0
BITMAP
28
10
00
78
C4
04
3C
C4
84
CE
7E
ENDCHAR
STARTCHAR 01D0
ENCODING 464
SWIDTH 250 0
DWIDTH 4 0
BBX 4 12 0 0
BITMAP
90
70
60
00
60
60
60
60
60
60
60
60
ENDCHAR
STARTCHAR 01D1
ENCODING 465
SWIDTH 812 0
DWIDTH 13 0
BBX 11 15 1 0
BITMAP
1200
0E00
0000
1F00
3180
40C0
C040
C060
8060
8060
C060
C040
40C0
3180
1F00
ENDCHAR
STARTCHAR 01D2
ENCODING 466
SWIDTH 625 0
DWIDTH 10 0
BBX 8 11 1 0
BITMAP
3C
18
00
3C
46
C3
83
83
C3
46
3C
ENDCHAR
STARTCHAR 01D4
ENCODING 468
SWIDTH 625 0
DWIDTH 10 0
BBX 7 11 1 0
BITMAP
28
18
00
C2
C2
C2
C2
C2
C2
46
7A
ENDCHAR
STARTCHAR 01D6
ENCODING 470
SWIDTH 625 0
DWIDTH 10 0
BBX 7 13 1 0
BITMAP
3C
00
64
64
00
C2
C2
C2
C2
C2
C2
46
7A
ENDCHAR
STARTCHAR 01D8
ENCODING 472
SWIDTH 625 0
DWIDTH 10 0
BBX 7 14 1 0
BITMAP
08
18
00
64
00
00
C2
C2
C2
C2
C2
C2
46
7A
ENDCHAR
STARTCHAR 01DA
ENCODING 474
SWIDTH 625 0
DWIDTH 10 0
BBX 7 14 1 0
BITMAP
24
18
00
64
00
00
C2
C2
C2
C2
C2
C2
46
7A
ENDCHAR
STARTCHAR 01DC
ENCODING 476
SWIDTH 625 0
DWIDTH 10 0
BBX 7 14 1 0
BITMAP
30
10
00
64
00
00
C2
C2
C2
C2
C2
C2
46
7A
ENDCHAR
STARTCHAR 01F8
ENCODING 504
SWIDTH 750 0
DWIDTH 12 0
BBX 9 13 2 1
BITMAP
1000
0000
C180
C180
A180
B180
9180
9980
8D80
8580
8780
8380
8180
ENDCHAR
STARTCHAR 01F9
ENCODING 505
SWIDTH 625 0
DWIDTH 10 0
BBX 7 11 1 0
BITMAP
30
10
00
DC
E2
C2
C2
C2
C2
C2
C2
ENDCHAR
STARTCHAR 01FD
ENCODING 509
SWIDTH 875 0
DWIDTH 14 0
BBX 12 11 1 0
BITMAP
0300
0200
0000
79E0
C630
0610
7FF0
C400
8600
CF10
79E0
ENDCHAR
STARTCHAR 0250
ENCODING 592
SWIDTH 562 0
DWIDTH 9 0
BBX 7 8 1 0
BITMAP
BC
C6
C2
C6
F8
C0
44
78
ENDCHAR
STARTCHAR 0251
ENCODING 593
SWIDTH 625 0
DWIDTH 10 0
BBX 8 8 1 0
BITMAP
3F
47
83
83
83
83
C7
79
ENDCHAR
STARTCHAR 0252
ENCODING 594
SWIDTH 625 0
DWIDTH 10 0
BBX 8 8 1 0
BITMAP
9C
E3
C1
C1
C1
C3
E2
FC
ENDCHAR
STARTCHAR 0253
ENCODING 595
SWIDTH 625 0
DWIDTH 10 0
BBX 8 12 1 0
BITMAP
3C
62
40
C0
DC
E2
C3
C1
C1
C3
E2
DC
ENDCHAR
STARTCHAR 0254
ENCODING 596
SWIDTH 562 0
DWIDTH 9 0
BBX 7 8 1 0
BITMAP
78
8C
06
06
06
06
8C
78
ENDCHAR
STARTCHAR 0255
ENCODING 597
SWIDTH 562 0
DWIDTH 9 0
BBX 7 9 1 -2
BITMAP
3C
46
C0
80
80
8E
D2
7E
20
ENDCHAR
STARTCHAR 0256
ENCODING 598
SWIDTH 625 0
DWIDTH 10 0
BBX 9 15 1 -3
BITMAP
0200
0200
0200
0200
3A00
C600
8200
8200
8200
C200
4600
3A00
0200
0300
0180
ENDCHAR
STARTCHAR 0257
ENCODING 599
SWIDTH 625 0
DWIDTH 10 0
BBX 10 12 1 0
BITMAP
01C0
0300
0200
0200
3A00
C600
8200
8200
8200
C200
4600
3A00
ENDCHAR
STARTCHAR 0258
ENCODING 600
SWIDTH 562 0
DWIDTH 9 0
BBX 7 8 1 0
BITMAP
78
C6
82
FE
02
02
86
78
ENDCHAR
STARTCHAR 0259
ENCODING 601
SWIDTH 562 0
DWIDTH 9 0
BBX 7 8 1 0
BITMAP
78
C6
02
02
FE
82
C6
78
ENDCHAR
STARTCHAR 025A
ENCODING 602
SWIDTH 812 0
DWIDTH 13 0
BBX 12 8 1 0
BITMAP
3C00
C680
8340
8F50
1930
6100
6200
3C00
ENDCHAR
STARTCHAR 025C
ENCODING 604
SWIDTH 500 0
DWIDTH 8 0
BBX 7 8 0 0
BITMAP
7C
06
06
3C
06
02
06
FC
ENDCHAR
STARTCHAR 025E
ENCODING 606
SWIDTH 625 0
DWIDTH 10 0
BBX 8 8 1 0
BITMAP
3C
42
82
9C
86
83
42
3C
ENDCHAR
STARTCHAR 025F
ENCODING 607
SWIDTH 250 0
DWIDTH 4 0
BBX 4 11 0 -3
BITMAP
60
60
60
60
60
60
60
F0
60
40
C0
ENDCHAR
STARTCHAR 0260
ENCODING 608
SWIDTH 625 0
DWIDTH 10 0
BBX 10 15 1 -3
BITMAP
01C0
0300
0300
0300
3F00
4700
C300
8300
8300
8300
C700
7B00
0200
C600
7C00
ENDCHAR
STARTCHAR 0261
ENCODING 609
SWIDTH 625 0
DWIDTH 10 0
BBX 8 11 1 -3
BITMAP
3F
47
C3
83
83
83
C7
7B
02
C6
7C
ENDCHAR
STARTCHAR 0264
ENCODING 612
SWIDTH 562 0
DWIDTH 9 0
BBX 9 8 0 0
BITMAP
E180
3600
1C00
1C00
1600
3200
3200
1C00
ENDCHAR
STARTCHAR 0265
ENCODING 613
SWIDTH 625 0
DWIDTH 10 0
BBX 7 11 1 -3
BITMAP
C2
C2
C2
C2
C2
C2
46
7A
02
02
02
ENDCHAR
STARTCHAR 0266
ENCODING 614
SWIDTH 625 0
DWIDTH 10 0
BBX 7 12 1 0
BITMAP
3C
62
40
C0
DC
E2
C2
C2
C2
C2
C2
C2
ENDCHAR
STARTCHAR 0267
ENCODING 615
SWIDTH 625 0
DWIDTH 10 0
BBX 7 15 1 -3
BITMAP
3C
62
40
C0
DC
E2
C2
C2
C2
C2
C2
C2
02
06
0C
ENDCHAR
STARTCHAR 0268
ENCODING 616
SWIDTH 312 0
DWIDTH 5 0
BBX 4 12 0 -1
BITMAP
20
20
00
00
20
20
20
F0
20
20
20
20
ENDCHAR
STARTCHAR 026C
ENCODING 620
SWIDTH 312 0
DWIDTH 5 0
BBX 5 12 0 0
BITMAP
10
10
10
D0
B0
90
78
10
10
10
10
10
ENDCHAR
STARTCHAR 026D
ENCODING 621
SWIDTH 312 0
DWIDTH 5 0
BBX 4 15 1 -3
BITMAP
C0
C0
C0
C0
C0
C0
C0
C0
C0
C0
C0
C0
C0
50
70
ENDCHAR
STARTCHAR 026E
ENCODING 622
SWIDTH 625 0
DWIDTH 10 0
BBX 8 15 1 -3
BITMAP
C0
C0
C0
C0
FF
C3
C4
C8
DE
C3
C1
C1
01
23
1E
ENDCHAR
STARTCHAR 026F
ENCODING 623
SWIDTH 875 0
DWIDTH 14 0
BBX 12 8 1 0
BITMAP
C630
C630
C630
C630
C630
C630
4E70
7BB0
ENDCHAR
STARTCHAR 0270
ENCODING 624
SWIDTH 875 0
DWIDTH 14 0
BBX 12 11 1 -3
BITMAP
C630
C630
C630
C630
C630
C630
4670
7BF0
0030
0030
0030
ENDCHAR
STARTCHAR 0271
ENCODING 625
SWIDTH 875 0
DWIDTH 14 0
BBX 12 11 1 -3
BITMAP
FDE0
E620
C630
C630
C630
C630
C630
C630
0020
0060
00C0
ENDCHAR
STARTCHAR 0272
ENCODING 626
SWIDTH 625 0
DWIDTH 10 0
BBX 9 11 -1 -3
BITMAP
3700
3880
3080
3080
3080
3080
3080
3080
3000
2000
E000
ENDCHAR
STARTCHAR 0273
ENCODING 627
SWIDTH 625 0
DWIDTH 10 0
BBX 9 11 1 -3
BITMAP
DC00
E200
C200
C200
C200
C200
C200
C200
0200
0200
0180
ENDCHAR
STARTCHAR 0275
ENCODING 629
SWIDTH 625 0
DWIDTH 10 0
BBX 8 8 1 0
BITMAP
7C
C6
83
FF
83
C3
46
3C
ENDCHAR
STARTCHAR 0279
ENCODING 633
SWIDTH 375 0
DWIDTH 6 0
BBX 4 8 0 0
BITMAP
10
10
10
10
10
10
30
D0
ENDCHAR
STARTCHAR 027A
ENCODING 634
SWIDTH 375 0
DWIDTH 6 0
BBX 4 11 0 0
BITMAP
10
10
10
10
10
10
10
10
10
30
D0
ENDCHAR
STARTCHAR 027B
ENCODING 635
SWIDTH 375 0
DWIDTH 6 0
BBX 6 11 0 -3
BITMAP
10
10
10
10
10
10
30
D0
10
10
0C
ENDCHAR
STARTCHAR 027D
ENCODING 637
SWIDTH 375 0
DWIDTH 6 0
BBX 5 11 1 -3
BITMAP
D8
E0
C0
C0
C0
C0
C0
C0
C0
C0
70
ENDCHAR
STARTCHAR 027E
ENCODING 638
SWIDTH 375 0
DWIDTH 6 0
BBX 5 8 1 0
BITMAP
78
40
C0
C0
C0
C0
C0
C0
ENDCHAR
STARTCHAR 0281
ENCODING 641
SWIDTH 562 0
DWIDTH 9 0
BBX 7 8 1 0
BITMAP
C6
C4
CC
F8
CC
C4
C4
FC
ENDCHAR
STARTCHAR 0282
ENCODING 642
SWIDTH 437 0
DWIDTH 7 0
BBX 6 11 1 -3
BITMAP
78
88
80
60
18
0C
8C
F8
80
80
E0
ENDCHAR
STARTCHAR 0283
ENCODING 643
SWIDTH 312 0
DWIDTH 5 0
BBX 4 16 0 -4
BITMAP
10
20
20
20
20
20
20
20
20
20
20
20
20
20
60
C0
ENDCHAR
STARTCHAR 0284
ENCODING 644
SWIDTH 312 0
DWIDTH 5 0
BBX 6 15 0 -3
BITMAP
1C
20
20
20
20
20
20
20
20
20
20
F8
20
60
C0
ENDCHAR
STARTCHAR 0288
ENCODING 648
SWIDTH 375 0
DWIDTH 6 0
BBX 4 13 1 -3
BITMAP
40
40
F0
40
40
40
40
40
40
40
40
40
70
ENDCHAR
STARTCHAR 0289
ENCODING 649
SWIDTH 625 0
DWIDTH 10 0
BBX 9 8 0 0
BITMAP
6100
6100
6100
FF80
6100
6100
2300
3D00
ENDCHAR
STARTCHAR 028A
ENCODING 650
SWIDTH 625 0
DWIDTH 10 0
BBX 8 8 1 0
BITMAP
E7
64
42
C2
C3
C2
46
3C
ENDCHAR
STARTCHAR 028B
ENCODING 651
SWIDTH 562 0
DWIDTH 9 0
BBX 7 8 1 0
BITMAP
CC
C6
C2
C2
C2
C2
44
78
ENDCHAR
STARTCHAR 028C
ENCODING 652
SWIDTH 500 0
DWIDTH 8 0
BBX 8 8 0 0
BITMAP
18
18
38
24
64
46
42
C3
ENDCHAR
STARTCHAR 028D
ENCODING 653
SWIDTH 750 0
DWIDTH 12 0
BBX 12 8 0 0
BITMAP
1080
30C0
2940
2940
6960
4620
4620
C630
ENDCHAR
STARTCHAR 028E
ENCODING 654
SWIDTH 500 0
DWIDTH 8 0
BBX 8 11 0 0
BITMAP
06
0C
08
18
18
38
2C
24
66
42
C3
ENDCHAR
STARTCHAR 0290
ENCODING 656
SWIDTH 500 0
DWIDTH 8 0
BBX 8 11 1 -3
BITMAP
FC
08
18
30
20
40
C0
FC
04
04
07
ENDCHAR
STARTCHAR 0291
ENCODING 657
SWIDTH 500 0
DWIDTH 8 0
BBX 7 9 1 -2
BITMAP
FC
08
10
30
20
4E
92
FE
20
ENDCHAR
STARTCHAR 0292
ENCODING 658
SWIDTH 500 0
DWIDTH 8 0
BBX 6 11 1 -3
BITMAP
FC
08
10
20
78
0C
04
04
84
8C
78
ENDCHAR
STARTCHAR 0294
ENCODING 660
SWIDTH 500 0
DWIDTH 8 0
BBX 6 11 1 1
BITMAP
78
8C
04
04
0C
38
30
30
30
30
30
ENDCHAR
STARTCHAR 0295
ENCODING 661
SWIDTH 500 0
DWIDTH 8 0
BBX 6 11 1 1
BITMAP
78
C4
84
80
C0
70
30
30
30
30
30
ENDCHAR
STARTCHAR 0298
ENCODING 664
SWIDTH 625 0
DWIDTH 10 0
BBX 8 8 1 0
BITMAP
3C
42
99
99
99
81
42
3C
ENDCHAR
STARTCHAR 029D
ENCODING 669
SWIDTH 375 0
DWIDTH 6 0
BBX 7 14 -1 -3
BITMAP
08
08
00
00
08
08
08
08
08
08
08
78
8E
78
ENDCHAR
STARTCHAR 02A1
ENCODING 673
SWIDTH 500 0
DWIDTH 8 0
BBX 6 11 1 1
BITMAP
78
8C
04
04
0C
38
30
78
30
30
30
ENDCHAR
STARTCHAR 02A2
ENCODING 674
SWIDTH 500 0
DWIDTH 8 0
BBX 6 11 1 1
BITMAP
78
C4
84
80
C0
70
30
78
30
30
30
ENDCHAR
STARTCHAR 02BB
ENCODING 699
SWIDTH 1000 0
DWIDTH 16 0
BBX 2 4 13 9
BITMAP
C0
80
C0
C0
ENDCHAR
STARTCHAR 02BC
ENCODING 700
SWIDTH 1000 0
DWIDTH 16 0
BBX 2 4 1 9
BITMAP
C0
C0
40
C0
ENDCHAR
STARTCHAR 02C6
ENCODING 710
SWIDTH 500 0
DWIDTH 8 0
BBX 4 3 2 9
BITMAP
60
60
90
ENDCHAR
STARTCHAR 02C7
ENCODING 711
SWIDTH 500 0
DWIDTH 8 0
BBX 4 3 2 9
BITMAP
90
60
60
ENDCHAR
STARTCHAR 02C8
ENCODING 712
SWIDTH 187 0
DWIDTH 3 0
BBX 1 6 1 6
BITMAP
80
80
80
80
80
80
ENDCHAR
STARTCHAR 02CC
ENCODING 716
SWIDTH 187 0
DWIDTH 3 0
BBX 1 6 1 -2
BITMAP
80
80
80
80
80
80
ENDCHAR
STARTCHAR 02D0
ENCODING 720
SWIDTH 312 0
DWIDTH 5 0
BBX 2 8 1 0
BITMAP
C0
40
00
00
00
00
40
C0
ENDCHAR
STARTCHAR 02D1
ENCODING 721
SWIDTH 312 0
DWIDTH 5 0
BBX 2 2 1 6
BITMAP
C0
40
ENDCHAR
STARTCHAR 02D8
ENCODING 728
SWIDTH 500 0
DWIDTH 8 0
BBX 4 1 2 10
BITMAP
F0
ENDCHAR
STARTCHAR 02D9
ENCODING 729
SWIDTH 500 0
DWIDTH 8 0
BBX 2 2 3 9
BITMAP
C0
C0
ENDCHAR
STARTCHAR 02DB
ENCODING 731
SWIDTH 500 0
DWIDTH 8 0
BBX 3 4 2 -4
BITMAP
60
40
C0
60
ENDCHAR
STARTCHAR 02DC
ENCODING 732
SWIDTH 500 0
DWIDTH 8 0
BBX 5 2 1 10
BITMAP
60
98
ENDCHAR
STARTCHAR 02DD
ENCODING 733
SWIDTH 500 0
DWIDTH 8 0
BBX 5 3 2 9
BITMAP
48
50
A0
ENDCHAR
STARTCHAR 02DE
ENCODING 734
SWIDTH 500 0
DWIDTH 8 0
BBX 5 4 2 0
BITMAP
E0
20
28
30
ENDCHAR
STARTCHAR 02E5
ENCODING 741
SWIDTH 500 0
DWIDTH 8 0
BBX 4 12 1 0
BITMAP
F0
10
10
10
10
10
10
10
10
10
10
10
ENDCHAR
STARTCHAR 02E6
ENCODING 742
SWIDTH 500 0
DWIDTH 8 0
BBX 4 12 1 0
BITMAP
10
10
10
F0
10
10
10
10
10
10
10
10
ENDCHAR
STARTCHAR 02E7
ENCODING 743
SWIDTH 500 0
DWIDTH 8 0
BBX 4 11 1 0
BITMAP
10
10
10
10
10
F0
10
10
10
10
10
ENDCHAR
STARTCHAR 02E8
ENCODING 744
SWIDTH 500 0
DWIDTH 8 0
BBX 4 12 1 0
BITMAP
10
10
10
10
10
10
10
10
F0
10
10
10
ENDCHAR
STARTCHAR 02E9
ENCODING 745
SWIDTH 500 0
DWIDTH 8 0
BBX 4 12 1 0
BITMAP
10
10
10
10
10
10
10
10
10
10
10
F0
ENDCHAR
STARTCHAR 0300
ENCODING 768
SWIDTH 500 0
DWIDTH 8 0
BBX 3 3 2 9
BITMAP
C0
40
20
ENDCHAR
STARTCHAR 0301
ENCODING 769
SWIDTH 500 0
DWIDTH 8 0
BBX 3 3 3 9
BITMAP
60
40
80
ENDCHAR
STARTCHAR 0302
ENCODING 770
SWIDTH 500 0
DWIDTH 8 0
BBX 4 3 2 9
BITMAP
60
60
90
ENDCHAR
STARTCHAR 0303
ENCODING 771
SWIDTH 500 0
DWIDTH 8 0
BBX 5 2 1 10
BITMAP
60
98
ENDCHAR
STARTCHAR 0304
ENCODING 772
SWIDTH 500 0
DWIDTH 8 0
BBX 4 1 2 10
BITMAP
F0
ENDCHAR
STARTCHAR 0305
ENCODING 773
SWIDTH 500 0
DWIDTH 8 0
BBX 4 1 2 10
BITMAP
F0
ENDCHAR
STARTCHAR 0306
ENCODING 774
SWIDTH 500 0
DWIDTH 8 0
BBX 4 1 2 10
BITMAP
F0
ENDCHAR
STARTCHAR 0308
ENCODING 776
SWIDTH 500 0
DWIDTH 8 0
BBX 4 1 2 10
BITMAP
90
ENDCHAR
STARTCHAR 030B
ENCODING 779
SWIDTH 500 0
DWIDTH 8 0
BBX 5 3 2 9
BITMAP
48
50
A0
ENDCHAR
STARTCHAR 030C
ENCODING 780
SWIDTH 500 0
DWIDTH 8 0
BBX 4 3 2 9
BITMAP
90
60
60
ENDCHAR
STARTCHAR 030F
ENCODING 783
SWIDTH 500 0
DWIDTH 8 0
BBX 5 3 1 9
BITMAP
90
50
28
ENDCHAR
STARTCHAR 0318
ENCODING 792
SWIDTH 500 0
DWIDTH 8 0
BBX 3 5 2 -5
BITMAP
20
20
E0
20
20
ENDCHAR
STARTCHAR 0319
ENCODING 793
SWIDTH 500 0
DWIDTH 8 0
BBX 3 5 3 -5
BITMAP
80
80
E0
80
80
ENDCHAR
STARTCHAR 031A
ENCODING 794
SWIDTH 500 0
DWIDTH 8 0
BBX 3 4 1 7
BITMAP
E0
20
20
20
ENDCHAR
STARTCHAR 031C
ENCODING 796
SWIDTH 500 0
DWIDTH 8 0
BBX 2 3 3 -4
BITMAP
80
80
C0
ENDCHAR
STARTCHAR 031D
ENCODING 797
SWIDTH 500 0
DWIDTH 8 0
BBX 4 2 2 -2
BITMAP
40
F0
ENDCHAR
STARTCHAR 031E
ENCODING 798
SWIDTH 500 0
DWIDTH 8 0
BBX 4 2 2 -4
BITMAP
F0
40
ENDCHAR
STARTCHAR 031F
ENCODING 799
SWIDTH 500 0
DWIDTH 8 0
BBX 4 3 2 -4
BITMAP
40
F0
40
ENDCHAR
STARTCHAR 0320
ENCODING 800
SWIDTH 500 0
DWIDTH 8 0
BBX 4 1 2 -2
BITMAP
F0
ENDCHAR
STARTCHAR 0324
ENCODING 804
SWIDTH 500 0
DWIDTH 8 0
BBX 4 1 2 -2
BITMAP
90
ENDCHAR
STARTCHAR 0325
ENCODING 805
SWIDTH 500 0
DWIDTH 8 0
BBX 2 2 3 -3
BITMAP
C0
C0
ENDCHAR
STARTCHAR 0327
ENCODING 807
SWIDTH 500 0
DWIDTH 8 0
BBX 4 4 2 -4
BITMAP
40
30
30
C0
ENDCHAR
STARTCHAR 0329
ENCODING 809
SWIDTH 500 0
DWIDTH 8 0
BBX 1 3 3 -3
BITMAP
80
80
80
ENDCHAR
STARTCHAR 032A
ENCODING 810
SWIDTH 500 0
DWIDTH 8 0
BBX 4 3 2 -4
BITMAP
F0
90
90
ENDCHAR
STARTCHAR 032C
ENCODING 812
SWIDTH 500 0
DWIDTH 8 0
BBX 4 2 2 -3
BITMAP
F0
60
ENDCHAR
STARTCHAR 032F
ENCODING 815
SWIDTH 500 0
DWIDTH 8 0
BBX 4 2 2 -3
BITMAP
F0
90
ENDCHAR
STARTCHAR 0330
ENCODING 816
SWIDTH 500 0
DWIDTH 8 0
BBX 5 1 2 -2
BITMAP
F8
ENDCHAR
STARTCHAR 0332
ENCODING 818
SWIDTH 500 0
DWIDTH 8 0
BBX 8 1 0 -2
BITMAP
FF
ENDCHAR
STARTCHAR 0334
ENCODING 820
SWIDTH 500 0
DWIDTH 8 0
BBX 5 2 1 4
BITMAP
60
98
ENDCHAR
STARTCHAR 0336
ENCODING 822
SWIDTH 937 0
DWIDTH 15 0
BBX 13 1 1 6
BITMAP
FFF8
ENDCHAR
STARTCHAR 0339
ENCODING 825
SWIDTH 500 0
DWIDTH 8 0
BBX 2 3 3 -4
BITMAP
40
40
C0
ENDCHAR
STARTCHAR 033A
ENCODING 826
SWIDTH 500 0
DWIDTH 8 0
BBX 4 3 2 -4
BITMAP
90
90
F0
ENDCHAR
STARTCHAR 033B
ENCODING 827
SWIDTH 500 0
DWIDTH 8 0
BBX 4 3 2 -4
BITMAP
F0
90
F0
ENDCHAR
STARTCHAR 033C
ENCODING 828
SWIDTH 500 0
DWIDTH 8 0
BBX 4 1 2 -2
BITMAP
F0
ENDCHAR
STARTCHAR 033D
ENCODING 829
SWIDTH 500 0
DWIDTH 8 0
BBX 4 4 2 8
BITMAP
90
60
60
10
ENDCHAR
STARTCHAR 0361
ENCODING 865
SWIDTH 0 0
DWIDTH 0 0
BBX 8 2 -4 13
BITMAP
3C
C3
ENDCHAR
STARTCHAR 0391
ENCODING 913
SWIDTH 1000 0
DWIDTH 16 0
BBX 10 11 3 1
BITMAP
0C00
1E00
1200
1200
3300
2100
7F80
4080
4080
C0C0
8040
ENDCHAR
STARTCHAR 0392
ENCODING 914
SWIDTH 1000 0
DWIDTH 16 0
BBX 9 11 4 1
BITMAP
FE00
8300
8100
8100
8300
FE00
8100
8180
8180
8180
FE00
ENDCHAR
STARTCHAR 0393
ENCODING 915
SWIDTH 1000 0
DWIDTH 16 0
BBX 9 11 4 1
BITMAP
FF80
8000
8000
8000
8000
8000
8000
8000
8000
8000
8000
ENDCHAR
STARTCHAR 0394
ENCODING 916
SWIDTH 1000 0
DWIDTH 16 0
BBX 10 11 3 1
BITMAP
0C00
1E00
1E00
1200
3300
2100
6180
4080
C0C0
C0C0
FFC0
ENDCHAR
STARTCHAR 0395
ENCODING 917
SWIDTH 1000 0
DWIDTH 16 0
BBX 8 11 4 1
BITMAP
FF
80
80
80
80
FF
80
80
80
80
FF
ENDCHAR
STARTCHAR 0396
ENCODING 918
SWIDTH 1000 0
DWIDTH 16 0
BBX 10 11 3 1
BITMAP
7F80
0180
0300
0600
0400
0C00
1800
3000
2000
4000
FFC0
ENDCHAR
STARTCHAR 0397
ENCODING 919
SWIDTH 1000 0
DWIDTH 16 0
BBX 10 11 3 1
BITMAP
C0C0
C0C0
C0C0
C0C0
C0C0
FFC0
C0C0
C0C0
C0C0
C0C0
C0C0
ENDCHAR
STARTCHAR 0398
ENCODING 920
SWIDTH 1000 0
DWIDTH 16 0
BBX 10 12 3 0
BITMAP
1E00
6180
4080
C0C0
8040
BF40
8040
8040
C0C0
4080
6180
1E00
ENDCHAR
STARTCHAR 0399
ENCODING 921
SWIDTH 1000 0
DWIDTH 16 0
BBX 2 11 7 1
BITMAP
C0
C0
C0
C0
C0
C0
C0
C0
C0
C0
C0
ENDCHAR
STARTCHAR 039A
ENCODING 922
SWIDTH 1000 0
DWIDTH 16 0
BBX 9 11 4 1
BITMAP
8300
8600
8C00
9800
B000
F800
CC00
8600
8200
8300
8180
ENDCHAR
STARTCHAR 039B
ENCODING 923
SWIDTH 1000 0
DWIDTH 16 0
BBX 10 11 3 1
BITMAP
0C00
0C00
1E00
1200
3300
2100
2100
6180
4080
C0C0
C0C0
ENDCHAR
STARTCHAR 039C
ENCODING 924
SWIDTH 1000 0
DWIDTH 16 0
BBX 12 11 2 1
BITMAP
E070
E070
E070
D0F0
D0B0
D9B0
C930
C930
CF30
C630
C630
ENDCHAR
STARTCHAR 039D
ENCODING 925
SWIDTH 1000 0
DWIDTH 16 0
BBX 10 11 3 1
BITMAP
E0C0
E0C0
D0C0
D8C0
C8C0
CCC0
C6C0
C2C0
C3C0
C1C0
C0C0
ENDCHAR
STARTCHAR 039E
ENCODING 926
SWIDTH 1000 0
DWIDTH 16 0
BBX 10 11 3 1
BITMAP
7F80
0000
0000
0000
0000
7F80
0000
0000
0000
0000
FFC0
ENDCHAR
STARTCHAR 039F
ENCODING 927
SWIDTH 1000 0
DWIDTH 16 0
BBX 10 12 3 0
BITMAP
1E00
6180
4080
C0C0
8040
8040
8040
8040
C0C0
4080
6180
1E00
ENDCHAR
STARTCHAR 03A0
ENCODING 928
SWIDTH 1000 0
DWIDTH 16 0
BBX 8 11 4 1
BITMAP
FF
81
81
81
81
81
81
81
81
81
81
ENDCHAR
STARTCHAR 03A1
ENCODING 929
SWIDTH 1000 0
DWIDTH 16 0
BBX 9 11 4 1
BITMAP
FE00
C100
C180
C180
C100
FE00
C000
C000
C000
C000
C000
ENDCHAR
STARTCHAR 03A3
ENCODING 931
SWIDTH 1000 0
DWIDTH 16 0
BBX 10 11 3 1
BITMAP
FFC0
6000
3000
1800
0C00
0400
0800
1000
2000
4000
FFC0
ENDCHAR
STARTCHAR 03A4
ENCODING 932
SWIDTH 1000 0
DWIDTH 16 0
BBX 10 11 3 1
BITMAP
FFC0
0C00
0C00
0C00
0C00
0C00
0C00
0C00
0C00
0C00
0C00
ENDCHAR
STARTCHAR 03A5
ENCODING 933
SWIDTH 1000 0
DWIDTH 16 0
BBX 10 11 3 1
BITMAP
C0C0
6180
6180
3300
1200
0E00
0C00
0C00
0C00
0C00
0C00
ENDCHAR
STARTCHAR 03A6
ENCODING 934
SWIDTH 1000 0
DWIDTH 16 0
BBX 10 11 3 1
BITMAP
0C00
0C00
7F80
CCC0
8C40
8C40
8C40
CCC0
7F80
0E00
0C00
ENDCHAR
STARTCHAR 03A7
ENCODING 935
SWIDTH 1000 0
DWIDTH 16 0
BBX 10 11 3 1
BITMAP
4080
6180
3300
1E00
0C00
0C00
1E00
3300
2100
6180
C0C0
ENDCHAR
STARTCHAR 03A8
ENCODING 936
SWIDTH 1000 0
DWIDTH 16 0
BBX 10 11 3 1
BITMAP
CCC0
CCC0
CCC0
CCC0
CCC0
CCC0
4C80
3F00
0C00
0C00
0C00
ENDCHAR
STARTCHAR 03A9
ENCODING 937
SWIDTH 1000 0
DWIDTH 16 0
BBX 10 11 3 1
BITMAP
1E00
6180
C0C0
C0C0
8040
8040
C0C0
4080
6180
1200
F3C0
ENDCHAR
STARTCHAR 03B1
ENCODING 945
SWIDTH 1000 0
DWIDTH 16 0
BBX 10 8 3 0
BITMAP
1C80
2680
4300
4300
C200
C640
CA80
7180
ENDCHAR
STARTCHAR 03B2
ENCODING 946
SWIDTH 1000 0
DWIDTH 16 0
BBX 9 14 3 -2
BITMAP
0700
0880
1080
3080
2180
2E00
6300
4100
4100
4100
6300
DE00
C000
8000
ENDCHAR
STARTCHAR 03B3
ENCODING 947
SWIDTH 1000 0
DWIDTH 16 0
BBX 9 9 3 -1
BITMAP
7880
C980
0B00
0A00
0C00
0800
0800
1800
1800
ENDCHAR
STARTCHAR 03B4
ENCODING 948
SWIDTH 1000 0
DWIDTH 16 0
BBX 8 12 4 0
BITMAP
3C
27
31
18
1C
66
42
C2
C2
C6
4C
78
ENDCHAR
STARTCHAR 03B5
ENCODING 949
SWIDTH 1000 0
DWIDTH 16 0
BBX 7 8 4 0
BITMAP
3E
62
60
3C
40
C2
C6
78
ENDCHAR
STARTCHAR 03B6
ENCODING 950
SWIDTH 1000 0
DWIDTH 16 0
BBX 8 13 5 -1
BITMAP
67
4E
78
20
40
40
80
80
80
F8
0C
0C
F8
ENDCHAR
STARTCHAR 03B7
ENCODING 951
SWIDTH 1000 0
DWIDTH 16 0
BBX 9 9 3 -1
BITMAP
7700
D880
1880
1180
1100
2100
2100
0300
0200
ENDCHAR
STARTCHAR 03B8
ENCODING 952
SWIDTH 1000 0
DWIDTH 16 0
BBX 8 12 4 0
BITMAP
1E
32
61
41
C1
FF
83
83
82
86
4C
78
ENDCHAR
STARTCHAR 03B9
ENCODING 953
SWIDTH 1000 0
DWIDTH 16 0
BBX 6 8 5 0
BITMAP
30
20
60
40
C0
8C
98
70
ENDCHAR
STARTCHAR 03BA
ENCODING 954
SWIDTH 1000 0
DWIDTH 16 0
BBX 8 8 4 1
BITMAP
23
2C
70
70
48
C9
CB
0E
ENDCHAR
STARTCHAR 03BB
ENCODING 955
SWIDTH 1000 0
DWIDTH 16 0
BBX 9 11 3 1
BITMAP
1C00
2600
0200
0200
0600
0E00
1A00
1200
3300
6100
C180
ENDCHAR
STARTCHAR 03BC
ENCODING 956
SWIDTH 1000 0
DWIDTH 16 0
BBX 11 10 3 -2
BITMAP
3180
2100
2100
2100
6300
6320
6540
5980
C000
8000
ENDCHAR
STARTCHAR 03BD
ENCODING 957
SWIDTH 1000 0
DWIDTH 16 0
BBX 7 8 5 0
BITMAP
82
C6
C6
44
4C
D8
F0
C0
ENDCHAR
STARTCHAR 03BE
ENCODING 958
SWIDTH 1000 0
DWIDTH 16 0
BBX 7 13 4 -1
BITMAP
1E
20
60
60
3E
3E
40
C0
C0
38
06
06
7C
ENDCHAR
STARTCHAR 03BF
ENCODING 959
SWIDTH 1000 0
DWIDTH 16 0
BBX 8 8 4 0
BITMAP
1E
22
43
C3
C2
C2
44
38
ENDCHAR
STARTCHAR 03C0
ENCODING 960
SWIDTH 1000 0
DWIDTH 16 0
BBX 9 8 4 1
BITMAP
FF80
A400
2400
6C00
4800
C880
C900
0E00
ENDCHAR
STARTCHAR 03C1
ENCODING 961
SWIDTH 1000 0
DWIDTH 16 0
BBX 8 10 4 -2
BITMAP
1C
22
43
43
C3
C2
C6
BC
80
80
ENDCHAR
STARTCHAR 03C2
ENCODING 962
SWIDTH 562 0
DWIDTH 9 0
BBX 8 11 1 -3
BITMAP
3C
46
C3
C0
40
60
30
18
0C
88
78
ENDCHAR
STARTCHAR 03C3
ENCODING 963
SWIDTH 1000 0
DWIDTH 16 0
BBX 9 9 4 0
BITMAP
1F80
2200
4200
4300
C300
C200
C200
4400
3800
ENDCHAR
STARTCHAR 03C4
ENCODING 964
SWIDTH 1000 0
DWIDTH 16 0
BBX 8 8 4 1
BITMAP
FF
18
10
30
20
22
26
3C
ENDCHAR
STARTCHAR 03C5
ENCODING 965
SWIDTH 1000 0
DWIDTH 16 0
BBX 9 8 3 0
BITMAP
7100
D180
1180
3080
2180
6100
2200
3C00
ENDCHAR
STARTCHAR 03C6
ENCODING 966
SWIDTH 1000 0
DWIDTH 16 0
BBX 9 12 3 -1
BITMAP
0200
0600
0E00
3580
6480
4C80
C880
4880
6980
3E00
1000
1000
ENDCHAR
STARTCHAR 03C7
ENCODING 967
SWIDTH 1000 0
DWIDTH 16 0
BBX 8 9 4 -1
BITMAP
63
96
14
18
18
38
68
49
8E
ENDCHAR
STARTCHAR 03C8
ENCODING 968
SWIDTH 1000 0
DWIDTH 16 0
BBX 10 13 3 -2
BITMAP
0200
0200
0600
3480
6480
C4C0
CCC0
C8C0
4980
7F00
1C00
1000
1000
ENDCHAR
STARTCHAR 03C9
ENCODING 969
SWIDTH 1000 0
DWIDTH 16 0
BBX 10 9 3 0
BITMAP
0080
3080
64C0
CC40
8C40
8840
88C0
9480
6300
ENDCHAR
STARTCHAR 0401
ENCODING 1025
SWIDTH 1000 0
DWIDTH 16 0
BBX 8 13 4 1
BITMAP
66
00
FF
80
80
80
80
FF
80
80
80
80
FF
ENDCHAR
STARTCHAR 0410
ENCODING 1040
SWIDTH 1000 0
DWIDTH 16 0
BBX 10 11 3 1
BITMAP
0C00
1E00
1200
1200
3300
2100
7F80
4080
4080
C0C0
8040
ENDCHAR
STARTCHAR 0411
ENCODING 1041
SWIDTH 1000 0
DWIDTH 16 0
BBX 9 11 4 1
BITMAP
FF00
8000
8000
8000
8000
FE00
8100
8180
8180
8180
FE00
ENDCHAR
STARTCHAR 0412
ENCODING 1042
SWIDTH 1000 0
DWIDTH 16 0
BBX 9 11 4 1
BITMAP
FE00
8300
8100
8100
8300
FE00
8100
8180
8180
8180
FE00
ENDCHAR
STARTCHAR 0413
ENCODING 1043
SWIDTH 1000 0
DWIDTH 16 0
BBX 9 11 4 1
BITMAP
FF80
8000
8000
8000
8000
8000
8000
8000
8000
8000
8000
ENDCHAR
STARTCHAR 0414
ENCODING 1044
SWIDTH 1000 0
DWIDTH 16 0
BBX 10 13 3 -1
BITMAP
1F80
1080
3080
3080
3080
3080
2080
2080
6080
4080
FFC0
8040
8040
ENDCHAR
STARTCHAR 0415
ENCODING 1045
SWIDTH 1000 0
DWIDTH 16 0
BBX 8 11 4 1
BITMAP
FF
80
80
80
80
FF
80
80
80
80
FF
ENDCHAR
STARTCHAR 0416
ENCODING 1046
SWIDTH 1000 0
DWIDTH 16 0
BBX 12 11 2 1
BITMAP
C630
4620
4620
2640
3FC0
1680
36C0
2640
6660
C630
8610
ENDCHAR
STARTCHAR 0417
ENCODING 1047
SWIDTH 1000 0
DWIDTH 16 0
BBX 9 12 3 0
BITMAP
1E00
6100
4180
0180
0100
0E00
0300
0080
0080
C080
6180
3E00
ENDCHAR
STARTCHAR 0418
ENCODING 1048
SWIDTH 1000 0
DWIDTH 16 0
BBX 10 11 3 1
BITMAP
C0C0
C0C0
C1C0
C3C0
C6C0
CCC0
D8C0
F0C0
E0C0
C0C0
C0C0
ENDCHAR
STARTCHAR 0419
ENCODING 1049
SWIDTH 1000 0
DWIDTH 16 0
BBX 10 13 3 1
BITMAP
3300
1E00
C0C0
C0C0
C1C0
C3C0
C6C0
CCC0
D8C0
F0C0
E0C0
C0C0
C0C0
ENDCHAR
STARTCHAR 041A
ENCODING 1050
SWIDTH 1000 0
DWIDTH 16 0
BBX 9 11 4 1
BITMAP
8100
8300
8200
8600
BC00
F800
8C00
8600
8300
8100
8180
ENDCHAR
STARTCHAR 041B
ENCODING 1051
SWIDTH 1000 0
DWIDTH 16 0
BBX 10 12 2 0
BITMAP
0FC0
0C40
0C40
0C40
0840
0840
0840
0840
0840
9840
D040
7000
ENDCHAR
STARTCHAR 041C
ENCODING 1052
SWIDTH 1000 0
DWIDTH 16 0
BBX 12 11 2 1
BITMAP
E070
E070
E070
D0F0
D0B0
D9B0
C930
C930
CF30
C630
C630
ENDCHAR
STARTCHAR 041D
ENCODING 1053
SWIDTH 1000 0
DWIDTH 16 0
BBX 10 11 3 1
BITMAP
C0C0
C0C0
C0C0
C0C0
C0C0
FFC0
C0C0
C0C0
C0C0
C0C0
C0C0
ENDCHAR
STARTCHAR 041E
ENCODING 1054
SWIDTH 1000 0
DWIDTH 16 0
BBX 10 12 3 0
BITMAP
1E00
6180
4080
C0C0
8040
8040
8040
8040
C0C0
4080
6180
1E00
ENDCHAR
STARTCHAR 041F
ENCODING 1055
SWIDTH 1000 0
DWIDTH 16 0
BBX 8 11 4 1
BITMAP
FF
81
81
81
81
81
81
81
81
81
81
ENDCHAR
STARTCHAR 0420
ENCODING 1056
SWIDTH 1000 0
DWIDTH 16 0
BBX 9 11 4 1
BITMAP
FE00
C100
C180
C180
C100
FE00
C000
C000
C000
C000
C000
ENDCHAR
STARTCHAR 0421
ENCODING 1057
SWIDTH 1000 0
DWIDTH 16 0
BBX 10 12 3 0
BITMAP
1F00
6180
40C0
8000
8000
8000
8000
80C0
C0C0
4080
6100
1E00
ENDCHAR
STARTCHAR 0422
ENCODING 1058
SWIDTH 1000 0
DWIDTH 16 0
BBX 10 11 3 1
BITMAP
FFC0
0C00
0C00
0C00
0C00
0C00
0C00
0C00
0C00
0C00
0C00
ENDCHAR
STARTCHAR 0423
ENCODING 1059
SWIDTH 1000 0
DWIDTH 16 0
BBX 9 11 4 1
BITMAP
8180
C100
4100
6300
2200
3600
1400
0C00
0800
1800
F000
ENDCHAR
STARTCHAR 0424
ENCODING 1060
SWIDTH 1000 0
DWIDTH 16 0
BBX 10 11 3 1
BITMAP
0C00
0C00
7F80
CCC0
8C40
8C40
8C40
CCC0
7F80
0C00
0C00
ENDCHAR
STARTCHAR 0425
ENCODING 1061
SWIDTH 1000 0
DWIDTH 16 0
BBX 10 11 3 1
BITMAP
4080
6180
3300
1E00
0C00
0C00
1E00
3300
2100
6180
C0C0
ENDCHAR
STARTCHAR 0426
ENCODING 1062
SWIDTH 1000 0
DWIDTH 16 0
BBX 11 13 3 -1
BITMAP
C080
C080
C080
C080
C080
C080
C080
C080
C080
C080
FFE0
0060
0060
ENDCHAR
STARTCHAR 0427
ENCODING 1063
SWIDTH 1000 0
DWIDTH 16 0
BBX 8 11 4 1
BITMAP
81
81
81
81
81
83
C7
79
01
01
01
ENDCHAR
STARTCHAR 0428
ENCODING 1064
SWIDTH 1000 0
DWIDTH 16 0
BBX 12 11 2 1
BITMAP
C630
C630
C630
C630
C630
C630
C630
C630
C630
C630
FFF0
ENDCHAR
STARTCHAR 0429
ENCODING 1065
SWIDTH 1000 0
DWIDTH 16 0
BBX 13 13 2 -1
BITMAP
C420
C420
C420
C420
C420
C420
C420
C420
C420
C420
FFF8
0018
0018
ENDCHAR
STARTCHAR 042A
ENCODING 1066
SWIDTH 1000 0
DWIDTH 16 0
BBX 11 11 2 1
BITMAP
F000
1000
1000
1000
1000
1FC0
1060
1020
1020
1060
1FC0
ENDCHAR
STARTCHAR 042B
ENCODING 1067
SWIDTH 1000 0
DWIDTH 16 0
BBX 10 11 3 1
BITMAP
8040
8040
8040
8040
8040
FC40
8640
8240
8240
8640
FC40
ENDCHAR
STARTCHAR 042C
ENCODING 1068
SWIDTH 1000 0
DWIDTH 16 0
BBX 9 11 4 1
BITMAP
8000
8000
8000
8000
8000
FE00
8100
8180
8180
8180
FE00
ENDCHAR
STARTCHAR 042D
ENCODING 1069
SWIDTH 1000 0
DWIDTH 16 0
BBX 10 12 3 0
BITMAP
1E00
6180
C080
00C0
3040
4940
0640
0040
C0C0
40C0
6180
1E00
ENDCHAR
STARTCHAR 042E
ENCODING 1070
SWIDTH 1000 0
DWIDTH 16 0
BBX 12 12 2 0
BITMAP
C3C0
C460
CC30
C810
C810
F810
C810
C810
C830
CC30
C660
03C0
ENDCHAR
STARTCHAR 042F
ENCODING 1071
SWIDTH 1000 0
DWIDTH 16 0
BBX 8 11 4 1
BITMAP
7F
C1
81
81
C1
7F
31
21
61
C1
81
ENDCHAR
STARTCHAR 0430
ENCODING 1072
SWIDTH 1000 0
DWIDTH 16 0
BBX 8 8 4 0
BITMAP
3C
42
02
7E
C2
C2
46
3B
ENDCHAR
STARTCHAR 0431
ENCODING 1073
SWIDTH 1000 0
DWIDTH 16 0
BBX 8 12 4 0
BITMAP
06
1C
30
40
7C
E6
C3
C3
C3
42
66
3C
ENDCHAR
STARTCHAR 0432
ENCODING 1074
SWIDTH 1000 0
DWIDTH 16 0
BBX 6 7 5 1
BITMAP
F8
8C
8C
F8
84
84
FC
ENDCHAR
STARTCHAR 0433
ENCODING 1075
SWIDTH 1000 0
DWIDTH 16 0
BBX 7 7 5 1
BITMAP
FE
C0
C0
C0
C0
C0
C0
ENDCHAR
STARTCHAR 0434
ENCODING 1076
SWIDTH 1000 0
DWIDTH 16 0
BBX 9 9 3 -1
BITMAP
1F00
1100
1100
1100
3100
2100
FF80
C080
C080
ENDCHAR
STARTCHAR 0435
ENCODING 1077
SWIDTH 1000 0
DWIDTH 16 0
BBX 8 8 4 0
BITMAP
3C
42
FF
80
C3
C3
66
3C
ENDCHAR
STARTCHAR 0436
ENCODING 1078
SWIDTH 1000 0
DWIDTH 16 0
BBX 10 8 3 1
BITMAP
CCC0
4C80
6D80
3F00
2D00
6D80
4C80
CCC0
ENDCHAR
STARTCHAR 0437
ENCODING 1079
SWIDTH 1000 0
DWIDTH 16 0
BBX 7 8 4 0
BITMAP
7C
06
1C
06
02
C2
66
3C
ENDCHAR
STARTCHAR 0438
ENCODING 1080
SWIDTH 1000 0
DWIDTH 16 0
BBX 8 7 4 1
BITMAP
C3
C7
CF
DB
F3
E3
C3
ENDCHAR
STARTCHAR 0439
ENCODING 1081
SWIDTH 1000 0
DWIDTH 16 0
BBX 8 10 4 1
BITMAP
66
3C
00
C3
C7
CF
DB
F3
E3
C3
ENDCHAR
STARTCHAR 043A
ENCODING 1082
SWIDTH 1000 0
DWIDTH 16 0
BBX 7 8 5 1
BITMAP
84
8C
88
B8
F0
88
8C
86
ENDCHAR
STARTCHAR 043B
ENCODING 1083
SWIDTH 1000 0
DWIDTH 16 0
BBX 8 8 3 0
BITMAP
1F
19
19
11
11
91
91
60
ENDCHAR
STARTCHAR 043C
ENCODING 1084
SWIDTH 1000 0
DWIDTH 16 0
BBX 8 7 4 1
BITMAP
C3
E7
A5
A5
BD
99
99
ENDCHAR
STARTCHAR 043D
ENCODING 1085
SWIDTH 1000 0
DWIDTH 16 0
BBX 7 7 5 1
BITMAP
86
86
86
FE
86
86
86
ENDCHAR
STARTCHAR 043E
ENCODING 1086
SWIDTH 1000 0
DWIDTH 16 0
BBX 8 8 4 0
BITMAP
3C
62
C3
81
81
C3
42
3C
ENDCHAR
STARTCHAR 043F
ENCODING 1087
SWIDTH 1000 0
DWIDTH 16 0
BBX 6 7 5 1
BITMAP
FC
84
84
84
84
84
84
ENDCHAR
STARTCHAR 0440
ENCODING 1088
SWIDTH 1000 0
DWIDTH 16 0
BBX 7 10 5 -2
BITMAP
BC
C6
82
82
82
82
C6
BC
80
80
ENDCHAR
STARTCHAR 0441
ENCODING 1089
SWIDTH 1000 0
DWIDTH 16 0
BBX 8 8 4 0
BITMAP
3C
42
C0
80
80
C3
46
3C
ENDCHAR
STARTCHAR 0442
ENCODING 1090
SWIDTH 1000 0
DWIDTH 16 0
BBX 8 7 4 1
BITMAP
FF
18
18
18
18
18
18
ENDCHAR
STARTCHAR 0443
ENCODING 1091
SWIDTH 1000 0
DWIDTH 16 0
BBX 8 10 4 -2
BITMAP
C1
43
62
26
34
1C
18
18
F0
E0
ENDCHAR
STARTCHAR 0444
ENCODING 1092
SWIDTH 1000 0
DWIDTH 16 0
BBX 10 14 3 -2
BITMAP
0C00
0C00
0C00
0C00
7F80
CCC0
8C40
8C40
8C40
8C40
CCC0
7F80
0C00
0C00
ENDCHAR
STARTCHAR 0445
ENCODING 1093
SWIDTH 1000 0
DWIDTH 16 0
BBX 8 7 4 1
BITMAP
C3
66
3C
18
3C
66
C3
ENDCHAR
STARTCHAR 0446
ENCODING 1094
SWIDTH 1000 0
DWIDTH 16 0
BBX 9 9 4 -1
BITMAP
C200
C200
C200
C200
C200
C200
FF80
0180
0180
ENDCHAR
STARTCHAR 0447
ENCODING 1095
SWIDTH 1000 0
DWIDTH 16 0
BBX 7 7 4 1
BITMAP
C2
C2
C2
46
7A
02
02
ENDCHAR
STARTCHAR 0448
ENCODING 1096
SWIDTH 1000 0
DWIDTH 16 0
BBX 10 7 3 1
BITMAP
8C40
8C40
8C40
8C40
8C40
8C40
FFC0
ENDCHAR
STARTCHAR 0449
ENCODING 1097
SWIDTH 1000 0
DWIDTH 16 0
BBX 11 9 3 -1
BITMAP
8CC0
8CC0
8CC0
8CC0
8CC0
8CC0
FFE0
0020
0020
ENDCHAR
STARTCHAR 044A
ENCODING 1098
SWIDTH 1000 0
DWIDTH 16 0
BBX 9 7 3 1
BITMAP
F000
3000
3F00
3080
3080
3080
3F00
ENDCHAR
STARTCHAR 044B
ENCODING 1099
SWIDTH 1000 0
DWIDTH 16 0
BBX 10 7 3 1
BITMAP
C0C0
C0C0
FCC0
C6C0
C2C0
C6C0
FCC0
ENDCHAR
STARTCHAR 044C
ENCODING 1100
SWIDTH 1000 0
DWIDTH 16 0
BBX 7 7 5 1
BITMAP
80
80
FC
84
86
84
FC
ENDCHAR
STARTCHAR 044D
ENCODING 1101
SWIDTH 1000 0
DWIDTH 16 0
BBX 8 8 4 0
BITMAP
3C
42
03
3D
01
C3
46
3C
ENDCHAR
STARTCHAR 044E
ENCODING 1102
SWIDTH 1000 0
DWIDTH 16 0
BBX 11 8 3 0
BITMAP
8780
88C0
9840
F060
9060
9840
88C0
0780
ENDCHAR
STARTCHAR 044F
ENCODING 1103
SWIDTH 1000 0
DWIDTH 16 0
BBX 7 7 4 1
BITMAP
3E
42
42
3E
32
62
C2
ENDCHAR
STARTCHAR 0451
ENCODING 1105
SWIDTH 1000 0
DWIDTH 16 0
BBX 8 10 4 0
BITMAP
66
00
3C
42
FF
80
C3
C3
66
3C
ENDCHAR
STARTCHAR 1E3E
ENCODING 7742
SWIDTH 875 0
DWIDTH 14 0
BBX 11 13 2 1
BITMAP
0400
0000
C060
C0A0
E0A0
A1A0
A160
B160
9360
9A60
8E60
8C60
8C60
ENDCHAR
STARTCHAR 1E3F
ENCODING 7743
SWIDTH 875 0
DWIDTH 14 0
BBX 12 11 1 0
BITMAP
0300
0200
0000
FDE0
E620
C630
C630
C630
C630
C630
C630
ENDCHAR
STARTCHAR 1F70
ENCODING 8048
SWIDTH 625 0
DWIDTH 10 0
BBX 8 11 1 0
BITMAP
30
10
00
3F
47
83
83
83
83
C7
79
ENDCHAR
STARTCHAR 1F71
ENCODING 8049
SWIDTH 625 0
DWIDTH 10 0
BBX 8 11 1 0
BITMAP
08
10
00
3F
47
83
83
83
83
C7
79
ENDCHAR
STARTCHAR 1F72
ENCODING 8050
SWIDTH 500 0
DWIDTH 8 0
BBX 7 11 1 0
BITMAP
20
10
00
7C
C0
C0
78
C0
80
C0
7E
ENDCHAR
STARTCHAR 1F73
ENCODING 8051
SWIDTH 500 0
DWIDTH 8 0
BBX 7 11 1 0
BITMAP
18
10
00
7C
C0
C0
78
C0
80
C0
7E
ENDCHAR
STARTCHAR 2002
ENCODING 8194
SWIDTH 500 0
DWIDTH 8 0
BBX 0 0 0 0
BITMAP
ENDCHAR
STARTCHAR 2003
ENCODING 8195
SWIDTH 1000 0
DWIDTH 16 0
BBX 0 0 0 0
BITMAP
ENDCHAR
STARTCHAR 2010
ENCODING 8208
SWIDTH 375 0
DWIDTH 6 0
BBX 4 1 1 5
BITMAP
F0
ENDCHAR
STARTCHAR 2011
ENCODING 8209
SWIDTH 375 0
DWIDTH 6 0
BBX 4 1 1 5
BITMAP
F0
ENDCHAR
STARTCHAR 2012
ENCODING 8210
SWIDTH 375 0
DWIDTH 6 0
BBX 4 1 1 5
BITMAP
F0
ENDCHAR
STARTCHAR 2013
ENCODING 8211
SWIDTH 562 0
DWIDTH 9 0
BBX 7 1 1 4
BITMAP
FE
ENDCHAR
STARTCHAR 2014
ENCODING 8212
SWIDTH 937 0
DWIDTH 15 0
BBX 13 1 1 6
BITMAP
FFF8
ENDCHAR
STARTCHAR 2015
ENCODING 8213
SWIDTH 1000 0
DWIDTH 16 0
BBX 14 1 1 6
BITMAP
FFFC
ENDCHAR
STARTCHAR 2016
ENCODING 8214
SWIDTH 1000 0
DWIDTH 16 0
BBX 4 16 6 -2
BITMAP
90
90
90
90
90
90
90
90
90
90
90
90
90
90
90
90
ENDCHAR
STARTCHAR 2018
ENCODING 8216
SWIDTH 1000 0
DWIDTH 16 0
BBX 2 4 13 9
BITMAP
C0
80
C0
C0
ENDCHAR
STARTCHAR 2019
ENCODING 8217
SWIDTH 1000 0
DWIDTH 16 0
BBX 2 4 1 9
BITMAP
C0
C0
40
C0
ENDCHAR
STARTCHAR 201C
ENCODING 8220
SWIDTH 1000 0
DWIDTH 16 0
BBX 5 4 10 9
BITMAP
98
90
D8
D8
ENDCHAR
STARTCHAR 201D
ENCODING 8221
SWIDTH 1000 0
DWIDTH 16 0
BBX 5 4 1 9
BITMAP
D8
D8
48
C8
ENDCHAR
STARTCHAR 2020
ENCODING 8224
SWIDTH 1000 0
DWIDTH 16 0
BBX 8 14 4 -1
BITMAP
18
18
18
FF
F7
18
18
18
08
10
10
10
10
10
ENDCHAR
STARTCHAR 2021
ENCODING 8225
SWIDTH 1000 0
DWIDTH 16 0
BBX 6 15 5 -1
BITMAP
30
30
30
FC
20
30
20
20
20
30
30
EC
FC
30
30
ENDCHAR
STARTCHAR 2022
ENCODING 8226
SWIDTH 375 0
DWIDTH 6 0
BBX 4 4 1 4
BITMAP
60
F0
F0
60
ENDCHAR
STARTCHAR 2025
ENCODING 8229
SWIDTH 1000 0
DWIDTH 16 0
BBX 10 2 3 5
BITMAP
C0C0
C0C0
ENDCHAR
STARTCHAR 2026
ENCODING 8230
SWIDTH 1000 0
DWIDTH 16 0
BBX 12 2 2 5
BITMAP
C630
C630
ENDCHAR
STARTCHAR 2030
ENCODING 8240
SWIDTH 1000 0
DWIDTH 16 0
BBX 14 14 1 -1
BITMAP
0080
6180
9100
9200
9200
9400
6C00
0B18
14A4
14A4
24A4
44A4
4318
8000
ENDCHAR
STARTCHAR 2032
ENCODING 8242
SWIDTH 250 0
DWIDTH 4 0
BBX 2 4 1 9
BITMAP
40
40
80
80
ENDCHAR
STARTCHAR 2033
ENCODING 8243
SWIDTH 437 0
DWIDTH 7 0
BBX 4 4 1 9
BITMAP
50
50
90
80
ENDCHAR
STARTCHAR 203B
ENCODING 8251
SWIDTH 1000 0
DWIDTH 16 0
BBX 12 12 2 0
BITMAP
8610
4620
2040
1080
0900
C630
C630
0900
1080
2040
4620
8610
ENDCHAR
STARTCHAR 203C
ENCODING 8252
SWIDTH 500 0
DWIDTH 8 0
BBX 4 12 2 0
BITMAP
90
90
90
90
90
90
90
90
90
00
90
90
ENDCHAR
STARTCHAR 203E
ENCODING 8254
SWIDTH 500 0
DWIDTH 8 0
BBX 4 1 2 10
BITMAP
F0
ENDCHAR
STARTCHAR 203F
ENCODING 8255
SWIDTH 437 0
DWIDTH 7 0
BBX 7 2 0 -2
BITMAP
80
7E
ENDCHAR
STARTCHAR 2042
ENCODING 8258
SWIDTH 1000 0
DWIDTH 16 0
BBX 12 12 2 0
BITMAP
0400
0D00
0600
0D00
0400
0400
2040
2040
E9E0
50E0
A950
2040
ENDCHAR
STARTCHAR 2047
ENCODING 8263
SWIDTH 1000 0
DWIDTH 16 0
BBX 14 12 1 0
BITMAP
7878
C48C
8784
0604
040C
0818
1010
3020
3020
0000
3020
3020
ENDCHAR
STARTCHAR 2048
ENCODING 8264
SWIDTH 750 0
DWIDTH 12 0
BBX 10 12 1 0
BITMAP
78C0
C4C0
86C0
06C0
04C0
0CC0
10C0
1080
1080
0000
30C0
30C0
ENDCHAR
STARTCHAR 2049
ENCODING 8265
SWIDTH 750 0
DWIDTH 12 0
BBX 9 12 2 0
BITMAP
8F00
9180
B080
8080
8180
8300
8200
8400
8400
0000
8600
8600
ENDCHAR
STARTCHAR 2051
ENCODING 8273
SWIDTH 1000 0
DWIDTH 16 0
BBX 4 12 6 0
BITMAP
40
D0
60
F0
60
00
00
60
D0
60
D0
40
ENDCHAR
STARTCHAR 205A
ENCODING 8282
SWIDTH 1000 0
DWIDTH 16 0
BBX 2 10 7 1
BITMAP
C0
C0
00
00
00
00
00
00
C0
C0
ENDCHAR
STARTCHAR 205D
ENCODING 8285
SWIDTH 1000 0
DWIDTH 16 0
BBX 2 12 7 0
BITMAP
C0
C0
00
00
00
C0
C0
00
00
00
C0
C0
ENDCHAR
STARTCHAR 20AC
ENCODING 8364
SWIDTH 625 0
DWIDTH 10 0
BBX 9 12 0 0
BITMAP
0F00
1880
3000
2000
FF80
2000
2000
FF80
2000
3000
1880
0F00
ENDCHAR
STARTCHAR 2103
ENCODING 8451
SWIDTH 1000 0
DWIDTH 16 0
BBX 13 13 1 1
BITMAP
E000
A3C0
A630
EC10
1818
1800
1000
1000
1000
1808
0818
0C30
03E0
ENDCHAR
STARTCHAR 210F
ENCODING 8463
SWIDTH 562 0
DWIDTH 9 0
BBX 8 12 0 0
BITMAP
10
10
7C
20
2E
31
31
63
43
42
42
C2
ENDCHAR
STARTCHAR 2113
ENCODING 8467
SWIDTH 1000 0
DWIDTH 16 0
BBX 8 12 4 0
BITMAP
0C
12
32
22
22
66
44
4C
78
31
E2
9C
ENDCHAR
STARTCHAR 2116
ENCODING 8470
SWIDTH 1000 0
DWIDTH 16 0
BBX 14 11 1 1
BITMAP
C400
C400
A400
A4E0
B490
9590
9D10
8D10
8D90
8C94
84E4
ENDCHAR
STARTCHAR 2121
ENCODING 8481
SWIDTH 1000 0
DWIDTH 16 0
BBX 14 11 1 1
BITMAP
F800
2000
2000
27A0
2420
2420
27A0
2420
2420
2420
27BC
ENDCHAR
STARTCHAR 2127
ENCODING 8487
SWIDTH 812 0
DWIDTH 13 0
BBX 11 12 1 0
BITMAP
F1E0
1100
3080
60C0
6040
4060
4060
4060
6040
20C0
3180
0F00
ENDCHAR
STARTCHAR 212B
ENCODING 8491
SWIDTH 1000 0
DWIDTH 16 0
BBX 10 13 3 1
BITMAP
0C00
1200
0C00
0000
0C00
1E00
1200
3300
2100
7F80
4080
C0C0
8040
ENDCHAR
STARTCHAR 2135
ENCODING 8501
SWIDTH 687 0
DWIDTH 11 0
BBX 9 12 1 0
BITMAP
4000
4200
8100
C180
6280
3600
5C00
C600
4300
4180
4180
C100
ENDCHAR
STARTCHAR 2153
ENCODING 8531
SWIDTH 875 0
DWIDTH 14 0
BBX 12 12 1 0
BITMAP
2040
E040
2080
2100
2100
2200
04E0
0830
0860
1020
2010
60E0
ENDCHAR
STARTCHAR 2154
ENCODING 8532
SWIDTH 875 0
DWIDTH 14 0
BBX 12 12 1 0
BITMAP
7040
9080
1080
6100
8200
F2E0
0520
0830
0860
1030
2110
40E0
ENDCHAR
STARTCHAR 2155
ENCODING 8533
SWIDTH 875 0
DWIDTH 14 0
BBX 12 12 1 0
BITMAP
2040
E040
2080
2100
2100
2200
04F0
0880
08E0
1010
2010
60E0
ENDCHAR
STARTCHAR 2160
ENCODING 8544
SWIDTH 1000 0
DWIDTH 16 0
BBX 2 11 7 1
BITMAP
C0
C0
C0
C0
C0
C0
C0
C0
C0
C0
C0
ENDCHAR
STARTCHAR 2161
ENCODING 8545
SWIDTH 1000 0
DWIDTH 16 0
BBX 6 11 5 1
BITMAP
CC
CC
CC
CC
CC
CC
CC
CC
CC
CC
CC
ENDCHAR
STARTCHAR 2162
ENCODING 8546
SWIDTH 1000 0
DWIDTH 16 0
BBX 10 11 3 1
BITMAP
CCC0
CCC0
CCC0
CCC0
CCC0
CCC0
CCC0
CCC0
CCC0
CCC0
CCC0
ENDCHAR
STARTCHAR 2163
ENCODING 8547
SWIDTH 1000 0
DWIDTH 16 0
BBX 11 11 3 1
BITMAP
B020
B060
9060
9840
88C0
88C0
8C80
8580
8700
8700
8300
ENDCHAR
STARTCHAR 2164
ENCODING 8548
SWIDTH 1000 0
DWIDTH 16 0
BBX 10 11 3 1
BITMAP
C0C0
C0C0
4080
6180
2100
3300
3300
1200
1E00
0C00
0C00
ENDCHAR
STARTCHAR 2165
ENCODING 8549
SWIDTH 1000 0
DWIDTH 16 0
BBX 11 11 2 1
BITMAP
81A0
C1A0
C120
4320
6220
6220
2620
3420
1420
1C20
1820
ENDCHAR
STARTCHAR 2166
ENCODING 8550
SWIDTH 1000 0
DWIDTH 16 0
BBX 13 11 1 1
BITMAP
C348
4348
4248
6248
6648
2448
2448
3448
1C48
1848
1848
ENDCHAR
STARTCHAR 2167
ENCODING 8551
SWIDTH 1000 0
DWIDTH 16 0
BBX 14 11 1 1
BITMAP
86AC
C6AC
44AC
44AC
4CAC
6CAC
28AC
28AC
28AC
38AC
10AC
ENDCHAR
STARTCHAR 2168
ENCODING 8552
SWIDTH 1000 0
DWIDTH 16 0
BBX 12 11 2 1
BITMAP
CC30
C460
C640
C3C0
C180
C180
C3C0
C240
C660
CC30
C810
ENDCHAR
STARTCHAR 2169
ENCODING 8553
SWIDTH 1000 0
DWIDTH 16 0
BBX 10 11 3 1
BITMAP
4080
6180
3300
1E00
0C00
0C00
1E00
3300
2100
6180
C0C0
ENDCHAR
STARTCHAR 216A
ENCODING 8554
SWIDTH 1000 0
DWIDTH 16 0
BBX 12 11 2 1
BITMAP
C330
6230
2630
3C30
1830
1830
3C30
2430
6630
C330
8130
ENDCHAR
STARTCHAR 216B
ENCODING 8555
SWIDTH 1000 0
DWIDTH 16 0
BBX 13 11 1 1
BITMAP
4248
6648
2448
3C48
1848
1848
3C48
2448
6648
4248
C348
ENDCHAR
STARTCHAR 2170
ENCODING 8560
SWIDTH 1000 0
DWIDTH 16 0
BBX 2 12 7 0
BITMAP
C0
C0
00
00
C0
C0
C0
C0
C0
C0
C0
C0
ENDCHAR
STARTCHAR 2171
ENCODING 8561
SWIDTH 1000 0
DWIDTH 16 0
BBX 6 12 5 0
BITMAP
CC
CC
00
00
CC
CC
CC
CC
CC
CC
CC
CC
ENDCHAR
STARTCHAR 2172
ENCODING 8562
SWIDTH 1000 0
DWIDTH 16 0
BBX 8 12 4 0
BITMAP
99
99
00
00
99
99
99
99
99
99
99
99
ENDCHAR
STARTCHAR 2173
ENCODING 8563
SWIDTH 1000 0
DWIDTH 16 0
BBX 11 12 3 0
BITMAP
C000
C000
0000
0000
D860
C840
CCC0
C480
C580
C700
C300
C300
ENDCHAR
STARTCHAR 2174
ENCODING 8564
SWIDTH 1000 0
DWIDTH 16 0
BBX 8 7 4 1
BITMAP
C3
C3
42
66
24
3C
18
ENDCHAR
STARTCHAR 2175
ENCODING 8565
SWIDTH 1000 0
DWIDTH 16 0
BBX 11 12 2 0
BITMAP
0060
0060
0000
0000
C360
4260
6660
2460
3460
1C60
1860
1860
ENDCHAR
STARTCHAR 2176
ENCODING 8566
SWIDTH 1000 0
DWIDTH 16 0
BBX 12 11 2 1
BITMAP
01B0
01B0
0000
0000
85B0
CDB0
49B0
49B0
79B0
31B0
31B0
ENDCHAR
STARTCHAR 2177
ENCODING 8567
SWIDTH 1000 0
DWIDTH 16 0
BBX 13 11 2 1
BITMAP
0158
0158
0000
0000
8D50
8950
C950
5950
5150
7150
2150
ENDCHAR
STARTCHAR 2178
ENCODING 8568
SWIDTH 1000 0
DWIDTH 16 0
BBX 11 11 3 1
BITMAP
C000
C000
0000
0000
98C0
8C80
8700
8300
8580
8CC0
9860
ENDCHAR
STARTCHAR 2179
ENCODING 8569
SWIDTH 1000 0
DWIDTH 16 0
BBX 8 7 4 1
BITMAP
C3
66
3C
18
3C
66
C3
ENDCHAR
STARTCHAR 217A
ENCODING 8570
SWIDTH 1000 0
DWIDTH 16 0
BBX 11 11 2 1
BITMAP
0060
0060
0000
0000
6320
2620
1C20
1820
3420
6620
C320
ENDCHAR
STARTCHAR 217B
ENCODING 8571
SWIDTH 1000 0
DWIDTH 16 0
BBX 12 11 2 1
BITMAP
00B0
00B0
0000
0000
CC90
4890
3890
3090
7890
4C90
8490
ENDCHAR
STARTCHAR 2190
ENCODING 8592
SWIDTH 1000 0
DWIDTH 16 0
BBX 14 6 1 3
BITMAP
1000
6000
FFFC
6000
3000
1800
ENDCHAR
STARTCHAR 2191
ENCODING 8593
SWIDTH 1000 0
DWIDTH 16 0
BBX 6 14 5 -1
BITMAP
30
30
78
B4
B4
30
30
30
30
30
30
30
30
30
ENDCHAR
STARTCHAR 2192
ENCODING 8594
SWIDTH 1000 0
DWIDTH 16 0
BBX 14 6 1 3
BITMAP
0020
0018
FFFC
0018
0030
0060
ENDCHAR
STARTCHAR 2193
ENCODING 8595
SWIDTH 1000 0
DWIDTH 16 0
BBX 6 14 5 -1
BITMAP
30
30
30
30
30
30
30
30
30
B4
FC
78
30
20
ENDCHAR
STARTCHAR 2194
ENCODING 8596
SWIDTH 750 0
DWIDTH 12 0
BBX 10 6 1 2
BITMAP
2300
4080
FFC0
4080
2100
2200
ENDCHAR
STARTCHAR 2196
ENCODING 8598
SWIDTH 1000 0
DWIDTH 16 0
BBX 12 12 2 0
BITMAP
8000
7C00
6000
5000
4800
4400
0200
0100
0080
0040
0020
0010
ENDCHAR
STARTCHAR 2197
ENCODING 8599
SWIDTH 1000 0
DWIDTH 16 0
BBX 12 12 2 0
BITMAP
0010
03E0
0060
00A0
0120
0220
0400
0800
1000
2000
4000
8000
ENDCHAR
STARTCHAR 2198
ENCODING 8600
SWIDTH 1000 0
DWIDTH 16 0
BBX 12 12 2 0
BITMAP
8000
4000
2000
1000
0800
0400
0220
0120
00A0
0060
03E0
0010
ENDCHAR
STARTCHAR 2199
ENCODING 8601
SWIDTH 1000 0
DWIDTH 16 0
BBX 12 12 2 0
BITMAP
0010
0020
0040
0080
0100
0200
4400
4800
5000
6000
7C00
8000
ENDCHAR
STARTCHAR 21C4
ENCODING 8644
SWIDTH 1000 0
DWIDTH 16 0
BBX 14 12 1 0
BITMAP
0020
0018
FFFC
0018
0030
0060
1800
3000
6000
FFFC
6000
1000
ENDCHAR
STARTCHAR 21D2
ENCODING 8658
SWIDTH 750 0
DWIDTH 12 0
BBX 10 8 1 1
BITMAP
0200
0100
FF80
00C0
00C0
FF80
0100
0200
ENDCHAR
STARTCHAR 21D4
ENCODING 8660
SWIDTH 750 0
DWIDTH 12 0
BBX 10 8 1 1
BITMAP
1200
2100
7F80
8040
8040
7F80
2100
1200
ENDCHAR
STARTCHAR 21E6
ENCODING 8678
SWIDTH 1000 0
DWIDTH 16 0
BBX 13 6 2 3
BITMAP
1000
3000
DFF8
9FF8
7000
1000
ENDCHAR
STARTCHAR 21E7
ENCODING 8679
SWIDTH 1000 0
DWIDTH 16 0
BBX 6 12 5 1
BITMAP
30
50
48
FC
30
30
30
30
30
30
30
30
ENDCHAR
STARTCHAR 21E8
ENCODING 8680
SWIDTH 1000 0
DWIDTH 16 0
BBX 13 6 1 3
BITMAP
0040
0060
FFD8
FFC8
0070
0040
ENDCHAR
STARTCHAR 21E9
ENCODING 8681
SWIDTH 1000 0
DWIDTH 16 0
BBX 6 13 5 -1
BITMAP
30
30
30
30
30
30
30
30
30
FC
48
50
30
ENDCHAR
STARTCHAR 2200
ENCODING 8704
SWIDTH 750 0
DWIDTH 12 0
BBX 11 12 0 0
BITMAP
8020
4020
4060
2040
3FC0
1080
1080
0900
0900
0600
0600
0400
ENDCHAR
STARTCHAR 2202
ENCODING 8706
SWIDTH 562 0
DWIDTH 9 0
BBX 7 12 1 0
BITMAP
3C
26
02
02
3A
46
C6
82
86
84
CC
78
ENDCHAR
STARTCHAR 2203
ENCODING 8707
SWIDTH 750 0
DWIDTH 12 0
BBX 9 12 1 0
BITMAP
FF80
0080
0080
0080
0080
0080
FF80
0080
0080
0080
0080
FF80
ENDCHAR
STARTCHAR 2205
ENCODING 8709
SWIDTH 750 0
DWIDTH 12 0
BBX 10 11 1 0
BITMAP
1E00
2140
4080
8140
8240
8440
8840
9040
60C0
6180
1E00
ENDCHAR
STARTCHAR 2207
ENCODING 8711
SWIDTH 750 0
DWIDTH 12 0
BBX 10 12 1 -1
BITMAP
FFC0
C040
4080
6080
6100
2100
3200
1200
1A00
0C00
0C00
0800
ENDCHAR
STARTCHAR 2208
ENCODING 8712
SWIDTH 687 0
DWIDTH 11 0
BBX 9 8 1 1
BITMAP
3F80
4000
8000
FF80
8000
8000
4000
3F80
ENDCHAR
STARTCHAR 2209
ENCODING 8713
SWIDTH 687 0
DWIDTH 11 0
BBX 9 10 1 0
BITMAP
0200
3F80
4400
8400
FF80
8800
9000
5000
3F80
2000
ENDCHAR
STARTCHAR 220B
ENCODING 8715
SWIDTH 687 0
DWIDTH 11 0
BBX 9 8 1 1
BITMAP
FE00
0100
0080
FF80
0080
0080
0100
FE00
ENDCHAR
STARTCHAR 2212
ENCODING 8722
SWIDTH 687 0
DWIDTH 11 0
BBX 9 1 1 5
BITMAP
FF80
ENDCHAR
STARTCHAR 2213
ENCODING 8723
SWIDTH 687 0
DWIDTH 11 0
BBX 9 9 1 1
BITMAP
FF80
0000
0800
0800
0800
FF80
0800
0800
0800
ENDCHAR
STARTCHAR 2219
ENCODING 8729
SWIDTH 250 0
DWIDTH 4 0
BBX 2 2 1 4
BITMAP
C0
C0
ENDCHAR
STARTCHAR 221A
ENCODING 8730
SWIDTH 625 0
DWIDTH 10 0
BBX 9 14 1 -1
BITMAP
0080
0080
0100
0100
0300
0200
0200
0600
4400
6400
A800
B800
9800
1000
ENDCHAR
STARTCHAR 221D
ENCODING 8733
SWIDTH 687 0
DWIDTH 11 0
BBX 9 5 1 3
BITMAP
7300
4C80
8C00
4C00
7380
ENDCHAR
STARTCHAR 221E
ENCODING 8734
SWIDTH 687 0
DWIDTH 11 0
BBX 9 5 1 3
BITMAP
6300
9480
8880
9C80
7700
ENDCHAR
STARTCHAR 221F
ENCODING 8735
SWIDTH 687 0
DWIDTH 11 0
BBX 9 10 1 1
BITMAP
8000
8000
8000
8000
8000
8000
8000
8000
8000
FF80
ENDCHAR
STARTCHAR 2220
ENCODING 8736
SWIDTH 687 0
DWIDTH 11 0
BBX 9 10 1 1
BITMAP
0400
0800
0800
1000
3000
2000
4000
4000
8000
FF80
ENDCHAR
STARTCHAR 2225
ENCODING 8741
SWIDTH 687 0
DWIDTH 11 0
BBX 9 14 1 -1
BITMAP
0480
0900
0900
0900
1200
1200
1600
2400
2400
6C00
4800
4800
D000
9000
ENDCHAR
STARTCHAR 2226
ENCODING 8742
SWIDTH 687 0
DWIDTH 11 0
BBX 9 14 1 -1
BITMAP
0480
0900
0900
8900
5200
3200
1A00
2C00
2600
2D00
4880
4800
D800
9000
ENDCHAR
STARTCHAR 2227
ENCODING 8743
SWIDTH 687 0
DWIDTH 11 0
BBX 9 8 1 1
BITMAP
0800
1400
1400
2200
2200
4100
4100
8080
ENDCHAR
STARTCHAR 2228
ENCODING 8744
SWIDTH 687 0
DWIDTH 11 0
BBX 9 8 1 1
BITMAP
8080
4100
4100
2200
2200
1400
1400
0800
ENDCHAR
STARTCHAR 2229
ENCODING 8745
SWIDTH 687 0
DWIDTH 11 0
BBX 7 9 2 1
BITMAP
78
C6
82
82
82
82
82
82
82
ENDCHAR
STARTCHAR 222A
ENCODING 8746
SWIDTH 687 0
DWIDTH 11 0
BBX 7 10 2 0
BITMAP
82
82
82
82
82
82
82
82
C4
78
ENDCHAR
STARTCHAR 222B
ENCODING 8747
SWIDTH 562 0
DWIDTH 9 0
BBX 8 15 1 -3
BITMAP
0E
0A
1B
10
10
10
10
10
10
10
10
10
90
A0
E0
ENDCHAR
STARTCHAR 222C
ENCODING 8748
SWIDTH 937 0
DWIDTH 15 0
BBX 13 15 1 -3
BITMAP
0E30
0A48
1B48
1040
1040
1040
1040
10C0
1080
1080
1080
1080
9480
A480
E300
ENDCHAR
STARTCHAR 222E
ENCODING 8750
SWIDTH 562 0
DWIDTH 9 0
BBX 8 15 1 -3
BITMAP
0E
0A
1B
10
10
38
54
54
54
38
10
10
90
A0
E0
ENDCHAR
STARTCHAR 2234
ENCODING 8756
SWIDTH 687 0
DWIDTH 11 0
BBX 9 8 1 1
BITMAP
0800
0800
0000
0000
0000
0000
C180
C180
ENDCHAR
STARTCHAR 2235
ENCODING 8757
SWIDTH 687 0
DWIDTH 11 0
BBX 9 8 1 1
BITMAP
C180
C180
0000
0000
0000
0000
0800
0800
ENDCHAR
STARTCHAR 223C
ENCODING 8764
SWIDTH 500 0
DWIDTH 8 0
BBX 5 2 1 10
BITMAP
60
98
ENDCHAR
STARTCHAR 223D
ENCODING 8765
SWIDTH 687 0
DWIDTH 11 0
BBX 9 5 1 3
BITMAP
6700
8C80
8880
9080
7300
ENDCHAR
STARTCHAR 2243
ENCODING 8771
SWIDTH 687 0
DWIDTH 11 0
BBX 9 5 1 3
BITMAP
7880
8F00
0000
0000
FF80
ENDCHAR
STARTCHAR 2245
ENCODING 8773
SWIDTH 687 0
DWIDTH 11 0
BBX 9 6 1 2
BITMAP
7080
8F00
0000
FF80
0000
FF80
ENDCHAR
STARTCHAR 2248
ENCODING 8776
SWIDTH 687 0
DWIDTH 11 0
BBX 9 5 1 2
BITMAP
7880
8F00
7000
9880
8700
ENDCHAR
STARTCHAR 2252
ENCODING 8786
SWIDTH 687 0
DWIDTH 11 0
BBX 9 10 1 0
BITMAP
6000
6000
0000
FF80
0000
0000
FF80
0000
0300
0300
ENDCHAR
STARTCHAR 2260
ENCODING 8800
SWIDTH 687 0
DWIDTH 11 0
BBX 9 10 1 0
BITMAP
0400
0400
0400
FF80
0800
0800
FF80
1000
1000
2000
ENDCHAR
STARTCHAR 2261
ENCODING 8801
SWIDTH 687 0
DWIDTH 11 0
BBX 9 6 1 2
BITMAP
FF80
0000
FF80
0000
0000
FF80
ENDCHAR
STARTCHAR 2262
ENCODING 8802
SWIDTH 687 0
DWIDTH 11 0
BBX 9 10 1 0
BITMAP
0400
0400
FF80
0800
FF80
0800
1000
FF80
1000
2000
ENDCHAR
STARTCHAR 2266
ENCODING 8806
SWIDTH 687 0
DWIDTH 11 0
BBX 9 11 1 0
BITMAP
0180
0E00
7000
C000
3C00
0380
0000
FF80
0000
0000
FF80
ENDCHAR
STARTCHAR 2267
ENCODING 8807
SWIDTH 687 0
DWIDTH 11 0
BBX 9 11 1 0
BITMAP
C000
3800
0700
0380
1C00
E000
0000
FF80
0000
0000
FF80
ENDCHAR
STARTCHAR 226A
ENCODING 8810
SWIDTH 687 0
DWIDTH 11 0
BBX 9 8 1 2
BITMAP
0980
1200
6400
9800
D800
6400
1300
0D80
ENDCHAR
STARTCHAR 226B
ENCODING 8811
SWIDTH 687 0
DWIDTH 11 0
BBX 9 8 1 2
BITMAP
D800
2400
1300
0D80
0980
1200
6400
9800
ENDCHAR
STARTCHAR 2276
ENCODING 8822
SWIDTH 687 0
DWIDTH 11 0
BBX 9 11 1 0
BITMAP
0080
0F00
7000
E000
1E00
C180
3800
0780
0300
3C00
C000
ENDCHAR
STARTCHAR 2277
ENCODING 8823
SWIDTH 687 0
DWIDTH 11 0
BBX 9 11 1 0
BITMAP
8000
7800
0700
0380
3C00
C180
0E00
F000
E000
1E00
0180
ENDCHAR
STARTCHAR 2282
ENCODING 8834
SWIDTH 687 0
DWIDTH 11 0
BBX 9 8 1 1
BITMAP
3F80
4000
8000
8000
8000
8000
4000
3F80
ENDCHAR
STARTCHAR 2283
ENCODING 8835
SWIDTH 687 0
DWIDTH 11 0
BBX 9 8 1 1
BITMAP
FE00
0100
0080
0080
0080
0080
0100
FE00
ENDCHAR
STARTCHAR 2284
ENCODING 8836
SWIDTH 687 0
DWIDTH 11 0
BBX 9 10 1 0
BITMAP
0200
3F80
4200
8400
8400
8800
8800
4800
3F80
1000
ENDCHAR
STARTCHAR 2285
ENCODING 8837
SWIDTH 687 0
DWIDTH 11 0
BBX 9 10 1 0
BITMAP
0400
FE00
0900
0880
1080
1080
1080
2300
FE00
4000
ENDCHAR
STARTCHAR 2286
ENCODING 8838
SWIDTH 687 0
DWIDTH 11 0
BBX 9 9 1 1
BITMAP
3F80
4000
8000
8000
8000
4000
7F80
0000
FF80
ENDCHAR
STARTCHAR 2287
ENCODING 8839
SWIDTH 687 0
DWIDTH 11 0
BBX 9 9 1 1
BITMAP
FE00
0100
0080
0080
0080
0100
FE00
0000
FF80
ENDCHAR
STARTCHAR 228A
ENCODING 8842
SWIDTH 687 0
DWIDTH 11 0
BBX 9 11 1 0
BITMAP
3F80
4000
8000
8000
8000
8000
4000
3F80
0400
FF80
1000
ENDCHAR
STARTCHAR 228B
ENCODING 8843
SWIDTH 687 0
DWIDTH 11 0
BBX 9 11 1 0
BITMAP
FE00
0100
0080
0080
0080
0080
0100
FE00
0400
FF80
1000
ENDCHAR
STARTCHAR 2295
ENCODING 8853
SWIDTH 875 0
DWIDTH 14 0
BBX 12 12 1 0
BITMAP
1F00
30C0
4460
8420
8410
8410
BFD0
8410
8420
4460
24C0
1F00
ENDCHAR
STARTCHAR 2296
ENCODING 8854
SWIDTH 875 0
DWIDTH 14 0
BBX 12 12 1 0
BITMAP
1F00
30C0
4060
8020
8010
8010
BFD0
8010
8020
4060
20C0
1F00
ENDCHAR
STARTCHAR 2297
ENCODING 8855
SWIDTH 875 0
DWIDTH 14 0
BBX 12 12 1 0
BITMAP
1F00
30C0
40E0
90A0
8910
8610
8610
8910
90A0
4060
20C0
1F00
ENDCHAR
STARTCHAR 22A5
ENCODING 8869
SWIDTH 687 0
DWIDTH 11 0
BBX 9 10 1 1
BITMAP
0800
0800
0800
0800
0800
0800
0800
0800
0800
FF80
ENDCHAR
STARTCHAR 22BF
ENCODING 8895
SWIDTH 687 0
DWIDTH 11 0
BBX 9 10 1 1
BITMAP
0080
0080
0180
0280
0480
0880
1080
2080
4080
FF80
ENDCHAR
STARTCHAR 22DA
ENCODING 8922
SWIDTH 687 0
DWIDTH 11 0
BBX 9 12 1 0
BITMAP
0080
1F00
E000
7800
0780
0000
FF80
0000
F000
0F80
0F00
F000
ENDCHAR
STARTCHAR 22DB
ENCODING 8923
SWIDTH 687 0
DWIDTH 11 0
BBX 9 12 1 0
BITMAP
8000
7C00
0380
0F00
F000
0000
FF80
0000
0F80
F000
7800
0780
ENDCHAR
STARTCHAR 2305
ENCODING 8965
SWIDTH 687 0
DWIDTH 11 0
BBX 9 7 1 1
BITMAP
FF80
0800
1400
1400
2200
2200
4200
ENDCHAR
STARTCHAR 2306
ENCODING 8966
SWIDTH 687 0
DWIDTH 11 0
BBX 9 10 1 0
BITMAP
FF80
0000
0000
FF80
0800
1400
1400
2200
2200
4100
ENDCHAR
STARTCHAR 2312
ENCODING 8978
SWIDTH 1000 0
DWIDTH 16 0
BBX 16 3 0 10
BITMAP
0FF0
700E
C003
ENDCHAR
STARTCHAR 2318
ENCODING 8984
SWIDTH 1000 0
DWIDTH 16 0
BBX 14 15 1 -1
BITMAP
7038
9024
9024
9024
7FF8
1020
1020
1020
1020
1020
7FF8
9024
9024
9024
7038
ENDCHAR
STARTCHAR 23BE
ENCODING 9150
SWIDTH 1000 0
DWIDTH 16 0
BBX 8 16 8 -2
BITMAP
FF
80
80
80
80
80
80
80
80
80
80
80
80
80
80
80
ENDCHAR
STARTCHAR 23BF
ENCODING 9151
SWIDTH 1000 0
DWIDTH 16 0
BBX 8 16 8 -2
BITMAP
80
80
80
80
80
80
80
80
80
80
80
80
80
80
80
FF
ENDCHAR
STARTCHAR 23C0
ENCODING 9152
SWIDTH 1000 0
DWIDTH 16 0
BBX 12 15 2 -2
BITMAP
0400
0400
1F80
2440
4420
8410
8410
8410
8410
8410
8410
4420
2440
1F80
0400
ENDCHAR
STARTCHAR 23C1
ENCODING 9153
SWIDTH 1000 0
DWIDTH 16 0
BBX 16 16 0 -2
BITMAP
FFFF
0100
03C0
0D30
1108
2108
2104
2104
2104
2104
2104
1108
1110
0D20
03C0
0100
ENDCHAR
STARTCHAR 23C2
ENCODING 9154
SWIDTH 1000 0
DWIDTH 16 0
BBX 16 16 0 -2
BITMAP
0100
0100
07E0
1910
1108
2104
2104
2104
2104
2104
2108
1108
0D30
03C0
0100
FFFF
ENDCHAR
STARTCHAR 23C3
ENCODING 9155
SWIDTH 1000 0
DWIDTH 16 0
BBX 14 15 1 -1
BITMAP
0200
0200
0300
0700
0680
0A40
1240
1220
2220
2210
4210
4208
FFFC
0200
0200
ENDCHAR
STARTCHAR 23C4
ENCODING 9156
SWIDTH 1000 0
DWIDTH 16 0
BBX 16 15 0 -2
BITMAP
FFFF
0100
0100
0180
0340
0540
0520
0920
0910
1108
2108
2104
7FFE
0100
0100
ENDCHAR
STARTCHAR 23C5
ENCODING 9157
SWIDTH 1000 0
DWIDTH 16 0
BBX 16 16 0 -1
BITMAP
0100
0100
0180
0380
0340
0520
0920
0910
1110
1108
2108
2104
7FFE
0100
0100
FFFF
ENDCHAR
STARTCHAR 23C6
ENCODING 9158
SWIDTH 1000 0
DWIDTH 16 0
BBX 14 15 1 -2
BITMAP
0200
0200
0200
0200
0200
0200
7A00
8600
0184
0278
0200
0200
0200
0200
0200
ENDCHAR
STARTCHAR 23C7
ENCODING 9159
SWIDTH 1000 0
DWIDTH 16 0
BBX 16 16 0 -2
BITMAP
FFFF
0100
0100
0100
0100
0100
3D00
4300
0080
017E
0100
0100
0100
0100
0100
0100
ENDCHAR
STARTCHAR 23C8
ENCODING 9160
SWIDTH 1000 0
DWIDTH 16 0
BBX 16 16 0 -2
BITMAP
0100
0100
0100
0100
0100
0100
3D00
4300
01C2
013C
0100
0100
0100
0100
0100
FFFF
ENDCHAR
STARTCHAR 23C9
ENCODING 9161
SWIDTH 1000 0
DWIDTH 16 0
BBX 16 16 0 -2
BITMAP
FFFF
0100
0100
0100
0100
0100
0100
0100
0100
0100
0100
0100
0100
0100
0100
0100
ENDCHAR
STARTCHAR 23CA
ENCODING 9162
SWIDTH 1000 0
DWIDTH 16 0
BBX 16 16 0 -2
BITMAP
0100
0100
0100
0100
0100
0100
0100
0100
0100
0100
0100
0100
0100
0100
0100
FFFF
ENDCHAR
STARTCHAR 23CB
ENCODING 9163
SWIDTH 1000 0
DWIDTH 16 0
BBX 8 16 0 -2
BITMAP
FF
01
01
01
01
01
01
01
01
01
01
01
01
01
01
01
ENDCHAR
STARTCHAR 23CC
ENCODING 9164
SWIDTH 1000 0
DWIDTH 16 0
BBX 8 16 0 -2
BITMAP
01
01
01
01
01
01
01
01
01
01
01
01
01
01
01
FF
ENDCHAR
STARTCHAR 23CE
ENCODING 9166
SWIDTH 1000 0
DWIDTH 16 0
BBX 13 13 1 -1
BITMAP
0078
0088
0088
0088
0C88
1488
2788
C008
C008
27F0
1400
0C00
0400
ENDCHAR
STARTCHAR 2423
ENCODING 9251
SWIDTH 1000 0
DWIDTH 16 0
BBX 12 3 2 0
BITMAP
8010
8010
FFF0
ENDCHAR
STARTCHAR 2460
ENCODING 9312
SWIDTH 1000 0
DWIDTH 16 0
BBX 16 15 0 -1
BITMAP
03E0
0C10
100C
2184
4282
4082
8082
8081
8082
4082
4082
2084
308C
1810
07E0
ENDCHAR
STARTCHAR 2461
ENCODING 9313
SWIDTH 1000 0
DWIDTH 16 0
BBX 16 15 0 -2
BITMAP
07E0
1810
33CC
2624
4422
4422
8062
80C1
8302
4202
4402
27F4
300C
0810
07E0
ENDCHAR
STARTCHAR 2462
ENCODING 9314
SWIDTH 1000 0
DWIDTH 16 0
BBX 16 15 0 -1
BITMAP
03E0
0C10
100C
23C4
4422
4022
8022
81C1
8062
4032
4C32
2424
33CC
1810
07E0
ENDCHAR
STARTCHAR 2463
ENCODING 9315
SWIDTH 1000 0
DWIDTH 16 0
BBX 16 15 0 -2
BITMAP
07E0
1810
30CC
20C4
4142
4342
8642
8441
8842
4FF2
4042
2044
300C
0810
07E0
ENDCHAR
STARTCHAR 2464
ENCODING 9316
SWIDTH 1000 0
DWIDTH 16 0
BBX 16 15 0 -1
BITMAP
03E0
0C10
100C
27E4
4402
4402
85C2
8621
8032
4032
4422
2624
33CC
1810
07E0
ENDCHAR
STARTCHAR 2465
ENCODING 9317
SWIDTH 1000 0
DWIDTH 16 0
BBX 16 15 0 -1
BITMAP
03E0
0C10
100C
21C4
4222
4402
85C2
8661
8422
4422
4422
2664
33CC
1810
07E0
ENDCHAR
STARTCHAR 2466
ENCODING 9318
SWIDTH 1000 0
DWIDTH 16 0
BBX 16 15 0 -1
BITMAP
07E0
0810
300C
27F4
4022
4062
8042
80C1
8082
4082
4182
2104
310C
0810
07E0
ENDCHAR
STARTCHAR 2467
ENCODING 9319
SWIDTH 1000 0
DWIDTH 16 0
BBX 16 15 0 -1
BITMAP
03E0
0C10
100C
23C4
4422
4422
8422
83C1
8422
4C32
4C32
2424
33CC
1810
07E0
ENDCHAR
STARTCHAR 2468
ENCODING 9320
SWIDTH 1000 0
DWIDTH 16 0
BBX 16 15 0 -1
BITMAP
03E0
0C10
100C
23C4
4662
4422
8432
8671
83F2
4032
4422
2664
33CC
1810
07E0
ENDCHAR
STARTCHAR 2469
ENCODING 9321
SWIDTH 1000 0
DWIDTH 16 0
BBX 16 15 0 -1
BITMAP
03E0
0C10
100C
2CE4
5C92
4D9A
8D0A
8D09
8D0A
4D0A
4D9A
2C94
3CEC
1810
07E0
ENDCHAR
STARTCHAR 246A
ENCODING 9322
SWIDTH 1000 0
DWIDTH 16 0
BBX 16 15 0 -1
BITMAP
03E0
0C10
100C
2434
4C72
4432
8432
8431
8432
4432
4432
2434
343C
1810
07E0
ENDCHAR
STARTCHAR 246B
ENCODING 9323
SWIDTH 1000 0
DWIDTH 16 0
BBX 16 15 0 -2
BITMAP
07E0
1810
3CEC
7C94
4D12
4C12
8C32
8C61
8CC2
4C82
4D82
2DF4
300C
0810
07E0
ENDCHAR
STARTCHAR 246C
ENCODING 9324
SWIDTH 1000 0
DWIDTH 16 0
BBX 16 15 0 -1
BITMAP
03E0
0C10
100C
2CF4
5D92
4C12
8C12
8C61
8C12
4C1A
4D1A
2D94
3CEC
1810
07E0
ENDCHAR
STARTCHAR 246D
ENCODING 9325
SWIDTH 1000 0
DWIDTH 16 0
BBX 16 15 0 -1
BITMAP
07E0
0810
300C
2C34
5C72
4C72
8CB2
8DB1
8D32
4FFA
4C32
2C34
300C
0810
07E0
ENDCHAR
STARTCHAR 246E
ENCODING 9326
SWIDTH 1000 0
DWIDTH 16 0
BBX 16 15 0 -1
BITMAP
03E0
0C10
100C
2DF4
5D82
4D02
8D62
8D91
8C1A
4C1A
4D1A
2D94
3CEC
1810
07E0
ENDCHAR
STARTCHAR 246F
ENCODING 9327
SWIDTH 1000 0
DWIDTH 16 0
BBX 16 15 0 -1
BITMAP
03E0
0C10
100C
2CF4
5C92
4D02
8D02
8DF1
8D92
4D1A
4D1A
2D94
3CEC
1810
07E0
ENDCHAR
STARTCHAR 2470
ENCODING 9328
SWIDTH 1000 0
DWIDTH 16 0
BBX 16 15 0 -1
BITMAP
03E0
0C10
100C
2DF4
5C12
4C32
8C22
8C21
8C62
4C42
4C42
2CC4
3CCC
1810
07E0
ENDCHAR
STARTCHAR 2471
ENCODING 9329
SWIDTH 1000 0
DWIDTH 16 0
BBX 16 15 0 -1
BITMAP
03E0
0C10
100C
2CE4
5D12
4D12
8D92
8CE1
8D12
4D1A
4D1A
2D14
3CEC
1810
07E0
ENDCHAR
STARTCHAR 2472
ENCODING 9330
SWIDTH 1000 0
DWIDTH 16 0
BBX 16 15 0 -1
BITMAP
03E0
0C10
100C
2CE4
5D92
4D12
8D1A
8D99
8CFA
4C1A
4D12
2D94
3CEC
1810
07E0
ENDCHAR
STARTCHAR 2473
ENCODING 9331
SWIDTH 1000 0
DWIDTH 16 0
BBX 16 15 0 -2
BITMAP
07E0
1810
3E3C
694C
594A
594A
824A
8649
8C4A
484A
484A
3F34
300C
0810
07E0
ENDCHAR
STARTCHAR 24D0
ENCODING 9424
SWIDTH 1000 0
DWIDTH 16 0
BBX 16 15 0 -1
BITMAP
03E0
0C10
100C
2004
4002
43C2
8462
81E1
8622
4462
47A2
2004
300C
1810
07E0
ENDCHAR
STARTCHAR 24D1
ENCODING 9425
SWIDTH 1000 0
DWIDTH 16 0
BBX 16 15 0 -1
BITMAP
03E0
0C10
100C
2604
4602
4602
87E2
8621
8632
4612
4622
25C4
300C
1810
07E0
ENDCHAR
STARTCHAR 24D2
ENCODING 9426
SWIDTH 1000 0
DWIDTH 16 0
BBX 16 15 0 -1
BITMAP
03E0
0C10
100C
2004
4002
43C2
8662
8401
8402
4662
43C2
2004
300C
1810
07E0
ENDCHAR
STARTCHAR 24D3
ENCODING 9427
SWIDTH 1000 0
DWIDTH 16 0
BBX 16 15 0 -1
BITMAP
03E0
0C10
100C
2064
4062
4062
87E2
8461
8862
4862
4462
23A4
300C
1810
07E0
ENDCHAR
STARTCHAR 24D4
ENCODING 9428
SWIDTH 1000 0
DWIDTH 16 0
BBX 16 15 0 -1
BITMAP
07E0
0810
300C
2004
43C2
4662
8422
87E1
8402
4622
43C2
2004
300C
0810
07E0
ENDCHAR
STARTCHAR 24D5
ENCODING 9429
SWIDTH 1000 0
DWIDTH 16 0
BBX 16 15 0 -1
BITMAP
07E0
1810
300C
21C4
4102
4102
87C2
8101
8102
4102
4102
2104
300C
0810
07E0
ENDCHAR
STARTCHAR 24D6
ENCODING 9430
SWIDTH 1000 0
DWIDTH 16 0
BBX 16 15 0 -1
BITMAP
03E0
0C10
100C
2004
43E2
4662
8422
8661
83E2
4022
4662
23C4
300C
1810
07E0
ENDCHAR
STARTCHAR 24D7
ENCODING 9431
SWIDTH 1000 0
DWIDTH 16 0
BBX 16 15 0 -1
BITMAP
03E0
0C10
100C
2604
4602
4602
87C2
8621
8622
4622
4622
2624
300C
1810
07E0
ENDCHAR
STARTCHAR 24D8
ENCODING 9432
SWIDTH 1000 0
DWIDTH 16 0
BBX 16 15 0 -1
BITMAP
03E0
0C10
100C
2184
4182
4002
8182
8181
8182
4182
4182
2184
318C
1810
07E0
ENDCHAR
STARTCHAR 24D9
ENCODING 9433
SWIDTH 1000 0
DWIDTH 16 0
BBX 16 15 0 -1
BITMAP
03E0
0C10
108C
2084
4002
4082
8082
8081
8082
4082
4082
2084
338C
1810
07E0
ENDCHAR
STARTCHAR 24DA
ENCODING 9434
SWIDTH 1000 0
DWIDTH 16 0
BBX 16 15 0 -1
BITMAP
07E0
0810
100C
2604
4602
4602
8662
8681
8782
46C2
4642
2624
300C
1810
07E0
ENDCHAR
STARTCHAR 24DB
ENCODING 9435
SWIDTH 1000 0
DWIDTH 16 0
BBX 16 15 0 -1
BITMAP
03E0
0C10
100C
2184
4182
4182
8182
8181
8182
4182
4182
2184
318C
1810
07E0
ENDCHAR
STARTCHAR 24DC
ENCODING 9436
SWIDTH 1000 0
DWIDTH 16 0
BBX 16 15 0 -1
BITMAP
03E0
0C10
100C
2004
4002
4F72
8992
8991
8992
4992
4992
2004
300C
1810
07E0
ENDCHAR
STARTCHAR 24DD
ENCODING 9437
SWIDTH 1000 0
DWIDTH 16 0
BBX 16 15 0 -1
BITMAP
03E0
0C10
100C
2004
4002
45C2
8622
8421
8422
4422
4422
2004
300C
1810
07E0
ENDCHAR
STARTCHAR 24DE
ENCODING 9438
SWIDTH 1000 0
DWIDTH 16 0
BBX 16 15 0 -1
BITMAP
03E0
0C10
100C
2004
4002
43C2
8422
8421
8422
4662
43C2
2004
300C
1810
07E0
ENDCHAR
STARTCHAR 24DF
ENCODING 9439
SWIDTH 1000 0
DWIDTH 16 0
BBX 16 15 0 -1
BITMAP
03E0
0C10
100C
2004
45C2
4622
8612
8611
8612
4622
47C2
2604
300C
1810
07E0
ENDCHAR
STARTCHAR 24E0
ENCODING 9440
SWIDTH 1000 0
DWIDTH 16 0
BBX 16 15 0 -1
BITMAP
03E0
0C10
100C
2004
43A2
4462
8862
8861
8862
4462
43E2
2064
300C
1810
07E0
ENDCHAR
STARTCHAR 24E1
ENCODING 9441
SWIDTH 1000 0
DWIDTH 16 0
BBX 16 15 0 -1
BITMAP
03E0
0C10
100C
2004
4002
4162
8182
8101
8102
4102
4102
2004
300C
1810
07E0
ENDCHAR
STARTCHAR 24E2
ENCODING 9442
SWIDTH 1000 0
DWIDTH 16 0
BBX 16 15 0 -1
BITMAP
03E0
0C10
100C
2004
4002
43C2
8602
8301
80C2
4422
43C2
2004
300C
1810
07E0
ENDCHAR
STARTCHAR 24E3
ENCODING 9443
SWIDTH 1000 0
DWIDTH 16 0
BBX 16 15 0 -2
BITMAP
07E0
1810
300C
6104
4102
47C2
8102
8101
8102
4102
41C2
2004
300C
0810
07E0
ENDCHAR
STARTCHAR 24E4
ENCODING 9444
SWIDTH 1000 0
DWIDTH 16 0
BBX 16 15 0 -1
BITMAP
03E0
0C10
100C
2004
4002
4422
8422
8421
8422
4662
43A2
2004
300C
1810
07E0
ENDCHAR
STARTCHAR 24E5
ENCODING 9445
SWIDTH 1000 0
DWIDTH 16 0
BBX 16 15 0 -1
BITMAP
03E0
0C10
100C
2004
4002
4422
8422
8661
8242
43C2
4182
2184
300C
1810
07E0
ENDCHAR
STARTCHAR 24E6
ENCODING 9446
SWIDTH 1000 0
DWIDTH 16 0
BBX 16 15 0 -1
BITMAP
03E0
0C10
100C
2004
4002
518A
999A
8991
8A52
4662
4662
2664
300C
1810
07E0
ENDCHAR
STARTCHAR 24E7
ENCODING 9447
SWIDTH 1000 0
DWIDTH 16 0
BBX 16 14 0 -1
BITMAP
07E0
1818
300C
4002
4422
8242
8181
8181
8242
4422
4002
300C
1818
07E0
ENDCHAR
STARTCHAR 24E8
ENCODING 9448
SWIDTH 1000 0
DWIDTH 16 0
BBX 16 15 0 -1
BITMAP
03E0
0C10
100C
2004
4432
4622
8262
8341
8142
4182
4082
2704
360C
1810
07E0
ENDCHAR
STARTCHAR 24E9
ENCODING 9449
SWIDTH 1000 0
DWIDTH 16 0
BBX 16 14 0 -1
BITMAP
07E0
1818
300C
4002
47E2
8042
8081
8101
8602
47E2
4002
300C
1818
07E0
ENDCHAR
STARTCHAR 24EB
ENCODING 9451
SWIDTH 1000 0
DWIDTH 16 0
BBX 16 15 0 -1
BITMAP
03E0
0FF0
1FFC
33CC
638E
73EE
73EE
F3EF
F3EE
73EE
73EE
33EC
33EC
1FF0
07E0
ENDCHAR
STARTCHAR 24EC
ENCODING 9452
SWIDTH 1000 0
DWIDTH 16 0
BBX 16 15 0 -2
BITMAP
07E0
1FF0
370C
676C
7666
77E6
F7CF
F79F
77BF
777E
767E
3604
3FFC
0FF0
07E0
ENDCHAR
STARTCHAR 24ED
ENCODING 9453
SWIDTH 1000 0
DWIDTH 16 0
BBX 16 15 0 -1
BITMAP
03E0
0FF0
1FFC
370C
666E
77EE
77EF
F79F
F7EF
77F6
76F6
366C
370C
1FF0
07E0
ENDCHAR
STARTCHAR 24EE
ENCODING 9454
SWIDTH 1000 0
DWIDTH 16 0
BBX 16 15 0 -1
BITMAP
07E0
0FF0
3FFC
27CC
678E
77AE
F72E
F76F
76EE
7606
77EE
37EC
3FFC
0FF0
07E0
ENDCHAR
STARTCHAR 24EF
ENCODING 9455
SWIDTH 1000 0
DWIDTH 16 0
BBX 16 15 0 -1
BITMAP
03E0
0FF0
1FFC
370C
667E
767E
760F
F66F
F7E7
77F6
76E6
366C
371C
1FF0
07E0
ENDCHAR
STARTCHAR 24F0
ENCODING 9456
SWIDTH 1000 0
DWIDTH 16 0
BBX 16 15 0 -1
BITMAP
03E0
0FF0
1FFC
378C
676E
767E
76FF
F60F
F667
76F6
76E6
376C
370C
1FF0
07E0
ENDCHAR
STARTCHAR 24F1
ENCODING 9457
SWIDTH 1000 0
DWIDTH 16 0
BBX 16 15 0 -1
BITMAP
03E0
0FF0
1FFC
3604
67EE
77EE
77DE
F7DF
F7DE
77BE
77BE
37BC
373C
1FF0
07E0
ENDCHAR
STARTCHAR 24F2
ENCODING 9458
SWIDTH 1000 0
DWIDTH 16 0
BBX 16 15 0 -1
BITMAP
03E0
0FF0
1FFC
371C
666E
76E6
766F
F71F
F66F
76F6
76F6
3664
370C
1FF0
07E0
ENDCHAR
STARTCHAR 24F3
ENCODING 9459
SWIDTH 1000 0
DWIDTH 16 0
BBX 16 15 0 -1
BITMAP
03E0
0FF0
1FFC
370C
666E
76E6
76E7
F667
F717
77F6
766E
376C
371C
1FF0
07E0
ENDCHAR
STARTCHAR 24F4
ENCODING 9460
SWIDTH 1000 0
DWIDTH 16 0
BBX 16 15 0 -2
BITMAP
07E0
1FF0
31CC
64B4
6EB6
6CB6
FDB6
FBB7
73B6
77B6
67B6
20CC
3FFC
0FF0
07E0
ENDCHAR
STARTCHAR 24F5
ENCODING 9461
SWIDTH 1000 0
DWIDTH 16 0
BBX 16 16 0 -2
BITMAP
07C0
0830
13C8
2C34
538A
A286
A086
C085
C085
A086
6086
508A
2CB4
13E8
0810
07E0
ENDCHAR
STARTCHAR 24F6
ENCODING 9462
SWIDTH 1000 0
DWIDTH 16 0
BBX 16 15 0 -2
BITMAP
07E0
0BD8
3DFC
326A
6426
A066
C0C5
C185
A306
A606
57EA
2C34
33E8
1810
07E0
ENDCHAR
STARTCHAR 24F7
ENCODING 9463
SWIDTH 1000 0
DWIDTH 16 0
BBX 16 16 0 -2
BITMAP
07C0
0830
13C8
2C34
53CA
A426
A026
C1C5
C065
A026
6426
562A
2FF4
13E8
0810
07E0
ENDCHAR
STARTCHAR 24F8
ENCODING 9464
SWIDTH 1000 0
DWIDTH 16 0
BBX 16 16 0 -2
BITMAP
07E0
0BD0
1C3C
30CC
61C6
A146
A246
C445
CC45
AFE6
604A
504A
2C34
13C8
0C30
07E0
ENDCHAR
STARTCHAR 24F9
ENCODING 9465
SWIDTH 1000 0
DWIDTH 16 0
BBX 16 15 0 -2
BITMAP
07E0
0BD8
3C3C
33EA
6206
A206
C7C5
C625
A026
A626
53CA
2C34
33E8
1810
07E0
ENDCHAR
STARTCHAR 24FA
ENCODING 9466
SWIDTH 1000 0
DWIDTH 16 0
BBX 16 16 0 -2
BITMAP
07C0
0830
13C8
2C34
53CA
A226
A406
C5C5
C665
A426
6426
526A
2FF4
13E8
0810
07E0
ENDCHAR
STARTCHAR 24FB
ENCODING 9467
SWIDTH 1000 0
DWIDTH 16 0
BBX 16 16 0 -2
BITMAP
07E0
0810
13C8
2C34
57EA
A066
A046
C045
C085
A086
6186
510A
2D34
13E8
0810
07E0
ENDCHAR
STARTCHAR 24FC
ENCODING 9468
SWIDTH 1000 0
DWIDTH 16 0
BBX 16 16 0 -2
BITMAP
07C0
0830
13C8
2C34
53CA
A426
A426
C3C5
C645
A426
6426
562A
2FF4
13E8
0810
07E0
ENDCHAR
STARTCHAR 24FD
ENCODING 9469
SWIDTH 1000 0
DWIDTH 16 0
BBX 16 16 0 -2
BITMAP
07C0
0830
13C8
2C34
53CA
A666
A426
C665
C3E5
A026
6626
526A
2FF4
13E8
0810
07E0
ENDCHAR
STARTCHAR 24FE
ENCODING 9470
SWIDTH 1000 0
DWIDTH 16 0
BBX 16 16 0 -2
BITMAP
07C0
0830
13C8
2C34
54EA
ACB6
A596
C515
C515
A596
64B6
54EA
2C34
13E8
0810
07E0
ENDCHAR
STARTCHAR 2500
ENCODING 9472
SWIDTH 1000 0
DWIDTH 16 0
BBX 16 1 0 5
BITMAP
FFFF
ENDCHAR
STARTCHAR 2501
ENCODING 9473
SWIDTH 1000 0
DWIDTH 16 0
BBX 16 2 0 5
BITMAP
FFFF
FFFF
ENDCHAR
STARTCHAR 2502
ENCODING 9474
SWIDTH 1000 0
DWIDTH 16 0
BBX 1 15 7 -2
BITMAP
80
80
80
80
80
80
80
80
80
80
80
80
80
80
80
ENDCHAR
STARTCHAR 2503
ENCODING 9475
SWIDTH 1000 0
DWIDTH 16 0
BBX 2 16 7 -2
BITMAP
C0
C0
C0
C0
C0
C0
C0
C0
C0
C0
C0
C0
C0
C0
C0
C0
ENDCHAR
STARTCHAR 250C
ENCODING 9484
SWIDTH 1000 0
DWIDTH 16 0
BBX 8 8 8 -3
BITMAP
FF
80
80
80
80
80
80
80
ENDCHAR
STARTCHAR 250F
ENCODING 9487
SWIDTH 1000 0
DWIDTH 16 0
BBX 9 9 7 -2
BITMAP
FF80
FF80
C000
C000
C000
C000
C000
C000
C000
ENDCHAR
STARTCHAR 2510
ENCODING 9488
SWIDTH 1000 0
DWIDTH 16 0
BBX 8 8 0 -3
BITMAP
FF
01
01
01
01
01
01
01
ENDCHAR
STARTCHAR 2513
ENCODING 9491
SWIDTH 1000 0
DWIDTH 16 0
BBX 9 9 0 -2
BITMAP
FF80
FF80
0180
0180
0180
0180
0180
0180
0180
ENDCHAR
STARTCHAR 2514
ENCODING 9492
SWIDTH 1000 0
DWIDTH 16 0
BBX 8 8 8 6
BITMAP
80
80
80
80
80
80
80
FF
ENDCHAR
STARTCHAR 2517
ENCODING 9495
SWIDTH 1000 0
DWIDTH 16 0
BBX 9 9 7 5
BITMAP
C000
C000
C000
C000
C000
C000
C000
FF80
FF80
ENDCHAR
STARTCHAR 2518
ENCODING 9496
SWIDTH 1000 0
DWIDTH 16 0
BBX 8 8 0 6
BITMAP
01
01
01
01
01
01
01
FF
ENDCHAR
STARTCHAR 251B
ENCODING 9499
SWIDTH 1000 0
DWIDTH 16 0
BBX 9 9 0 5
BITMAP
0180
0180
0180
0180
0180
0180
0180
FF80
FF80
ENDCHAR
STARTCHAR 251C
ENCODING 9500
SWIDTH 1000 0
DWIDTH 16 0
BBX 8 15 8 -2
BITMAP
80
80
80
80
80
80
80
FF
80
80
80
80
80
80
80
ENDCHAR
STARTCHAR 251D
ENCODING 9501
SWIDTH 1000 0
DWIDTH 16 0
BBX 8 16 8 -2
BITMAP
80
80
80
80
80
80
80
FF
FF
80
80
80
80
80
80
80
ENDCHAR
STARTCHAR 2520
ENCODING 9504
SWIDTH 1000 0
DWIDTH 16 0
BBX 9 16 7 -2
BITMAP
C000
C000
C000
C000
C000
C000
C000
C000
FF80
C000
C000
C000
C000
C000
C000
C000
ENDCHAR
STARTCHAR 2523
ENCODING 9507
SWIDTH 1000 0
DWIDTH 16 0
BBX 9 16 7 -2
BITMAP
C000
C000
C000
C000
C000
C000
C000
FF80
FF80
C000
C000
C000
C000
C000
C000
C000
ENDCHAR
STARTCHAR 2524
ENCODING 9508
SWIDTH 1000 0
DWIDTH 16 0
BBX 8 15 0 -2
BITMAP
01
01
01
01
01
01
01
FF
01
01
01
01
01
01
01
ENDCHAR
STARTCHAR 2525
ENCODING 9509
SWIDTH 1000 0
DWIDTH 16 0
BBX 8 16 0 -2
BITMAP
01
01
01
01
01
01
01
FF
FF
01
01
01
01
01
01
01
ENDCHAR
STARTCHAR 2528
ENCODING 9512
SWIDTH 1000 0
DWIDTH 16 0
BBX 9 16 0 -2
BITMAP
0180
0180
0180
0180
0180
0180
0180
0180
FF80
0180
0180
0180
0180
0180
0180
0180
ENDCHAR
STARTCHAR 252B
ENCODING 9515
SWIDTH 1000 0
DWIDTH 16 0
BBX 9 16 0 -2
BITMAP
0180
0180
0180
0180
0180
0180
0180
FF80
FF80
0180
0180
0180
0180
0180
0180
0180
ENDCHAR
STARTCHAR 252C
ENCODING 9516
SWIDTH 1000 0
DWIDTH 16 0
BBX 16 8 0 -3
BITMAP
FFFF
0100
0100
0100
0100
0100
0100
0100
ENDCHAR
STARTCHAR 252F
ENCODING 9519
SWIDTH 1000 0
DWIDTH 16 0
BBX 16 9 0 -2
BITMAP
FFFF
FFFF
0100
0100
0100
0100
0100
0100
0100
ENDCHAR
STARTCHAR 2530
ENCODING 9520
SWIDTH 1000 0
DWIDTH 16 0
BBX 16 8 0 -2
BITMAP
FFFF
0180
0180
0180
0180
0180
0180
0180
ENDCHAR
STARTCHAR 2533
ENCODING 9523
SWIDTH 1000 0
DWIDTH 16 0
BBX 16 9 0 -2
BITMAP
FFFF
FFFF
0180
0180
0180
0180
0180
0180
0180
ENDCHAR
STARTCHAR 2534
ENCODING 9524
SWIDTH 1000 0
DWIDTH 16 0
BBX 16 8 0 6
BITMAP
0100
0100
0100
0100
0100
0100
0100
FFFF
ENDCHAR
STARTCHAR 2537
ENCODING 9527
SWIDTH 1000 0
DWIDTH 16 0
BBX 16 9 0 5
BITMAP
0100
0100
0100
0100
0100
0100
0100
FFFF
FFFF
ENDCHAR
STARTCHAR 2538
ENCODING 9528
SWIDTH 1000 0
DWIDTH 16 0
BBX 16 9 0 5
BITMAP
0180
0180
0180
0180
0180
0180
0180
0180
FFFF
ENDCHAR
STARTCHAR 253B
ENCODING 9531
SWIDTH 1000 0
DWIDTH 16 0
BBX 16 9 0 5
BITMAP
0180
0180
0180
0180
0180
0180
0180
FFFF
FFFF
ENDCHAR
STARTCHAR 253C
ENCODING 9532
SWIDTH 1000 0
DWIDTH 16 0
BBX 16 15 0 -2
BITMAP
0100
0100
0100
0100
0100
0100
0100
FFFF
0100
0100
0100
0100
0100
0100
0100
ENDCHAR
STARTCHAR 253F
ENCODING 9535
SWIDTH 1000 0
DWIDTH 16 0
BBX 16 16 0 -2
BITMAP
0100
0100
0100
0100
0100
0100
0100
FFFF
FFFF
0100
0100
0100
0100
0100
0100
0100
ENDCHAR
STARTCHAR 2542
ENCODING 9538
SWIDTH 1000 0
DWIDTH 16 0
BBX 16 16 0 -2
BITMAP
0180
0180
0180
0180
0180
0180
0180
0180
FFFF
0180
0180
0180
0180
0180
0180
0180
ENDCHAR
STARTCHAR 254B
ENCODING 9547
SWIDTH 1000 0
DWIDTH 16 0
BBX 16 16 0 -2
BITMAP
0180
0180
0180
0180
0180
0180
0180
FFFF
FFFF
0180
0180
0180
0180
0180
0180
0180
ENDCHAR
STARTCHAR 25A0
ENCODING 9632
SWIDTH 1000 0
DWIDTH 16 0
BBX 12 12 2 0
BITMAP
FFF0
FFF0
FFF0
FFF0
FFF0
FFF0
FFF0
FFF0
FFF0
FFF0
FFF0
FFF0
ENDCHAR
STARTCHAR 25A1
ENCODING 9633
SWIDTH 1000 0
DWIDTH 16 0
BBX 12 12 2 0
BITMAP
FFF0
8010
8010
8010
8010
8010
8010
8010
8010
8010
8010
FFF0
ENDCHAR
STARTCHAR 25B1
ENCODING 9649
SWIDTH 1000 0
DWIDTH 16 0
BBX 14 6 1 3
BITMAP
3FFC
2004
6008
4018
8010
FFF0
ENDCHAR
STARTCHAR 25B2
ENCODING 9650
SWIDTH 1000 0
DWIDTH 16 0
BBX 12 12 2 0
BITMAP
0400
0600
0600
0F00
1F80
1F80
3FC0
3FC0
7FE0
7FE0
FFF0
FFF0
ENDCHAR
STARTCHAR 25B3
ENCODING 9651
SWIDTH 1000 0
DWIDTH 16 0
BBX 12 12 2 0
BITMAP
0400
0600
0600
0900
0980
1080
30C0
2040
6060
4020
C030
FFF0
ENDCHAR
STARTCHAR 25B6
ENCODING 9654
SWIDTH 1000 0
DWIDTH 16 0
BBX 12 12 2 1
BITMAP
C000
F000
FC00
FF00
FFC0
FFF0
FFE0
FF80
FE00
FC00
F000
C000
ENDCHAR
STARTCHAR 25B7
ENCODING 9655
SWIDTH 1000 0
DWIDTH 16 0
BBX 12 12 2 1
BITMAP
C000
F000
9C00
8700
81C0
8070
8060
8180
8600
9C00
F000
C000
ENDCHAR
STARTCHAR 25BC
ENCODING 9660
SWIDTH 1000 0
DWIDTH 16 0
BBX 12 12 2 0
BITMAP
FFF0
FFF0
7FE0
7FE0
3FC0
3FC0
1F80
1F80
0F00
0600
0600
0400
ENDCHAR
STARTCHAR 25BD
ENCODING 9661
SWIDTH 1000 0
DWIDTH 16 0
BBX 12 12 2 0
BITMAP
FFF0
C030
4020
6060
2040
30C0
1080
0980
0900
0600
0600
0400
ENDCHAR
STARTCHAR 25C0
ENCODING 9664
SWIDTH 1000 0
DWIDTH 16 0
BBX 12 12 2 1
BITMAP
0030
00F0
03F0
0FF0
3FF0
FFF0
7FF0
1FF0
07F0
03F0
00F0
0030
ENDCHAR
STARTCHAR 25C1
ENCODING 9665
SWIDTH 1000 0
DWIDTH 16 0
BBX 12 12 2 1
BITMAP
0030
00F0
0390
0E10
3810
E010
6010
1810
0610
0390
00F0
0030
ENDCHAR
STARTCHAR 25C6
ENCODING 9670
SWIDTH 1000 0
DWIDTH 16 0
BBX 14 14 1 -1
BITMAP
0300
0780
0FC0
1FE0
3FF0
7FF8
FFFC
FFFC
7FF8
3FF0
1FE0
0FC0
0780
0300
ENDCHAR
STARTCHAR 25C7
ENCODING 9671
SWIDTH 1000 0
DWIDTH 16 0
BBX 14 14 1 -1
BITMAP
0300
0780
0CC0
1860
3030
6018
C00C
C00C
6018
3030
1860
0CC0
0780
0300
ENDCHAR
STARTCHAR 25C9
ENCODING 9673
SWIDTH 1000 0
DWIDTH 16 0
BBX 14 14 1 -1
BITMAP
0780
1860
2010
4788
4FC8
DFE4
9FE4
9FE4
DFEC
4FC8
4798
2030
1860
0780
ENDCHAR
STARTCHAR 25CB
ENCODING 9675
SWIDTH 1000 0
DWIDTH 16 0
BBX 14 14 1 -1
BITMAP
0780
1860
2010
6008
4008
C00C
8004
8004
C00C
4008
6008
2010
1860
07C0
ENDCHAR
STARTCHAR 25CE
ENCODING 9678
SWIDTH 1000 0
DWIDTH 16 0
BBX 14 14 1 -1
BITMAP
0780
1860
2010
4788
4848
D024
9024
9024
D02C
4848
4798
2030
1860
0780
ENDCHAR
STARTCHAR 25CF
ENCODING 9679
SWIDTH 1000 0
DWIDTH 16 0
BBX 14 13 1 -1
BITMAP
0FC0
1FE0
3FF0
7FF8
7FF8
FFFC
FFFC
FFFC
7FF8
7FF8
3FF0
1FE0
0FC0
ENDCHAR
STARTCHAR 25D0
ENCODING 9680
SWIDTH 1000 0
DWIDTH 16 0
BBX 14 14 1 -1
BITMAP
0780
1E60
3E30
7E18
7E08
FE0C
FE04
FE04
FE0C
7E08
7E18
3E30
1EE0
0780
ENDCHAR
STARTCHAR 25D1
ENCODING 9681
SWIDTH 1000 0
DWIDTH 16 0
BBX 14 14 1 -1
BITMAP
0780
19E0
31F0
61F8
41F8
C1FC
81FC
81FC
C1FC
41F8
61F8
31F0
1DE0
0780
ENDCHAR
STARTCHAR 25D2
ENCODING 9682
SWIDTH 1000 0
DWIDTH 16 0
BBX 14 14 1 -1
BITMAP
0780
1860
2010
4008
4008
C00C
8004
FFFC
FFFC
7FF8
7FF8
3FF0
1FE0
0780
ENDCHAR
STARTCHAR 25D3
ENCODING 9683
SWIDTH 1000 0
DWIDTH 16 0
BBX 14 14 1 -1
BITMAP
0780
1FE0
3FF0
7FF8
7FF8
FFFC
FFFC
8004
C00C
4008
4008
2010
1860
0780
ENDCHAR
STARTCHAR 25E6
ENCODING 9702
SWIDTH 1000 0
DWIDTH 16 0
BBX 6 6 5 3
BITMAP
78
48
84
84
48
78
ENDCHAR
STARTCHAR 25EF
ENCODING 9711
SWIDTH 1000 0
DWIDTH 16 0
BBX 16 15 0 -1
BITMAP
03E0
0C10
100C
2004
4002
4002
8002
8001
8002
4002
4002
2004
300C
1810
07E0
ENDCHAR
STARTCHAR 2600
ENCODING 9728
SWIDTH 1000 0
DWIDTH 16 0
BBX 15 15 1 -2
BITMAP
0200
0200
2010
1020
0780
0FC0
1FE0
DFEE
1FE0
1FE0
0FC0
17A0
2010
0200
0200
ENDCHAR
STARTCHAR 2601
ENCODING 9729
SWIDTH 1000 0
DWIDTH 16 0
BBX 14 11 1 -1
BITMAP
0F00
1F80
1FD8
1FFC
3FFC
7FFC
FFF8
FFFC
FDFC
78F8
0070
ENDCHAR
STARTCHAR 2602
ENCODING 9730
SWIDTH 1000 0
DWIDTH 16 0
BBX 14 14 1 -1
BITMAP
0200
0FC0
3FF0
7FF8
FFFC
9324
1220
0200
0200
0200
0200
0200
0A00
0600
ENDCHAR
STARTCHAR 2603
ENCODING 9731
SWIDTH 1000 0
DWIDTH 16 0
BBX 14 14 1 -1
BITMAP
82CC
3120
0210
4E14
31E4
2010
A490
14A4
2324
C010
4308
8008
4308
3FF0
ENDCHAR
STARTCHAR 2605
ENCODING 9733
SWIDTH 1000 0
DWIDTH 16 0
BBX 12 14 2 -1
BITMAP
0400
0600
0600
0600
0F00
FFF0
7FE0
3FC0
1F80
1F80
3FC0
30C0
2040
4020
ENDCHAR
STARTCHAR 2606
ENCODING 9734
SWIDTH 1000 0
DWIDTH 16 0
BBX 12 14 2 -1
BITMAP
0400
0600
0600
0600
0900
F9F0
4020
2040
1080
1080
2640
39C0
2040
4020
ENDCHAR
STARTCHAR 260E
ENCODING 9742
SWIDTH 1000 0
DWIDTH 16 0
BBX 14 12 1 0
BITMAP
3FF0
FFFC
ECDC
CFCC
1FE0
1860
3030
3030
7038
7878
FFFC
FFFC
ENDCHAR
STARTCHAR 2616
ENCODING 9750
SWIDTH 1000 0
DWIDTH 16 0
BBX 12 12 2 1
BITMAP
0F00
30C0
6060
4020
C020
8010
8010
8010
8010
8010
8010
FFF0
ENDCHAR
STARTCHAR 2617
ENCODING 9751
SWIDTH 1000 0
DWIDTH 16 0
BBX 12 13 2 0
BITMAP
0600
0F00
3FC0
7FE0
7FE0
FFE0
FFF0
FFF0
FFF0
FFF0
FFF0
FFF0
FFF0
ENDCHAR
STARTCHAR 261E
ENCODING 9758
SWIDTH 1000 0
DWIDTH 16 0
BBX 14 7 1 3
BITMAP
67FC
9884
A378
BDA0
A160
B9C0
E7C0
ENDCHAR
STARTCHAR 2640
ENCODING 9792
SWIDTH 1000 0
DWIDTH 16 0
BBX 10 14 3 -1
BITMAP
1E00
3300
2100
4080
6180
2300
1E00
0C00
0C00
FFC0
0C00
0C00
0C00
0C00
ENDCHAR
STARTCHAR 2642
ENCODING 9794
SWIDTH 1000 0
DWIDTH 16 0
BBX 12 12 2 0
BITMAP
01F0
0030
0070
00D0
0110
3A00
C400
8400
8200
8200
C400
7800
ENDCHAR
STARTCHAR 2660
ENCODING 9824
SWIDTH 1000 0
DWIDTH 16 0
BBX 12 14 2 -1
BITMAP
0600
0F00
1F80
1F80
3FC0
7FE0
FFF0
FFF0
FFF0
FFF0
7FE0
0600
0600
0600
ENDCHAR
STARTCHAR 2661
ENCODING 9825
SWIDTH 1000 0
DWIDTH 16 0
BBX 12 14 2 -1
BITMAP
79E0
8610
8610
8010
8010
8010
8010
4020
4020
2040
1080
0900
0600
0600
ENDCHAR
STARTCHAR 2662
ENCODING 9826
SWIDTH 1000 0
DWIDTH 16 0
BBX 12 14 2 -1
BITMAP
0600
0900
1080
1080
2040
4020
8010
4020
4020
2040
1080
0900
0900
0600
ENDCHAR
STARTCHAR 2663
ENCODING 9827
SWIDTH 1000 0
DWIDTH 16 0
BBX 14 14 1 -1
BITMAP
0780
0FC0
0FC0
0FC0
0FC0
7FF8
FFFC
FFFC
FFFC
FEFC
7B78
0300
0300
0300
ENDCHAR
STARTCHAR 2664
ENCODING 9828
SWIDTH 1000 0
DWIDTH 16 0
BBX 12 14 2 0
BITMAP
0600
0900
1080
2080
2040
4020
8020
8010
8010
8610
CD30
7AE0
0900
0F00
ENDCHAR
STARTCHAR 2665
ENCODING 9829
SWIDTH 1000 0
DWIDTH 16 0
BBX 12 13 2 -1
BITMAP
70E0
F9F0
FFF0
FFF0
FFF0
FFF0
7FF0
7FE0
3FC0
3FC0
1F80
0F00
0600
ENDCHAR
STARTCHAR 2666
ENCODING 9830
SWIDTH 1000 0
DWIDTH 16 0
BBX 12 14 2 -1
BITMAP
0600
0F00
1F80
1F80
3FC0
7FE0
FFF0
7FE0
7FE0
3FC0
1F80
0F00
0F00
0600
ENDCHAR
STARTCHAR 2667
ENCODING 9831
SWIDTH 1000 0
DWIDTH 16 0
BBX 14 14 1 -1
BITMAP
0780
0840
0840
1040
0840
7CF8
C00C
8004
8004
C78C
7B78
0500
0480
0780
ENDCHAR
STARTCHAR 2668
ENCODING 9832
SWIDTH 1000 0
DWIDTH 16 0
BBX 14 12 1 0
BITMAP
1200
1240
1240
1240
1340
1920
0920
4928
9124
8204
6018
1FE0
ENDCHAR
STARTCHAR 2669
ENCODING 9833
SWIDTH 1000 0
DWIDTH 16 0
BBX 5 14 4 -1
BITMAP
08
08
08
08
08
08
08
08
08
08
78
F8
F8
70
ENDCHAR
STARTCHAR 266A
ENCODING 9834
SWIDTH 1000 0
DWIDTH 16 0
BBX 11 14 3 -1
BITMAP
0800
0C00
0E00
0980
08C0
0840
0860
0840
0840
0880
7800
F800
F800
7000
ENDCHAR
STARTCHAR 266B
ENCODING 9835
SWIDTH 1000 0
DWIDTH 16 0
BBX 12 14 1 0
BITMAP
01F0
0FF0
0E10
0810
0810
0810
0810
0810
0810
08F0
09F0
F9E0
F800
F000
ENDCHAR
STARTCHAR 266C
ENCODING 9836
SWIDTH 1000 0
DWIDTH 16 0
BBX 12 14 1 0
BITMAP
01F0
0FF0
0E10
09F0
0FF0
0E10
0810
0810
0810
08F0
09F0
F9E0
F800
F000
ENDCHAR
STARTCHAR 266D
ENCODING 9837
SWIDTH 1000 0
DWIDTH 16 0
BBX 6 13 6 -1
BITMAP
80
80
80
80
80
B8
CC
84
8C
8C
98
B0
C0
ENDCHAR
STARTCHAR 266E
ENCODING 9838
SWIDTH 1000 0
DWIDTH 16 0
BBX 4 14 6 -1
BITMAP
80
80
80
80
F0
D0
90
90
F0
F0
10
10
10
10
ENDCHAR
STARTCHAR 266F
ENCODING 9839
SWIDTH 1000 0
DWIDTH 16 0
BBX 10 14 3 -1
BITMAP
0100
2100
2100
21C0
7F00
E100
2100
2100
21C0
FF00
A100
2100
2100
2000
ENDCHAR
STARTCHAR 2713
ENCODING 10003
SWIDTH 1000 0
DWIDTH 16 0
BBX 10 10 4 2
BITMAP
00C0
0080
0100
0200
0400
8400
8800
D000
6000
4000
ENDCHAR
STARTCHAR 2756
ENCODING 10070
SWIDTH 1000 0
DWIDTH 16 0
BBX 14 14 1 -1
BITMAP
0300
0780
0FC0
0FC0
37B0
7B78
FCFC
FCFC
7B78
37B0
0FC0
0FC0
0780
0300
ENDCHAR
STARTCHAR 2776
ENCODING 10102
SWIDTH 1000 0
DWIDTH 16 0
BBX 16 15 0 -1
BITMAP
03E0
0FF0
1FFC
3E7C
7D7E
7F7E
7F7E
FF7F
FF7E
7F7E
7F7E
3F7C
3F7C
1FF0
07E0
ENDCHAR
STARTCHAR 2777
ENCODING 10103
SWIDTH 1000 0
DWIDTH 16 0
BBX 16 16 0 -2
BITMAP
07E0
1FF0
3C38
399C
7BDE
7BDE
7FDE
FF3F
FEFF
7DFE
7BFE
780E
380C
1FF8
0FF0
07E0
ENDCHAR
STARTCHAR 2778
ENCODING 10104
SWIDTH 1000 0
DWIDTH 16 0
BBX 16 15 0 -1
BITMAP
03E0
0FF0
1FFC
3C3C
7BDE
7FDE
7FDE
FE3F
FF9E
7FCE
73CE
3BDC
3C3C
1FF0
07E0
ENDCHAR
STARTCHAR 2779
ENCODING 10105
SWIDTH 1000 0
DWIDTH 16 0
BBX 16 16 0 -2
BITMAP
07E0
1FF8
3F3C
3F3C
7EBE
7CBE
79BE
FBBF
F7BF
700E
700E
7FBE
3FBC
1FF8
0FF0
07E0
ENDCHAR
STARTCHAR 277A
ENCODING 10106
SWIDTH 1000 0
DWIDTH 16 0
BBX 16 15 0 -1
BITMAP
03E0
0FF0
1FFC
381C
7BFE
7BFE
7A3E
F9DF
FFCE
7FCE
7BDE
39DC
3C3C
1FF0
07E0
ENDCHAR
STARTCHAR 277B
ENCODING 10107
SWIDTH 1000 0
DWIDTH 16 0
BBX 16 15 0 -1
BITMAP
03E0
0FF0
1FFC
3E3C
7DDE
7BFE
7A3E
F81F
F9DE
7BDE
7BDE
39DC
3C3C
1FF0
07E0
ENDCHAR
STARTCHAR 277C
ENCODING 10108
SWIDTH 1000 0
DWIDTH 16 0
BBX 16 15 0 -1
BITMAP
07E0
0FF0
3FFC
381C
781E
7FDE
7F9E
FFBF
FF3E
7F7E
7E7E
3EFC
3EFC
0FF0
07E0
ENDCHAR
STARTCHAR 277D
ENCODING 10109
SWIDTH 1000 0
DWIDTH 16 0
BBX 16 15 0 -1
BITMAP
03E0
0FF0
1FFC
3C3C
7BDE
7BDE
7BDE
FC3F
FBDE
73CE
73CE
3BDC
3C3C
1FF0
07E0
ENDCHAR
STARTCHAR 277E
ENCODING 10110
SWIDTH 1000 0
DWIDTH 16 0
BBX 16 15 0 -1
BITMAP
03E0
0FF0
1FFC
3C3C
799E
7BDE
7BCE
F98F
FC0E
7FCE
7BDE
399C
3C3C
1FF0
07E0
ENDCHAR
STARTCHAR 277F
ENCODING 10111
SWIDTH 1000 0
DWIDTH 16 0
BBX 16 15 0 -1
BITMAP
03E0
0FF0
1FFC
378C
676E
7676
76F7
F6F7
F6F7
76F6
7676
376C
378C
1FF0
07E0
ENDCHAR
STARTCHAR 2934
ENCODING 10548
SWIDTH 1000 0
DWIDTH 16 0
BBX 13 12 2 0
BITMAP
0040
00E0
01D0
0148
0048
0040
0040
0040
0040
00C0
0180
FF00
ENDCHAR
STARTCHAR 2935
ENCODING 10549
SWIDTH 1000 0
DWIDTH 16 0
BBX 13 12 2 0
BITMAP
FF00
0180
0040
0040
0040
0040
0040
0048
0148
01D0
00E0
0040
ENDCHAR
STARTCHAR 29BF
ENCODING 10687
SWIDTH 1000 0
DWIDTH 16 0
BBX 14 14 1 -1
BITMAP
0780
1860
2010
4008
4008
C30C
8784
8784
C30C
4008
4008
2010
1860
0780
ENDCHAR
STARTCHAR 29FA
ENCODING 10746
SWIDTH 687 0
DWIDTH 11 0
BBX 9 9 1 1
BITMAP
2000
2400
2400
2400
FF80
2400
2400
2400
2400
ENDCHAR
STARTCHAR 29FB
ENCODING 10747
SWIDTH 687 0
DWIDTH 11 0
BBX 9 9 1 1
BITMAP
2A00
2A00
2A00
2A00
FF80
2A00
2A00
2A00
2A00
ENDCHAR
STARTCHAR 2E83
ENCODING 11907
SWIDTH 1000 0
DWIDTH 16 0
BBX 10 12 4 0
BITMAP
8000
8000
8000
8000
8000
8000
8000
8000
8040
8040
80C0
FF80
ENDCHAR
STARTCHAR 2E85
ENCODING 11909
SWIDTH 1000 0
DWIDTH 16 0
BBX 8 14 3 -1
BITMAP
01
03
02
04
0C
1C
34
C4
04
04
04
04
04
04
ENDCHAR
STARTCHAR 2E87
ENCODING 11911
SWIDTH 1000 0
DWIDTH 16 0
BBX 14 13 1 -1
BITMAP
3FF0
2010
2010
2010
2010
2010
2010
2010
6010
4014
401C
C00C
800C
ENDCHAR
STARTCHAR 2E89
ENCODING 11913
SWIDTH 1000 0
DWIDTH 16 0
BBX 6 13 5 -1
BITMAP
84
84
84
84
84
84
84
84
84
04
04
04
3C
ENDCHAR
STARTCHAR 2E8E
ENCODING 11918
SWIDTH 1000 0
DWIDTH 16 0
BBX 14 12 1 -1
BITMAP
FFFC
08C0
08C0
08C0
08C0
08C0
08C0
08C0
18C4
10C4
60C4
C078
ENDCHAR
STARTCHAR 2E8F
ENCODING 11919
SWIDTH 1000 0
DWIDTH 16 0
BBX 13 13 2 -1
BITMAP
1080
30C0
2060
4030
9910
1900
1900
1100
1100
1108
2108
E108
80F0
ENDCHAR
STARTCHAR 2E90
ENCODING 11920
SWIDTH 1000 0
DWIDTH 16 0
BBX 14 14 1 -1
BITMAP
0200
0200
0200
0200
7FF8
0300
0300
0700
0500
0500
0904
190C
318C
C0F8
ENDCHAR
STARTCHAR 2E92
ENCODING 11922
SWIDTH 1000 0
DWIDTH 16 0
BBX 13 13 2 -1
BITMAP
FFE0
C020
C020
C020
C020
FFE0
C020
C000
C000
C008
C018
C010
7FF0
ENDCHAR
STARTCHAR 2E93
ENCODING 11923
SWIDTH 1000 0
DWIDTH 16 0
BBX 12 12 2 1
BITMAP
0400
0C00
0840
D080
6180
1300
0A00
0C80
0840
1020
3FF0
F810
ENDCHAR
STARTCHAR 2E94
ENCODING 11924
SWIDTH 1000 0
DWIDTH 16 0
BBX 14 12 1 0
BITMAP
0800
1800
1FE0
1020
1020
1020
3FE0
2020
2060
0060
0040
FFFC
ENDCHAR
STARTCHAR 2E96
ENCODING 11926
SWIDTH 1000 0
DWIDTH 16 0
BBX 6 14 5 -1
BITMAP
20
20
20
A8
AC
A4
A4
A0
20
20
20
20
20
20
ENDCHAR
STARTCHAR 2E97
ENCODING 11927
SWIDTH 1000 0
DWIDTH 16 0
BBX 14 14 1 -1
BITMAP
0C00
0C00
0C00
0C00
2D30
6D10
4D98
4C88
4CCC
8C44
0C00
0C00
0C00
3800
ENDCHAR
STARTCHAR 2E98
ENCODING 11928
SWIDTH 1000 0
DWIDTH 16 0
BBX 8 14 4 -1
BITMAP
10
10
10
FE
10
10
11
3E
F0
10
10
10
10
70
ENDCHAR
STARTCHAR 2E99
ENCODING 11929
SWIDTH 1000 0
DWIDTH 16 0
BBX 12 14 2 -1
BITMAP
1000
1000
1000
3FF0
20C0
6080
D080
9980
0900
0600
0700
0DC0
3070
C010
ENDCHAR
STARTCHAR 2E9B
ENCODING 11931
SWIDTH 1000 0
DWIDTH 16 0
BBX 14 13 1 -1
BITMAP
7FF8
0100
3100
2100
2100
3FFC
2200
0380
0780
0584
098C
318C
E0F8
ENDCHAR
STARTCHAR 2E9E
ENCODING 11934
SWIDTH 1000 0
DWIDTH 16 0
BBX 13 15 2 -1
BITMAP
0200
0200
03F8
0200
0A00
1FE0
3060
3040
CCC0
8780
0300
0600
0C00
7000
4000
ENDCHAR
STARTCHAR 2E9F
ENCODING 11935
SWIDTH 1000 0
DWIDTH 16 0
BBX 14 13 1 -1
BITMAP
3FF0
2010
2610
2190
2010
FFFC
2410
2610
6110
6010
7FFC
4030
00E0
ENDCHAR
STARTCHAR 2EA0
ENCODING 11936
SWIDTH 1000 0
DWIDTH 16 0
BBX 14 13 1 -1
BITMAP
3FF0
2010
2010
3FF0
2110
2100
3FFC
2080
2080
20C4
2F44
F82C
8018
ENDCHAR
STARTCHAR 2EA1
ENCODING 11937
SWIDTH 1000 0
DWIDTH 16 0
BBX 5 13 6 -1
BITMAP
C0
60
00
00
C0
60
00
18
10
20
60
C0
80
ENDCHAR
STARTCHAR 2EA3
ENCODING 11939
SWIDTH 1000 0
DWIDTH 16 0
BBX 12 5 2 3
BITMAP
4360
4920
4910
8990
8800
ENDCHAR
STARTCHAR 2EA4
ENCODING 11940
SWIDTH 1000 0
DWIDTH 16 0
BBX 11 7 2 3
BITMAP
0020
0FE0
F800
0820
4460
6440
2680
ENDCHAR
STARTCHAR 2EA6
ENCODING 11942
SWIDTH 1000 0
DWIDTH 16 0
BBX 6 14 4 -1
BITMAP
04
04
44
44
24
24
04
0C
3C
E4
84
04
04
04
ENDCHAR
STARTCHAR 2EA8
ENCODING 11944
SWIDTH 1000 0
DWIDTH 16 0
BBX 6 14 4 -1
BITMAP
04
2C
38
10
68
C8
0C
14
34
64
84
04
0C
38
ENDCHAR
STARTCHAR 2EAA
ENCODING 11946
SWIDTH 1000 0
DWIDTH 16 0
BBX 9 12 3 0
BITMAP
7F80
0300
0600
2C00
2C00
2F80
2C00
2C00
2C00
2D80
3E00
F000
ENDCHAR
STARTCHAR 2EAB
ENCODING 11947
SWIDTH 1000 0
DWIDTH 16 0
BBX 12 7 2 3
BITMAP
FFF0
8910
8910
8910
8910
FFF0
8010
ENDCHAR
STARTCHAR 2EAD
ENCODING 11949
SWIDTH 1000 0
DWIDTH 16 0
BBX 8 14 4 -1
BITMAP
08
08
08
FF
02
04
08
1C
6A
C9
08
08
08
08
ENDCHAR
STARTCHAR 2EB2
ENCODING 11954
SWIDTH 1000 0
DWIDTH 16 0
BBX 12 7 2 3
BITMAP
FFF0
8910
8910
8910
8910
FFF0
8010
ENDCHAR
STARTCHAR 2EB9
ENCODING 11961
SWIDTH 1000 0
DWIDTH 16 0
BBX 14 12 1 1
BITMAP
0200
0218
3FD0
0230
0260
02C0
FFFC
0300
0600
1800
6000
C000
ENDCHAR
STARTCHAR 2EBD
ENCODING 11965
SWIDTH 1000 0
DWIDTH 16 0
BBX 12 13 2 -1
BITMAP
1800
F3F0
8010
8010
8010
8010
F9F0
8010
8010
8010
8010
F9F0
8010
ENDCHAR
STARTCHAR 2EBE
ENCODING 11966
SWIDTH 1000 0
DWIDTH 16 0
BBX 14 5 1 5
BITMAP
0840
0840
FFFC
0840
0840
ENDCHAR
STARTCHAR 2EBF
ENCODING 11967
SWIDTH 1000 0
DWIDTH 16 0
BBX 14 5 1 5
BITMAP
1020
1020
FFFC
1020
1020
ENDCHAR
STARTCHAR 2EC0
ENCODING 11968
SWIDTH 1000 0
DWIDTH 16 0
BBX 14 5 1 5
BITMAP
0840
0840
F87C
0840
0840
ENDCHAR
STARTCHAR 2EC1
ENCODING 11969
SWIDTH 1000 0
DWIDTH 16 0
BBX 14 14 1 -1
BITMAP
0200
03F0
0200
7FFC
420C
5FE0
4208
43F0
4000
4640
4440
4444
CC44
B07C
ENDCHAR
STARTCHAR 2EC2
ENCODING 11970
SWIDTH 1000 0
DWIDTH 16 0
BBX 9 14 3 -1
BITMAP
0800
0800
0800
7F80
0100
0200
0400
0900
3E00
EB00
0880
0800
0800
0800
ENDCHAR
STARTCHAR 2EC3
ENCODING 11971
SWIDTH 1000 0
DWIDTH 16 0
BBX 14 8 1 3
BITMAP
FFFC
0480
0480
7FF8
4488
4488
7FF8
4008
ENDCHAR
STARTCHAR 2EC4
ENCODING 11972
SWIDTH 1000 0
DWIDTH 16 0
BBX 14 13 1 -1
BITMAP
FFFC
0480
0480
7FF8
4488
4488
4898
48A8
70E8
4008
4008
7FF8
4008
ENDCHAR
STARTCHAR 2ECA
ENCODING 11978
SWIDTH 1000 0
DWIDTH 16 0
BBX 8 13 4 -1
BITMAP
7E
42
42
7E
18
18
58
5E
58
58
59
5E
F0
ENDCHAR
STARTCHAR 2ECC
ENCODING 11980
SWIDTH 1000 0
DWIDTH 16 0
BBX 14 12 1 0
BITMAP
6000
3000
1000
0000
0000
F000
1000
1000
1000
1000
2800
C7FC
ENDCHAR
STARTCHAR 2ECD
ENCODING 11981
SWIDTH 1000 0
DWIDTH 16 0
BBX 14 13 1 -1
BITMAP
2000
3000
1000
4000
2000
0000
0000
F000
1000
1000
1000
2800
C7FC
ENDCHAR
STARTCHAR 2ECF
ENCODING 11983
SWIDTH 1000 0
DWIDTH 16 0
BBX 7 13 5 -1
BITMAP
FE
C6
C4
CC
C8
CC
C6
C2
C2
C2
DE
C0
C0
ENDCHAR
STARTCHAR 2ED1
ENCODING 11985
SWIDTH 1000 0
DWIDTH 16 0
BBX 14 13 1 -1
BITMAP
1FF0
1000
1FF0
1000
1FF0
1000
FFFC
1108
1130
10E0
1160
1E38
700C
ENDCHAR
STARTCHAR 2ED2
ENCODING 11986
SWIDTH 1000 0
DWIDTH 16 0
BBX 14 13 1 -1
BITMAP
1FF8
1000
1FF0
1000
1FF0
1000
1000
FFFC
0800
0860
1030
1FF8
7808
ENDCHAR
STARTCHAR 2ED6
ENCODING 11990
SWIDTH 1000 0
DWIDTH 16 0
BBX 7 13 5 -1
BITMAP
FE
C6
C4
CC
C8
CC
C6
C2
C2
C2
DE
C0
C0
ENDCHAR
STARTCHAR 2ED8
ENCODING 11992
SWIDTH 1000 0
DWIDTH 16 0
BBX 14 15 1 -1
BITMAP
0300
0300
7FF8
0300
7FF8
0300
FFFC
0000
3FF0
2010
3FF0
3FF0
2010
2010
20F0
ENDCHAR
STARTCHAR 2EDE
ENCODING 11998
SWIDTH 1000 0
DWIDTH 16 0
BBX 8 14 4 -1
BITMAP
10
1C
26
7F
C0
FE
42
7E
7E
40
7E
40
7E
40
ENDCHAR
STARTCHAR 2EDF
ENCODING 11999
SWIDTH 1000 0
DWIDTH 16 0
BBX 8 13 4 0
BITMAP
18
34
2B
48
FE
42
7E
42
7E
44
44
46
FA
ENDCHAR
STARTCHAR 2EE4
ENCODING 12004
SWIDTH 1000 0
DWIDTH 16 0
BBX 14 14 1 -1
BITMAP
0200
0600
3FF0
2310
3FF0
2310
2310
3FF0
0D20
0D30
0948
197C
3104
C1FC
ENDCHAR
STARTCHAR 2EE8
ENCODING 12008
SWIDTH 1000 0
DWIDTH 16 0
BBX 14 15 1 -1
BITMAP
0300
0300
7FF8
0300
0300
3FF0
0300
FFFC
0400
0FE0
1C60
66C0
0380
0EF0
701C
ENDCHAR
STARTCHAR 2EE9
ENCODING 12009
SWIDTH 1000 0
DWIDTH 16 0
BBX 14 15 1 -1
BITMAP
0840
0840
7FF8
0840
0840
FFFC
0200
3FF0
2210
3FF0
2210
3FF0
08E0
7038
4000
ENDCHAR
STARTCHAR 2EEB
ENCODING 12011
SWIDTH 1000 0
DWIDTH 16 0
BBX 14 14 1 -1
BITMAP
0300
0300
FFFC
1840
0C80
0300
3CF8
D024
1FE0
1020
1FE0
1020
2020
4020
ENDCHAR
STARTCHAR 2EED
ENCODING 12013
SWIDTH 1000 0
DWIDTH 16 0
BBX 14 14 1 -1
BITMAP
0300
13F0
1300
1300
FFFC
4208
4A48
4AC8
5FE8
4708
4AE8
5208
7FF8
4008
ENDCHAR
STARTCHAR 2EEF
ENCODING 12015
SWIDTH 1000 0
DWIDTH 16 0
BBX 14 15 1 -1
BITMAP
0300
0300
7FF8
0840
0840
FFFC
0000
3FF0
2210
3FF0
2210
3FF0
2204
0304
01FC
ENDCHAR
STARTCHAR 2EF2
ENCODING 12018
SWIDTH 1000 0
DWIDTH 16 0
BBX 14 14 1 -1
BITMAP
0800
1FC0
3FF0
6210
BFF0
2210
3FF0
7FF8
4208
7FF8
4208
7FF8
4204
03FC
ENDCHAR
STARTCHAR 2F00
ENCODING 12032
SWIDTH 1000 0
DWIDTH 16 0
BBX 14 1 1 6
BITMAP
FFFC
ENDCHAR
STARTCHAR 2F01
ENCODING 12033
SWIDTH 1000 0
DWIDTH 16 0
BBX 2 14 7 -1
BITMAP
C0
C0
C0
C0
C0
C0
C0
C0
C0
C0
C0
C0
C0
C0
ENDCHAR
STARTCHAR 2F02
ENCODING 12034
SWIDTH 1000 0
DWIDTH 16 0
BBX 7 7 4 3
BITMAP
C0
30
18
0C
06
02
02
ENDCHAR
STARTCHAR 2F03
ENCODING 12035
SWIDTH 1000 0
DWIDTH 16 0
BBX 5 14 4 -1
BITMAP
08
08
08
08
08
08
08
08
08
18
10
30
60
C0
ENDCHAR
STARTCHAR 2F04
ENCODING 12036
SWIDTH 1000 0
DWIDTH 16 0
BBX 13 12 2 0
BITMAP
FFC0
0180
0300
0600
0C00
1800
3000
2000
4018
C010
C010
7FF0
ENDCHAR
STARTCHAR 2F05
ENCODING 12037
SWIDTH 1000 0
DWIDTH 16 0
BBX 5 14 4 -1
BITMAP
18
18
18
18
18
18
18
18
18
18
18
18
98
70
ENDCHAR
STARTCHAR 2F06
ENCODING 12038
SWIDTH 1000 0
DWIDTH 16 0
BBX 14 10 1 1
BITMAP
7FF8
0000
0000
0000
0000
0000
0000
0000
0000
FFFC
ENDCHAR
STARTCHAR 2F07
ENCODING 12039
SWIDTH 1000 0
DWIDTH 16 0
BBX 14 4 1 6
BITMAP
0300
0300
0300
FFFC
ENDCHAR
STARTCHAR 2F08
ENCODING 12040
SWIDTH 1000 0
DWIDTH 16 0
BBX 13 14 2 -1
BITMAP
0600
0600
0600
0600
0600
0600
0600
0D00
0980
1880
3040
6030
C018
8000
ENDCHAR
STARTCHAR 2F09
ENCODING 12041
SWIDTH 1000 0
DWIDTH 16 0
BBX 13 13 2 -1
BITMAP
1100
1100
1100
1100
1100
1100
1100
1100
3100
2118
6118
C1F0
8000
ENDCHAR
STARTCHAR 2F0A
ENCODING 12042
SWIDTH 1000 0
DWIDTH 16 0
BBX 14 13 1 -1
BITMAP
1F00
0300
0300
0300
0300
0300
0280
0480
0440
0860
1830
701C
C000
ENDCHAR
STARTCHAR 2F0B
ENCODING 12043
SWIDTH 1000 0
DWIDTH 16 0
BBX 14 12 1 0
BITMAP
0780
00C0
0840
0840
0840
1860
1020
1030
3010
2018
400C
C004
ENDCHAR
STARTCHAR 2F0C
ENCODING 12044
SWIDTH 1000 0
DWIDTH 16 0
BBX 12 13 2 -1
BITMAP
FFF0
8010
8010
8010
8010
8010
8010
8010
8010
8010
8010
8010
80F0
ENDCHAR
STARTCHAR 2F0D
ENCODING 12045
SWIDTH 1000 0
DWIDTH 16 0
BBX 12 4 2 5
BITMAP
FFF0
8010
8010
8010
ENDCHAR
STARTCHAR 2F0E
ENCODING 12046
SWIDTH 1000 0
DWIDTH 16 0
BBX 6 13 5 -1
BITMAP
80
C0
60
20
04
04
0C
18
10
20
60
C0
80
ENDCHAR
STARTCHAR 2F0F
ENCODING 12047
SWIDTH 1000 0
DWIDTH 16 0
BBX 14 12 1 -1
BITMAP
1FC0
1040
1040
1040
1040
1040
1040
1040
1044
3044
6044
C07C
ENDCHAR
STARTCHAR 2F10
ENCODING 12048
SWIDTH 1000 0
DWIDTH 16 0
BBX 12 12 2 0
BITMAP
8010
8010
8010
8010
8010
8010
8010
8010
8010
8010
FFF0
8010
ENDCHAR
STARTCHAR 2F11
ENCODING 12049
SWIDTH 1000 0
DWIDTH 16 0
BBX 12 12 2 -1
BITMAP
FFF0
0C10
0C10
0C10
0C10
0810
0810
1830
1030
3030
6020
C3E0
ENDCHAR
STARTCHAR 2F12
ENCODING 12050
SWIDTH 1000 0
DWIDTH 16 0
BBX 12 14 2 -1
BITMAP
0400
0400
0400
FFF0
0410
0410
0410
0C10
0810
1810
3030
6030
C1E0
8000
ENDCHAR
STARTCHAR 2F13
ENCODING 12051
SWIDTH 1000 0
DWIDTH 16 0
BBX 12 13 2 0
BITMAP
1000
3000
3FF0
6010
4010
8010
8010
0010
0030
0030
0020
0020
03E0
ENDCHAR
STARTCHAR 2F14
ENCODING 12052
SWIDTH 1000 0
DWIDTH 16 0
BBX 11 12 3 0
BITMAP
8000
8000
8080
83C0
9E00
F000
8000
8000
8020
8020
8060
7FC0
ENDCHAR
STARTCHAR 2F15
ENCODING 12053
SWIDTH 1000 0
DWIDTH 16 0
BBX 13 13 2 -1
BITMAP
FFF0
8000
8000
8000
8000
8000
8000
8000
8000
8000
8000
FFF8
8000
ENDCHAR
STARTCHAR 2F16
ENCODING 12054
SWIDTH 1000 0
DWIDTH 16 0
BBX 13 12 1 0
BITMAP
FFF8
2000
2000
2000
2000
2000
2000
2000
2000
2000
2000
3FF8
ENDCHAR
STARTCHAR 2F17
ENCODING 12055
SWIDTH 1000 0
DWIDTH 16 0
BBX 14 14 1 -1
BITMAP
0300
0300
0300
0300
0300
0300
FFFC
0300
0300
0300
0300
0300
0300
0300
ENDCHAR
STARTCHAR 2F18
ENCODING 12056
SWIDTH 1000 0
DWIDTH 16 0
BBX 7 14 6 -1
BITMAP
80
80
80
80
80
E0
B8
8C
86
80
80
80
80
80
ENDCHAR
STARTCHAR 2F19
ENCODING 12057
SWIDTH 1000 0
DWIDTH 16 0
BBX 7 13 5 -1
BITMAP
FE
82
82
82
82
82
82
82
86
9E
80
80
80
ENDCHAR
STARTCHAR 2F1A
ENCODING 12058
SWIDTH 1000 0
DWIDTH 16 0
BBX 13 12 1 -1
BITMAP
3FF8
2000
2000
2000
2000
2000
2000
6000
6000
4000
4000
C000
ENDCHAR
STARTCHAR 2F1B
ENCODING 12059
SWIDTH 1000 0
DWIDTH 16 0
BBX 14 12 1 0
BITMAP
0200
0200
0600
0400
0400
0C00
0860
0820
1010
1078
FFC8
600C
ENDCHAR
STARTCHAR 2F1C
ENCODING 12060
SWIDTH 1000 0
DWIDTH 16 0
BBX 14 12 1 -1
BITMAP
7FF0
1010
1020
0820
0860
0440
0680
0380
0380
06C0
1830
F01C
ENDCHAR
STARTCHAR 2F1D
ENCODING 12061
SWIDTH 1000 0
DWIDTH 16 0
BBX 12 11 2 0
BITMAP
FFF0
C030
C030
C030
C030
C030
C030
C030
C030
FFF0
C030
ENDCHAR
STARTCHAR 2F1E
ENCODING 12062
SWIDTH 1000 0
DWIDTH 16 0
BBX 12 13 2 -1
BITMAP
FFF0
8010
8010
8010
8010
8010
8010
8010
8010
8010
8010
FFF0
8010
ENDCHAR
STARTCHAR 2F1F
ENCODING 12063
SWIDTH 1000 0
DWIDTH 16 0
BBX 14 13 1 0
BITMAP
0300
0300
0300
0300
7FF8
0300
0300
0300
0300
0300
0300
0300
FFFC
ENDCHAR
STARTCHAR 2F20
ENCODING 12064
SWIDTH 1000 0
DWIDTH 16 0
BBX 14 13 1 0
BITMAP
0300
0300
0300
0300
FFFC
0300
0300
0300
0300
0300
0300
0300
7FF8
ENDCHAR
STARTCHAR 2F21
ENCODING 12065
SWIDTH 1000 0
DWIDTH 16 0
BBX 13 14 2 -1
BITMAP
0800
0800
1FE0
1040
3040
68C0
C880
8500
0700
0700
0D80
3860
E038
8000
ENDCHAR
STARTCHAR 2F22
ENCODING 12066
SWIDTH 1000 0
DWIDTH 16 0
BBX 14 14 1 -1
BITMAP
0200
0400
07F0
1C20
1820
1860
3C40
66C0
C380
0180
06C0
0C70
301C
4000
ENDCHAR
STARTCHAR 2F23
ENCODING 12067
SWIDTH 1000 0
DWIDTH 16 0
BBX 12 14 2 -1
BITMAP
0400
0C00
0FF0
1820
1020
3860
6C40
C6C0
0380
0300
0600
0C00
3800
6000
ENDCHAR
STARTCHAR 2F24
ENCODING 12068
SWIDTH 1000 0
DWIDTH 16 0
BBX 14 14 1 -1
BITMAP
0300
0300
0300
0300
FFFC
0300
0300
0280
06C0
0440
0820
1018
600C
4000
ENDCHAR
STARTCHAR 2F25
ENCODING 12069
SWIDTH 1000 0
DWIDTH 16 0
BBX 14 14 1 -1
BITMAP
0200
0200
0400
0400
FFFC
0820
0860
1040
1840
2680
0180
0360
1C38
6008
ENDCHAR
STARTCHAR 2F26
ENCODING 12070
SWIDTH 1000 0
DWIDTH 16 0
BBX 14 13 1 -1
BITMAP
3FF0
0030
00C0
0380
0300
0300
FFFC
0100
0100
0100
0100
0100
0F00
ENDCHAR
STARTCHAR 2F27
ENCODING 12071
SWIDTH 1000 0
DWIDTH 16 0
BBX 12 7 2 4
BITMAP
0600
0600
0600
FFF0
8010
8010
8010
ENDCHAR
STARTCHAR 2F28
ENCODING 12072
SWIDTH 1000 0
DWIDTH 16 0
BBX 14 13 1 0
BITMAP
0040
0040
0040
FFFC
0060
1060
1060
0860
0C60
0460
0060
0060
03C0
ENDCHAR
STARTCHAR 2F29
ENCODING 12073
SWIDTH 1000 0
DWIDTH 16 0
BBX 14 14 1 -1
BITMAP
0300
0300
0300
0320
1320
3330
2310
2318
6308
C30C
0300
0300
0300
0E00
ENDCHAR
STARTCHAR 2F2A
ENCODING 12074
SWIDTH 1000 0
DWIDTH 16 0
BBX 14 14 1 -1
BITMAP
0200
0200
0200
0200
7FF8
0300
0300
0700
0500
0500
0904
190C
318C
C0F8
ENDCHAR
STARTCHAR 2F2B
ENCODING 12075
SWIDTH 1000 0
DWIDTH 16 0
BBX 13 13 1 -1
BITMAP
3FF8
2008
2008
2008
3FF8
2008
2000
2000
2000
2000
6000
4000
C000
ENDCHAR
STARTCHAR 2F2C
ENCODING 12076
SWIDTH 1000 0
DWIDTH 16 0
BBX 12 14 2 -1
BITMAP
0600
0600
C630
C630
C630
C630
C630
FFF0
C630
0400
0400
0C00
3800
2000
ENDCHAR
STARTCHAR 2F2D
ENCODING 12077
SWIDTH 1000 0
DWIDTH 16 0
BBX 12 13 2 -1
BITMAP
0600
0600
8610
8610
8610
8610
8610
8610
8610
8610
8610
FFF0
8010
ENDCHAR
STARTCHAR 2F2E
ENCODING 12078
SWIDTH 1000 0
DWIDTH 16 0
BBX 13 12 2 -1
BITMAP
2210
6230
4620
4460
C440
88C0
88C0
8C40
4420
4230
6210
2318
ENDCHAR
STARTCHAR 2F2F
ENCODING 12079
SWIDTH 1000 0
DWIDTH 16 0
BBX 14 11 1 0
BITMAP
7FF8
0300
0300
0300
0300
0300
0300
0300
0300
0300
FFFC
ENDCHAR
STARTCHAR 2F30
ENCODING 12080
SWIDTH 1000 0
DWIDTH 16 0
BBX 13 13 2 -1
BITMAP
FFE0
0020
0020
0020
0020
FFE0
C020
C000
C000
C008
C018
C018
7FF0
ENDCHAR
STARTCHAR 2F31
ENCODING 12081
SWIDTH 1000 0
DWIDTH 16 0
BBX 12 14 2 -1
BITMAP
0600
0600
0600
FFF0
8610
8610
8610
8610
8610
8610
8690
8670
0600
0600
ENDCHAR
STARTCHAR 2F32
ENCODING 12082
SWIDTH 1000 0
DWIDTH 16 0
BBX 14 13 1 -1
BITMAP
7FF8
0300
0300
0300
0300
FFFC
0300
0300
0300
0300
0300
0300
0300
ENDCHAR
STARTCHAR 2F33
ENCODING 12083
SWIDTH 1000 0
DWIDTH 16 0
BBX 12 12 2 1
BITMAP
0400
0C00
0840
D080
6180
1300
0A00
0C80
0840
1020
3FF0
F810
ENDCHAR
STARTCHAR 2F34
ENCODING 12084
SWIDTH 1000 0
DWIDTH 16 0
BBX 13 13 1 -1
BITMAP
0100
0100
3FF8
2000
2000
2000
2000
2000
2000
6000
6000
4000
C000
ENDCHAR
STARTCHAR 2F35
ENCODING 12085
SWIDTH 1000 0
DWIDTH 16 0
BBX 13 13 2 -1
BITMAP
F800
1000
3000
2000
7800
4800
4800
4800
3800
1000
2C00
43F8
8000
ENDCHAR
STARTCHAR 2F36
ENCODING 12086
SWIDTH 1000 0
DWIDTH 16 0
BBX 14 13 1 -1
BITMAP
0840
0840
0840
0840
0840
FFFC
0860
0860
0860
1860
1060
2060
C060
ENDCHAR
STARTCHAR 2F37
ENCODING 12087
SWIDTH 1000 0
DWIDTH 16 0
BBX 14 14 1 -1
BITMAP
0400
0460
0630
0600
03FC
FF00
0200
0200
0300
0100
0084
00C4
006C
0018
ENDCHAR
STARTCHAR 2F38
ENCODING 12088
SWIDTH 1000 0
DWIDTH 16 0
BBX 12 13 2 -1
BITMAP
FFE0
0020
0020
7FE0
4020
4000
4000
FFF0
8030
0020
0020
0020
07C0
ENDCHAR
STARTCHAR 2F39
ENCODING 12089
SWIDTH 1000 0
DWIDTH 16 0
BBX 14 11 1 0
BITMAP
7FE0
0020
0020
0020
0020
3FE0
0020
0020
0020
0020
FFFC
ENDCHAR
STARTCHAR 2F3A
ENCODING 12090
SWIDTH 1000 0
DWIDTH 16 0
BBX 12 14 2 -1
BITMAP
0080
0100
0600
1C00
7040
C080
0300
0E30
7860
00C0
0180
0700
3C00
6000
ENDCHAR
STARTCHAR 2F3B
ENCODING 12091
SWIDTH 1000 0
DWIDTH 16 0
BBX 8 14 4 -1
BITMAP
06
0C
18
63
C6
04
08
38
68
88
08
08
08
08
ENDCHAR
STARTCHAR 2F3C
ENCODING 12092
SWIDTH 1000 0
DWIDTH 16 0
BBX 14 13 1 0
BITMAP
0400
0700
0180
0800
0800
2830
6810
4818
4808
C82C
8824
8820
0FE0
ENDCHAR
STARTCHAR 2F3D
ENCODING 12093
SWIDTH 1000 0
DWIDTH 16 0
BBX 14 14 1 -1
BITMAP
0440
0460
0620
0600
FFFC
0200
0230
0260
01C0
0180
0384
0CC4
3824
6018
ENDCHAR
STARTCHAR 2F3E
ENCODING 12094
SWIDTH 1000 0
DWIDTH 16 0
BBX 14 12 1 -1
BITMAP
7FFC
0000
0000
3FF0
2010
2010
3FF0
2010
2000
2000
4000
C000
ENDCHAR
STARTCHAR 2F3F
ENCODING 12095
SWIDTH 1000 0
DWIDTH 16 0
BBX 14 13 1 -1
BITMAP
01F0
7F00
0100
0100
7FF8
0100
0100
FFFC
0100
0100
0100
1100
0E00
ENDCHAR
STARTCHAR 2F40
ENCODING 12096
SWIDTH 1000 0
DWIDTH 16 0
BBX 14 14 1 -1
BITMAP
0300
0300
FFFC
0300
0300
0300
7FF0
1820
0860
04C0
0380
0380
0CE0
F01C
ENDCHAR
STARTCHAR 2F41
ENCODING 12097
SWIDTH 1000 0
DWIDTH 16 0
BBX 14 14 1 -1
BITMAP
0200
0200
03F8
0200
0200
0200
7FF0
1020
0860
04C0
0780
0380
0CF0
F01C
ENDCHAR
STARTCHAR 2F42
ENCODING 12098
SWIDTH 1000 0
DWIDTH 16 0
BBX 14 14 1 -1
BITMAP
0300
0300
0300
FFFC
1060
1840
0840
0CC0
0680
0300
0380
0CE0
703C
4008
ENDCHAR
STARTCHAR 2F43
ENCODING 12099
SWIDTH 1000 0
DWIDTH 16 0
BBX 14 14 1 -1
BITMAP
0040
0840
0E40
0340
0040
3840
0C40
0440
007C
FFE0
8040
0040
0040
0040
ENDCHAR
STARTCHAR 2F44
ENCODING 12100
SWIDTH 1000 0
DWIDTH 16 0
BBX 13 13 2 -2
BITMAP
01E0
7F80
6000
6000
6000
7FF8
6080
6080
4080
4080
4080
C080
8080
ENDCHAR
STARTCHAR 2F45
ENCODING 12101
SWIDTH 1000 0
DWIDTH 16 0
BBX 14 14 1 -1
BITMAP
0300
0300
0300
FFFC
0400
0400
07F0
0410
0410
0810
0810
1010
2030
41E0
ENDCHAR
STARTCHAR 2F46
ENCODING 12102
SWIDTH 1000 0
DWIDTH 16 0
BBX 14 13 1 -1
BITMAP
7FF8
0200
0200
0200
FFFC
0200
0380
0380
0580
0D84
1984
7184
C0F8
ENDCHAR
STARTCHAR 2F47
ENCODING 12103
SWIDTH 1000 0
DWIDTH 16 0
BBX 10 13 3 -1
BITMAP
FFC0
8040
8040
8040
8040
FFC0
8040
8040
8040
8040
8040
FFC0
8040
ENDCHAR
STARTCHAR 2F48
ENCODING 12104
SWIDTH 1000 0
DWIDTH 16 0
BBX 10 13 3 -1
BITMAP
FFC0
8040
8040
8040
8040
FF40
8040
8040
8040
8040
8040
FFC0
8040
ENDCHAR
STARTCHAR 2F49
ENCODING 12105
SWIDTH 1000 0
DWIDTH 16 0
BBX 11 13 2 -1
BITMAP
3FE0
2060
2060
3FE0
2060
2060
2060
3FE0
2060
6060
4060
4060
83C0
ENDCHAR
STARTCHAR 2F4A
ENCODING 12106
SWIDTH 1000 0
DWIDTH 16 0
BBX 14 13 1 -1
BITMAP
0300
0300
0300
FFFC
0300
0780
07C0
0B40
1330
3318
E30C
0300
0300
ENDCHAR
STARTCHAR 2F4B
ENCODING 12107
SWIDTH 1000 0
DWIDTH 16 0
BBX 13 14 1 -1
BITMAP
0800
0800
1800
1FF8
3308
2310
6330
4320
0380
0480
0440
0820
3018
E008
ENDCHAR
STARTCHAR 2F4C
ENCODING 12108
SWIDTH 1000 0
DWIDTH 16 0
BBX 14 13 1 0
BITMAP
0100
0100
0100
0100
1100
11F8
1100
1100
1100
1100
1100
1100
FFFC
ENDCHAR
STARTCHAR 2F4D
ENCODING 12109
SWIDTH 1000 0
DWIDTH 16 0
BBX 12 13 2 -1
BITMAP
FFF0
0C00
0800
1FE0
1040
3040
C880
8780
0300
0600
0C00
7000
4000
ENDCHAR
STARTCHAR 2F4E
ENCODING 12110
SWIDTH 1000 0
DWIDTH 16 0
BBX 13 13 2 -1
BITMAP
1F80
1080
1098
2098
E0F0
8000
7FE0
10C0
0980
0700
0F80
78F8
C010
ENDCHAR
STARTCHAR 2F4F
ENCODING 12111
SWIDTH 1000 0
DWIDTH 16 0
BBX 14 13 1 -1
BITMAP
3FF0
2310
2310
2310
2210
FFFC
2210
2210
6210
6210
7FFC
4030
00E0
ENDCHAR
STARTCHAR 2F50
ENCODING 12112
SWIDTH 1000 0
DWIDTH 16 0
BBX 14 14 1 -1
BITMAP
2100
2100
2100
2108
2130
3F60
2180
2100
2100
2100
2104
2F04
F1F8
8000
ENDCHAR
STARTCHAR 2F51
ENCODING 12113
SWIDTH 1000 0
DWIDTH 16 0
BBX 14 14 1 -1
BITMAP
0020
03F0
7E00
0200
0278
7F80
0200
0204
3FF8
C200
0204
0204
020C
03F8
ENDCHAR
STARTCHAR 2F52
ENCODING 12114
SWIDTH 1000 0
DWIDTH 16 0
BBX 14 13 1 -1
BITMAP
00F0
3F80
2100
2100
2100
3FF8
2100
2080
2080
20C4
2744
7C28
C018
ENDCHAR
STARTCHAR 2F53
ENCODING 12115
SWIDTH 1000 0
DWIDTH 16 0
BBX 13 14 2 -1
BITMAP
2000
2000
7FF0
4000
BFC0
0000
FFC0
0040
0040
0040
0068
0038
0038
0010
ENDCHAR
STARTCHAR 2F54
ENCODING 12116
SWIDTH 1000 0
DWIDTH 16 0
BBX 14 14 1 -1
BITMAP
0300
0300
0300
0318
FF30
0B60
0B80
0BC0
1340
3320
2318
C30C
8300
0F00
ENDCHAR
STARTCHAR 2F55
ENCODING 12117
SWIDTH 1000 0
DWIDTH 16 0
BBX 13 14 2 -1
BITMAP
0600
0600
0600
2610
6630
4660
4640
C640
0D00
0980
18C0
3060
E038
8000
ENDCHAR
STARTCHAR 2F56
ENCODING 12118
SWIDTH 1000 0
DWIDTH 16 0
BBX 14 13 1 0
BITMAP
03F8
3E20
2220
2220
2220
2220
2220
2230
2210
2218
6208
420C
8200
ENDCHAR
STARTCHAR 2F57
ENCODING 12119
SWIDTH 1000 0
DWIDTH 16 0
BBX 14 13 1 -1
BITMAP
08C0
1860
1030
2018
684C
48C0
0480
0780
0300
0780
0C60
303C
C000
ENDCHAR
STARTCHAR 2F58
ENCODING 12120
SWIDTH 1000 0
DWIDTH 16 0
BBX 12 14 2 -1
BITMAP
0040
70C0
1D80
0300
0CC0
F030
8050
1080
0980
0F00
0700
0D80
7070
C010
ENDCHAR
STARTCHAR 2F59
ENCODING 12121
SWIDTH 1000 0
DWIDTH 16 0
BBX 9 14 3 -1
BITMAP
0180
2180
2180
2180
3F80
2180
0180
FF80
3180
3180
2180
2180
6180
C180
ENDCHAR
STARTCHAR 2F5A
ENCODING 12122
SWIDTH 1000 0
DWIDTH 16 0
BBX 12 14 2 -1
BITMAP
2100
2100
2100
2100
3FF0
2000
2000
3FC0
20C0
60C0
40C0
40C0
C0C0
80C0
ENDCHAR
STARTCHAR 2F5B
ENCODING 12123
SWIDTH 1000 0
DWIDTH 16 0
BBX 13 13 2 -1
BITMAP
FFF0
0080
2080
2080
2080
7FF8
4380
0680
0C80
3080
6080
8080
0780
ENDCHAR
STARTCHAR 2F5C
ENCODING 12124
SWIDTH 1000 0
DWIDTH 16 0
BBX 14 15 1 -1
BITMAP
0300
0300
1300
3300
3FF8
2300
4300
4300
0300
FFFC
0300
0300
0300
0300
0300
ENDCHAR
STARTCHAR 2F5D
ENCODING 12125
SWIDTH 1000 0
DWIDTH 16 0
BBX 14 13 1 -1
BITMAP
0240
0220
0230
0200
FFFC
0300
0300
0680
04C0
0C40
1830
3018
E00C
ENDCHAR
STARTCHAR 2F5E
ENCODING 12126
SWIDTH 1000 0
DWIDTH 16 0
BBX 14 13 1 -1
BITMAP
0300
0300
FFFC
0200
0600
2460
3840
1880
0D00
0720
0610
0CF8
7F8C
ENDCHAR
STARTCHAR 2F5F
ENCODING 12127
SWIDTH 1000 0
DWIDTH 16 0
BBX 14 12 1 0
BITMAP
7FF8
0300
0300
0300
0300
7FF8
0300
0340
0360
0330
0300
FFFC
ENDCHAR
STARTCHAR 2F60
ENCODING 12128
SWIDTH 1000 0
DWIDTH 16 0
BBX 14 13 1 -1
BITMAP
01F8
3F20
2220
2220
2220
2230
2210
2210
2250
6258
4268
5FAC
8024
ENDCHAR
STARTCHAR 2F61
ENCODING 12129
SWIDTH 1000 0
DWIDTH 16 0
BBX 14 13 1 -1
BITMAP
FFF8
0800
0800
1FE0
1060
1460
1260
1360
1140
3044
27C4
FC44
003C
ENDCHAR
STARTCHAR 2F62
ENCODING 12130
SWIDTH 1000 0
DWIDTH 16 0
BBX 14 14 1 -1
BITMAP
1020
1020
1020
FFFC
1020
1020
1020
1FE0
1020
1020
1020
1020
1FE0
1020
ENDCHAR
STARTCHAR 2F63
ENCODING 12131
SWIDTH 1000 0
DWIDTH 16 0
BBX 14 14 1 0
BITMAP
0100
0100
1100
3100
3FF8
6100
4100
C100
0100
3FF0
0100
0100
0100
FFFC
ENDCHAR
STARTCHAR 2F64
ENCODING 12132
SWIDTH 1000 0
DWIDTH 16 0
BBX 13 13 1 -1
BITMAP
3FF8
2308
2308
3FF8
2308
2308
2308
3FF8
2308
6308
4308
4308
C078
ENDCHAR
STARTCHAR 2F65
ENCODING 12133
SWIDTH 1000 0
DWIDTH 16 0
BBX 12 13 2 -1
BITMAP
FFF0
8610
8610
8610
8610
FFF0
8610
8610
8610
8610
8610
FFF0
8010
ENDCHAR
STARTCHAR 2F66
ENCODING 12134
SWIDTH 1000 0
DWIDTH 16 0
BBX 14 12 1 -1
BITMAP
7FF8
0308
0310
0310
1300
13F8
3300
3300
3300
6B00
4F00
C3FC
ENDCHAR
STARTCHAR 2F67
ENCODING 12135
SWIDTH 1000 0
DWIDTH 16 0
BBX 14 14 1 -1
BITMAP
0080
0080
3FFC
2000
A000
6000
2000
2000
E000
A000
2000
2000
6000
4000
ENDCHAR
STARTCHAR 2F68
ENCODING 12136
SWIDTH 1000 0
DWIDTH 16 0
BBX 14 8 1 3
BITMAP
3F00
0330
46C0
344C
1870
1830
301C
C004
ENDCHAR
STARTCHAR 2F69
ENCODING 12137
SWIDTH 1000 0
DWIDTH 16 0
BBX 10 14 3 0
BITMAP
0800
0800
FFC0
8040
8040
8040
8040
FFC0
8040
8040
8040
8040
FFC0
8040
ENDCHAR
STARTCHAR 2F6A
ENCODING 12138
SWIDTH 1000 0
DWIDTH 16 0
BBX 14 14 1 -1
BITMAP
0100
0100
3FFC
2108
2118
2100
3FF0
2420
2420
2240
6180
43C0
4638
9808
ENDCHAR
STARTCHAR 2F6B
ENCODING 12139
SWIDTH 1000 0
DWIDTH 16 0
BBX 14 11 1 0
BITMAP
7FF8
6498
6498
6498
6498
6498
6498
6498
6498
6498
FFFC
ENDCHAR
STARTCHAR 2F6C
ENCODING 12140
SWIDTH 1000 0
DWIDTH 16 0
BBX 10 13 3 -1
BITMAP
FFC0
8040
8040
8040
FFC0
8040
8040
FFC0
8040
8040
8040
FFC0
8040
ENDCHAR
STARTCHAR 2F6D
ENCODING 12141
SWIDTH 1000 0
DWIDTH 16 0
BBX 14 14 1 -1
BITMAP
3FF0
0060
08C0
0F80
0300
0180
FFFC
0718
0530
0960
3100
6100
8100
0F00
ENDCHAR
STARTCHAR 2F6E
ENCODING 12142
SWIDTH 1000 0
DWIDTH 16 0
BBX 14 14 1 -1
BITMAP
1800
1000
3FF8
2300
6300
0300
FFFC
0300
0280
06C0
0C60
1830
700C
4000
ENDCHAR
STARTCHAR 2F6F
ENCODING 12143
SWIDTH 1000 0
DWIDTH 16 0
BBX 14 13 1 -1
BITMAP
7FFC
0400
0400
0800
0800
1FF8
3808
7808
D808
1808
1808
1FF8
1808
ENDCHAR
STARTCHAR 2F70
ENCODING 12144
SWIDTH 1000 0
DWIDTH 16 0
BBX 14 13 1 -1
BITMAP
3FF0
0000
0000
0000
FFFC
0300
1320
1330
3310
6308
C30C
0300
0F00
ENDCHAR
STARTCHAR 2F71
ENCODING 12145
SWIDTH 1000 0
DWIDTH 16 0
BBX 12 14 2 0
BITMAP
0400
0400
0400
FFF0
8410
8810
8910
8910
8890
97D0
B850
8010
8010
80F0
ENDCHAR
STARTCHAR 2F72
ENCODING 12146
SWIDTH 1000 0
DWIDTH 16 0
BBX 14 14 1 -1
BITMAP
0070
3FC0
6300
0300
0300
FFFC
0780
0780
0B40
1B60
3330
631C
C304
0300
ENDCHAR
STARTCHAR 2F73
ENCODING 12147
SWIDTH 1000 0
DWIDTH 16 0
BBX 12 13 2 -1
BITMAP
0600
0600
FFF0
8010
8010
9990
1080
1080
10C0
2040
6020
C030
8010
ENDCHAR
STARTCHAR 2F74
ENCODING 12148
SWIDTH 1000 0
DWIDTH 16 0
BBX 14 13 1 0
BITMAP
0300
0300
0300
7FF8
0000
1020
1020
1060
1840
0840
08C0
0080
FFFC
ENDCHAR
STARTCHAR 2F75
ENCODING 12149
SWIDTH 1000 0
DWIDTH 16 0
BBX 14 14 1 -1
BITMAP
3040
20C0
2080
7EFC
51B0
D130
9230
1030
1030
1030
1030
1030
1030
10E0
ENDCHAR
STARTCHAR 2F76
ENCODING 12150
SWIDTH 1000 0
DWIDTH 16 0
BBX 14 14 1 -1
BITMAP
0300
2310
2310
1320
1360
0300
FFFC
0300
0780
0B40
1B30
3318
C30C
0300
ENDCHAR
STARTCHAR 2F77
ENCODING 12151
SWIDTH 1000 0
DWIDTH 16 0
BBX 14 14 1 -1
BITMAP
0300
0200
2460
3840
0880
0530
0618
FFFC
0200
1260
1230
2218
620C
4200
ENDCHAR
STARTCHAR 2F78
ENCODING 12152
SWIDTH 1000 0
DWIDTH 16 0
BBX 14 14 1 -1
BITMAP
1800
1000
3FF0
2300
6300
4300
FFFC
0300
2310
2310
2310
2310
3FF0
2010
ENDCHAR
STARTCHAR 2F79
ENCODING 12153
SWIDTH 1000 0
DWIDTH 16 0
BBX 12 13 2 -1
BITMAP
FFF0
8010
8850
88D0
AA90
B990
9890
9DD0
9570
A310
E610
8010
80F0
ENDCHAR
STARTCHAR 2F7A
ENCODING 12154
SWIDTH 1000 0
DWIDTH 16 0
BBX 14 14 1 -1
BITMAP
1860
0840
0CC0
7FF8
0300
0300
7FF8
0300
0300
FFFC
0300
0300
0300
0300
ENDCHAR
STARTCHAR 2F7B
ENCODING 12155
SWIDTH 1000 0
DWIDTH 16 0
BBX 13 13 1 -1
BITMAP
FFF8
0608
4788
26C8
3668
0608
0E38
3668
67C8
C608
0608
0608
3C78
ENDCHAR
STARTCHAR 2F7C
ENCODING 12156
SWIDTH 1000 0
DWIDTH 16 0
BBX 14 13 1 0
BITMAP
0200
0218
3FD0
0220
0240
FFFC
0300
0400
1CF0
6F80
8C08
0C08
07F8
ENDCHAR
STARTCHAR 2F7D
ENCODING 12157
SWIDTH 1000 0
DWIDTH 16 0
BBX 14 13 1 -1
BITMAP
FFFC
0200
0200
7FF8
4488
4488
4488
4488
4488
4488
4488
44B8
4000
ENDCHAR
STARTCHAR 2F7E
ENCODING 12158
SWIDTH 1000 0
DWIDTH 16 0
BBX 14 14 1 -1
BITMAP
0300
07F8
7B00
0300
3FF0
0300
0300
FFFC
0780
0FC0
1B60
3338
E30C
8300
ENDCHAR
STARTCHAR 2F7F
ENCODING 12159
SWIDTH 1000 0
DWIDTH 16 0
BBX 14 13 1 -1
BITMAP
FFFC
1020
1020
1FE0
1020
1020
1FE0
1020
1020
13FC
FC20
0020
0020
ENDCHAR
STARTCHAR 2F80
ENCODING 12160
SWIDTH 1000 0
DWIDTH 16 0
BBX 14 15 1 -1
BITMAP
0300
0300
3FF0
0310
0310
FFFC
0310
3FF0
0300
7FF8
0300
FFFC
0300
0300
0300
ENDCHAR
STARTCHAR 2F81
ENCODING 12161
SWIDTH 1000 0
DWIDTH 16 0
BBX 12 14 2 -1
BITMAP
0600
0600
FFF0
8410
8610
8990
B470
A410
8610
8990
B0D0
A010
8010
80F0
ENDCHAR
STARTCHAR 2F82
ENCODING 12162
SWIDTH 1000 0
DWIDTH 16 0
BBX 13 13 2 -1
BITMAP
FFF0
8600
8600
8600
FFE0
8020
8020
FFE0
8620
8600
8600
FFF8
8000
ENDCHAR
STARTCHAR 2F83
ENCODING 12163
SWIDTH 1000 0
DWIDTH 16 0
BBX 10 14 3 -1
BITMAP
0800
0800
FFC0
8040
8040
FFC0
8040
8040
8040
FFC0
8040
8040
FFC0
8040
ENDCHAR
STARTCHAR 2F84
ENCODING 12164
SWIDTH 1000 0
DWIDTH 16 0
BBX 14 12 1 0
BITMAP
7FF8
0400
0C40
0820
3FF0
7C18
0300
0300
7FF8
0300
0300
FFFC
ENDCHAR
STARTCHAR 2F85
ENCODING 12165
SWIDTH 1000 0
DWIDTH 16 0
BBX 12 13 2 -1
BITMAP
1800
F3F0
8010
8010
8010
8010
FBF0
8010
8010
8010
8010
FFF0
8010
ENDCHAR
STARTCHAR 2F86
ENCODING 12166
SWIDTH 1000 0
DWIDTH 16 0
BBX 14 13 1 -1
BITMAP
03F0
7F00
0300
0300
FFFC
0300
0300
3FF0
2010
2010
2010
3FF0
2010
ENDCHAR
STARTCHAR 2F87
ENCODING 12167
SWIDTH 1000 0
DWIDTH 16 0
BBX 14 13 1 -1
BITMAP
1010
3010
3E10
25FC
6410
6490
F590
9910
09FC
1910
1010
2010
6010
ENDCHAR
STARTCHAR 2F88
ENCODING 12168
SWIDTH 1000 0
DWIDTH 16 0
BBX 14 14 1 -2
BITMAP
0300
0200
1FF0
1030
1230
1130
1130
FFFC
1030
1330
1330
3330
2330
60F0
ENDCHAR
STARTCHAR 2F89
ENCODING 12169
SWIDTH 1000 0
DWIDTH 16 0
BBX 13 13 2 -1
BITMAP
7FE0
4020
7FE0
4020
4020
7FE0
4610
4230
4340
4180
4EC0
F838
8000
ENDCHAR
STARTCHAR 2F8A
ENCODING 12170
SWIDTH 1000 0
DWIDTH 16 0
BBX 14 14 1 -1
BITMAP
0800
1FC0
1080
2180
7FF8
E118
2118
2118
3FF8
2018
2000
2004
2004
3FF8
ENDCHAR
STARTCHAR 2F8B
ENCODING 12171
SWIDTH 1000 0
DWIDTH 16 0
BBX 14 14 1 -1
BITMAP
1020
1020
D5AC
D5AC
D5AC
D5AC
D5AC
D5AC
FDFC
D5AC
1020
2020
6020
4020
ENDCHAR
STARTCHAR 2F8C
ENCODING 12172
SWIDTH 1000 0
DWIDTH 16 0
BBX 14 13 1 -1
BITMAP
0300
0300
03F0
0300
3FFC
2008
2218
2200
2FF8
6200
620C
4208
C3F8
ENDCHAR
STARTCHAR 2F8D
ENCODING 12173
SWIDTH 1000 0
DWIDTH 16 0
BBX 14 13 1 -1
BITMAP
0300
0300
0300
7FF8
6318
6318
6318
7FF8
6300
0330
0310
03F8
FFCC
ENDCHAR
STARTCHAR 2F8E
ENCODING 12174
SWIDTH 1000 0
DWIDTH 16 0
BBX 14 13 1 0
BITMAP
0200
0200
0600
7FF8
6498
6498
6498
6498
6498
6498
6498
6498
FFFC
ENDCHAR
STARTCHAR 2F8F
ENCODING 12175
SWIDTH 1000 0
DWIDTH 16 0
BBX 14 14 1 -1
BITMAP
1000
13F8
2000
C000
1800
17FC
3020
7020
F020
3020
3020
3020
3020
31E0
ENDCHAR
STARTCHAR 2F90
ENCODING 12176
SWIDTH 1000 0
DWIDTH 16 0
BBX 14 14 1 -1
BITMAP
0300
0300
0300
FFFC
0700
0508
0890
18E0
28C0
C840
8820
0B98
1E0C
7004
ENDCHAR
STARTCHAR 2F91
ENCODING 12177
SWIDTH 1000 0
DWIDTH 16 0
BBX 14 12 1 -1
BITMAP
FFFC
0480
0480
7FF8
4488
4488
4488
4488
4788
4488
4008
4008
ENDCHAR
STARTCHAR 2F92
ENCODING 12178
SWIDTH 1000 0
DWIDTH 16 0
BBX 14 14 1 -1
BITMAP
3FF0
2010
2010
3FF0
2010
3FF0
2010
2010
3FF0
0480
0C80
088C
188C
E0F8
ENDCHAR
STARTCHAR 2F93
ENCODING 12179
SWIDTH 1000 0
DWIDTH 16 0
BBX 12 14 1 -1
BITMAP
0800
1FC0
1080
7FF0
E110
2110
3FF0
2110
2110
3FF0
2010
2010
6010
C0F0
ENDCHAR
STARTCHAR 2F94
ENCODING 12180
SWIDTH 1000 0
DWIDTH 16 0
BBX 14 13 1 -1
BITMAP
3FF0
0000
FFFC
0000
3FF0
0000
3FF0
0000
3FF0
2010
2010
3FF0
2010
ENDCHAR
STARTCHAR 2F95
ENCODING 12181
SWIDTH 1000 0
DWIDTH 16 0
BBX 14 14 1 -1
BITMAP
0840
1860
3030
6318
4780
0CC0
1860
3018
FFFC
3030
3030
3030
3FF0
3030
ENDCHAR
STARTCHAR 2F96
ENCODING 12182
SWIDTH 1000 0
DWIDTH 16 0
BBX 14 12 1 0
BITMAP
7FF8
0000
0000
3FF0
2010
2010
3FF0
0040
0840
0840
0880
FFFC
ENDCHAR
STARTCHAR 2F97
ENCODING 12183
SWIDTH 1000 0
DWIDTH 16 0
BBX 14 13 1 -1
BITMAP
7FF8
0700
0D80
1C98
66B0
0EE0
1B40
6320
4530
1918
318C
C100
0700
ENDCHAR
STARTCHAR 2F98
ENCODING 12184
SWIDTH 1000 0
DWIDTH 16 0
BBX 9 14 3 -1
BITMAP
0700
1C00
E480
2300
1600
1C00
E600
0D00
3300
E780
0D80
3180
E100
0700
ENDCHAR
STARTCHAR 2F99
ENCODING 12185
SWIDTH 1000 0
DWIDTH 16 0
BBX 13 14 2 -1
BITMAP
7FE0
4020
4020
7FE0
4020
4020
7FE0
4020
4020
7FE0
1080
31E0
C038
8000
ENDCHAR
STARTCHAR 2F9A
ENCODING 12186
SWIDTH 1000 0
DWIDTH 16 0
BBX 14 14 1 -1
BITMAP
0300
0300
3FF0
0300
0300
FFFC
0480
34A0
2490
2498
4C88
4888
1880
3380
ENDCHAR
STARTCHAR 2F9B
ENCODING 12187
SWIDTH 1000 0
DWIDTH 16 0
BBX 14 14 1 -2
BITMAP
0300
0300
3FF0
0300
0300
FFFC
0300
1300
3300
23F0
3300
7300
4F00
C3FC
ENDCHAR
STARTCHAR 2F9C
ENCODING 12188
SWIDTH 1000 0
DWIDTH 16 0
BBX 14 12 1 -1
BITMAP
3FF0
2010
2010
2010
3FF0
2310
1300
33F8
3300
3300
4F00
C3FC
ENDCHAR
STARTCHAR 2F9D
ENCODING 12189
SWIDTH 1000 0
DWIDTH 16 0
BBX 13 15 2 -1
BITMAP
0400
0400
3FC0
2040
2040
3FC0
2058
3FD0
2060
27C0
F9C0
0340
0C40
3040
C3C0
ENDCHAR
STARTCHAR 2F9E
ENCODING 12190
SWIDTH 1000 0
DWIDTH 16 0
BBX 14 14 1 -1
BITMAP
0300
0300
7FF8
0300
3FF0
2210
3FF0
2210
3FF0
0300
FFFC
0300
0300
0300
ENDCHAR
STARTCHAR 2F9F
ENCODING 12191
SWIDTH 1000 0
DWIDTH 16 0
BBX 14 14 1 -1
BITMAP
0300
0300
7FF8
1860
0840
0840
FFFC
0300
0300
7FF8
0300
0300
0300
0300
ENDCHAR
STARTCHAR 2FA0
ENCODING 12192
SWIDTH 1000 0
DWIDTH 16 0
BBX 14 12 1 -1
BITMAP
7FF8
6000
6000
7FF0
6000
7FFC
4C80
4C90
4CE0
4C60
4CB0
FF1C
ENDCHAR
STARTCHAR 2FA1
ENCODING 12193
SWIDTH 1000 0
DWIDTH 16 0
BBX 14 14 1 -2
BITMAP
0010
00E0
7F00
0070
3F80
0078
1F80
6300
0300
13F8
2300
3300
4F00
C3FC
ENDCHAR
STARTCHAR 2FA2
ENCODING 12194
SWIDTH 1000 0
DWIDTH 16 0
BBX 13 12 2 0
BITMAP
7FC0
4040
7FC0
0000
FFF0
8410
8410
FFF0
8000
8008
8018
FFF0
ENDCHAR
STARTCHAR 2FA3
ENCODING 12195
SWIDTH 1000 0
DWIDTH 16 0
BBX 14 13 1 -1
BITMAP
FFFC
0480
0480
7FF8
4488
4888
4898
70E8
4008
7FF8
4008
7FF8
4008
ENDCHAR
STARTCHAR 2FA4
ENCODING 12196
SWIDTH 1000 0
DWIDTH 16 0
BBX 14 14 1 -1
BITMAP
0030
7FE0
0330
3320
1360
1340
FFFC
0780
07C0
0B60
1330
631C
C308
0300
ENDCHAR
STARTCHAR 2FA5
ENCODING 12197
SWIDTH 1000 0
DWIDTH 16 0
BBX 14 12 1 0
BITMAP
3FF0
2310
2310
3FF0
2310
2310
3FF0
0300
0300
7FF8
0300
FFFC
ENDCHAR
STARTCHAR 2FA6
ENCODING 12198
SWIDTH 1000 0
DWIDTH 16 0
BBX 14 14 1 -1
BITMAP
0300
0780
0480
0860
1030
6FFC
8300
7FF8
0300
1330
1320
1B60
0300
FFFC
ENDCHAR
STARTCHAR 2FA7
ENCODING 12199
SWIDTH 1000 0
DWIDTH 16 0
BBX 14 13 1 -1
BITMAP
1FF0
1000
1FF0
1000
1FF0
1000
FFFC
1108
1130
10E0
1160
1E38
700C
ENDCHAR
STARTCHAR 2FA8
ENCODING 12200
SWIDTH 1000 0
DWIDTH 16 0
BBX 12 13 2 -1
BITMAP
F9F0
8910
F9F0
8910
F9F0
8910
8010
8010
8010
8010
8010
8090
80F0
ENDCHAR
STARTCHAR 2FA9
ENCODING 12201
SWIDTH 1000 0
DWIDTH 16 0
BBX 14 15 1 -1
BITMAP
0200
0200
3FF0
2010
2010
3FF0
2000
3FF8
2018
3FF8
0300
FFFC
0300
0300
0300
ENDCHAR
STARTCHAR 2FAA
ENCODING 12202
SWIDTH 1000 0
DWIDTH 16 0
BBX 14 15 1 -1
BITMAP
0300
0300
3FF0
0310
0310
FFFC
0310
3FF0
0300
3318
13E0
0F40
3330
E31C
0E00
ENDCHAR
STARTCHAR 2FAB
ENCODING 12203
SWIDTH 1000 0
DWIDTH 16 0
BBX 14 14 1 -1
BITMAP
18C0
1080
3080
3FFC
6100
6100
BFF8
2100
2100
3FF8
2100
2100
3FFC
2000
ENDCHAR
STARTCHAR 2FAC
ENCODING 12204
SWIDTH 1000 0
DWIDTH 16 0
BBX 14 13 1 -1
BITMAP
FFFC
0300
0300
7FF8
4308
53C8
4B68
4308
53C8
4F68
4308
4308
4338
ENDCHAR
STARTCHAR 2FAD
ENCODING 12205
SWIDTH 1000 0
DWIDTH 16 0
BBX 14 15 1 -1
BITMAP
0300
0300
7FF8
0300
7FF8
0300
FFFC
0000
3FF0
2310
2310
3FF0
2010
2010
20F0
ENDCHAR
STARTCHAR 2FAE
ENCODING 12206
SWIDTH 1000 0
DWIDTH 16 0
BBX 14 14 1 -1
BITMAP
0080
0480
0480
FCFC
0480
0480
7CF8
0480
0480
7EFC
C880
1880
3080
6080
ENDCHAR
STARTCHAR 2FAF
ENCODING 12207
SWIDTH 1000 0
DWIDTH 16 0
BBX 14 13 1 -1
BITMAP
FFFC
0200
0200
7FF8
4C88
4C88
4F88
4C88
4F88
4C88
4C88
7FF8
4008
ENDCHAR
STARTCHAR 2FB0
ENCODING 12208
SWIDTH 1000 0
DWIDTH 16 0
BBX 14 16 1 -2
BITMAP
0840
0840
FFFC
0840
0840
0FC0
0300
3FF0
2310
3FF0
0300
0300
FFFC
0300
0300
0300
ENDCHAR
STARTCHAR 2FB1
ENCODING 12209
SWIDTH 1000 0
DWIDTH 16 0
BBX 14 14 1 0
BITMAP
0200
3FE0
0420
FFFC
0000
3FF0
3030
3FF0
0100
3FF8
3100
FFFC
0100
0100
ENDCHAR
STARTCHAR 2FB2
ENCODING 12210
SWIDTH 1000 0
DWIDTH 16 0
BBX 14 14 1 -1
BITMAP
0480
0480
0480
FCFC
0480
0480
7CF8
0480
0480
7CF8
0480
0480
0480
FFFC
ENDCHAR
STARTCHAR 2FB3
ENCODING 12211
SWIDTH 1000 0
DWIDTH 16 0
BBX 14 14 1 -1
BITMAP
0300
0300
7FF8
0840
0840
FFFC
0000
3FF0
2010
2010
3FF0
2010
3FF0
2010
ENDCHAR
STARTCHAR 2FB4
ENCODING 12212
SWIDTH 1000 0
DWIDTH 16 0
BBX 13 14 1 -1
BITMAP
7FF8
0200
0200
3FF0
2010
3FF0
2010
2010
3FF0
2010
3FF0
08C0
3038
E008
ENDCHAR
STARTCHAR 2FB5
ENCODING 12213
SWIDTH 1000 0
DWIDTH 16 0
BBX 14 13 1 -1
BITMAP
7FF0
6010
7FD0
6210
6FD0
6A50
6A50
4FD0
4A10
425C
42CC
DF2C
8024
ENDCHAR
STARTCHAR 2FB6
ENCODING 12214
SWIDTH 1000 0
DWIDTH 16 0
BBX 14 13 1 -2
BITMAP
7FC0
0250
1E70
F268
1224
1218
FFC0
1258
1270
1228
2224
2214
420C
ENDCHAR
STARTCHAR 2FB7
ENCODING 12215
SWIDTH 1000 0
DWIDTH 16 0
BBX 14 14 1 -1
BITMAP
0300
0480
0B40
1330
7FFC
9024
1FE0
1020
1FE0
1310
11E0
10C0
1E38
6008
ENDCHAR
STARTCHAR 2FB8
ENCODING 12216
SWIDTH 1000 0
DWIDTH 16 0
BBX 14 15 1 -1
BITMAP
0040
0840
08C0
FFFC
0200
0200
3FF0
2010
3FF0
2010
2010
3FF0
2010
3FF0
2010
ENDCHAR
STARTCHAR 2FB9
ENCODING 12217
SWIDTH 1000 0
DWIDTH 16 0
BBX 14 14 1 -1
BITMAP
03F0
3F00
0300
FFFC
0780
0B40
3330
E30C
BFF0
2010
3FF0
2010
3FF0
2010
ENDCHAR
STARTCHAR 2FBA
ENCODING 12218
SWIDTH 1000 0
DWIDTH 16 0
BBX 14 14 1 -1
BITMAP
3FF8
2100
2100
3FF0
2100
3FF0
2100
2100
3FFC
004C
6968
4928
C908
0078
ENDCHAR
STARTCHAR 2FBB
ENCODING 12219
SWIDTH 1000 0
DWIDTH 16 0
BBX 14 14 1 -1
BITMAP
1FE0
1020
1020
13E0
1220
FFFC
C00C
DFEC
1020
1FE0
1FE0
1020
1020
10E0
ENDCHAR
STARTCHAR 2FBC
ENCODING 12220
SWIDTH 1000 0
DWIDTH 16 0
BBX 14 15 1 -1
BITMAP
0300
0300
FFFC
0000
1FE0
1020
1FE0
0000
7FF8
4008
4FC8
4848
4FC8
4808
4038
ENDCHAR
STARTCHAR 2FBD
ENCODING 12221
SWIDTH 1000 0
DWIDTH 16 0
BBX 14 13 1 0
BITMAP
7F18
4030
7E60
40CC
7E18
4030
FF64
2044
2408
6218
5E30
F260
0080
ENDCHAR
STARTCHAR 2FBE
ENCODING 12222
SWIDTH 1000 0
DWIDTH 16 0
BBX 12 14 2 -1
BITMAP
8010
FFF0
9090
F9F0
9090
FFF0
8010
8010
8010
8010
8010
8010
8010
8070
ENDCHAR
STARTCHAR 2FBF
ENCODING 12223
SWIDTH 1000 0
DWIDTH 16 0
BBX 12 14 2 -1
BITMAP
8010
B690
9910
B650
8D90
B4D0
8210
FFF0
0000
41E0
7F00
4010
4010
7FF0
ENDCHAR
STARTCHAR 2FC0
ENCODING 12224
SWIDTH 1000 0
DWIDTH 16 0
BBX 14 14 1 -1
BITMAP
FFFC
0000
1FE0
1020
1020
1FE0
7FF8
4488
48F8
7008
4FE8
4208
4208
4238
ENDCHAR
STARTCHAR 2FC1
ENCODING 12225
SWIDTH 1000 0
DWIDTH 16 0
BBX 14 14 1 -1
BITMAP
0200
0600
3FF0
2310
3FF0
2310
2310
3FF0
0D20
0D30
0948
197C
3104
C1FC
ENDCHAR
STARTCHAR 2FC2
ENCODING 12226
SWIDTH 1000 0
DWIDTH 16 0
BBX 14 14 1 -1
BITMAP
0800
1FC0
1080
7FF0
E110
2110
3FF0
2110
2110
3FF0
0000
2498
4488
C4C4
ENDCHAR
STARTCHAR 2FC3
ENCODING 12227
SWIDTH 1000 0
DWIDTH 16 0
BBX 14 15 1 -1
BITMAP
0200
0200
3FF0
2010
3FF0
2010
3FF0
2000
3FFC
3FFC
0048
4A48
4928
C908
8878
ENDCHAR
STARTCHAR 2FC4
ENCODING 12228
SWIDTH 1000 0
DWIDTH 16 0
BBX 12 14 2 -1
BITMAP
0400
07F0
0400
FFF0
8450
A490
9910
E650
A770
9990
B650
8210
FFF0
8010
ENDCHAR
STARTCHAR 2FC5
ENCODING 12229
SWIDTH 1000 0
DWIDTH 16 0
BBX 14 15 1 -1
BITMAP
0100
0100
7FF8
4480
4480
7FF8
4488
4488
7FF8
4880
4FF8
4880
4884
BEFC
8000
ENDCHAR
STARTCHAR 2FC6
ENCODING 12230
SWIDTH 1000 0
DWIDTH 16 0
BBX 14 15 1 -1
BITMAP
0300
0300
FFFC
1320
1320
3370
4F88
0B60
1230
67EC
8844
3680
03C0
0E70
7818
ENDCHAR
STARTCHAR 2FC7
ENCODING 12231
SWIDTH 1000 0
DWIDTH 16 0
BBX 14 14 1 -1
BITMAP
0100
0100
7FFC
4000
4420
4420
7FFC
4C20
4E70
5778
54A8
E5A4
A524
8420
ENDCHAR
STARTCHAR 2FC8
ENCODING 12232
SWIDTH 1000 0
DWIDTH 16 0
BBX 14 14 1 -1
BITMAP
0840
7FF8
0840
0FC0
0000
FFFC
3FF0
2210
3FF0
2210
3FF0
0840
7038
4000
ENDCHAR
STARTCHAR 2FC9
ENCODING 12233
SWIDTH 1000 0
DWIDTH 16 0
BBX 14 14 1 -1
BITMAP
0020
7FE0
0300
FFFC
0780
1B60
731C
84C0
1B70
631C
8B60
0FC0
3B38
6E08
ENDCHAR
STARTCHAR 2FCA
ENCODING 12234
SWIDTH 1000 0
DWIDTH 16 0
BBX 14 14 1 -1
BITMAP
3FF0
2310
2310
3FF0
2310
3FF0
0300
7FF8
0300
FFFC
0090
2498
44CC
4400
ENDCHAR
STARTCHAR 2FCB
ENCODING 12235
SWIDTH 1000 0
DWIDTH 16 0
BBX 14 14 1 -1
BITMAP
2490
3490
14A0
FFFC
1A60
621C
BFFC
2218
2A58
2A58
2A58
2A58
3A18
2270
ENDCHAR
STARTCHAR 2FCC
ENCODING 12236
SWIDTH 1000 0
DWIDTH 16 0
BBX 13 14 2 -1
BITMAP
FFF0
8910
8910
F9F0
0900
F9F0
8910
8910
F9F0
8910
F9F0
8908
0808
0FF8
ENDCHAR
STARTCHAR 2FCD
ENCODING 12237
SWIDTH 1000 0
DWIDTH 16 0
BBX 14 14 1 -1
BITMAP
4FC8
4848
4FC8
4848
4FC8
4848
4FC8
7CF8
0480
FCFC
2490
2490
6490
C490
ENDCHAR
STARTCHAR 2FCE
ENCODING 12238
SWIDTH 1000 0
DWIDTH 16 0
BBX 14 15 1 -1
BITMAP
1020
1020
FE20
11FC
1020
FE20
0020
7DF8
4488
7C58
4C50
6820
2A50
7C8C
8104
ENDCHAR
STARTCHAR 2FCF
ENCODING 12239
SWIDTH 1000 0
DWIDTH 16 0
BBX 14 14 1 -1
BITMAP
0400
7CF8
4008
7CF8
4008
7FF8
0000
3BD0
2770
3390
2FD0
233C
3F6C
E78C
ENDCHAR
STARTCHAR 2FD0
ENCODING 12240
SWIDTH 1000 0
DWIDTH 16 0
BBX 14 15 1 -2
BITMAP
0200
3FF0
3FF0
3FF0
2010
3FF0
7FF8
4208
7FF8
7FF8
0840
FFFC
0840
3040
4000
ENDCHAR
STARTCHAR 2FD1
ENCODING 12241
SWIDTH 1000 0
DWIDTH 16 0
BBX 14 15 1 -2
BITMAP
0300
0300
FFFC
FCF8
2B50
4B68
DB44
3010
3FF0
3010
2010
3FF0
2010
6010
4010
ENDCHAR
STARTCHAR 2FD2
ENCODING 12242
SWIDTH 1000 0
DWIDTH 16 0
BBX 14 14 1 -1
BITMAP
0300
13F0
1300
FFFC
0440
4888
4EE8
5128
7FF8
4448
4CC8
5128
7FF8
4008
ENDCHAR
STARTCHAR 2FD3
ENCODING 12243
SWIDTH 1000 0
DWIDTH 16 0
BBX 14 16 1 -2
BITMAP
1080
1080
FEFC
4480
28F8
FE08
00F8
7C80
44F8
7C80
44F8
7C80
44F8
4484
4CFC
4000
ENDCHAR
STARTCHAR 2FD4
ENCODING 12244
SWIDTH 1000 0
DWIDTH 16 0
BBX 14 15 1 -1
BITMAP
0800
1FC0
3080
7FF8
E288
3EF8
7A80
FFFC
0AD4
7AB4
7AD4
FFFC
0A80
7A84
03FC
ENDCHAR
STARTCHAR 2FD5
ENCODING 12245
SWIDTH 1000 0
DWIDTH 16 0
BBX 13 14 2 -1
BITMAP
0600
0980
30C0
DFB8
EF70
A950
EF70
0000
FFF0
8910
FFF0
8910
8910
8970
ENDCHAR
STARTCHAR 2FF0
ENCODING 12272
SWIDTH 1000 0
DWIDTH 16 0
BBX 0 0 2 0
BITMAP
ENDCHAR
STARTCHAR 2FF1
ENCODING 12273
SWIDTH 1000 0
DWIDTH 16 0
BBX 0 0 2 0
BITMAP
ENDCHAR
STARTCHAR 2FF2
ENCODING 12274
SWIDTH 1000 0
DWIDTH 16 0
BBX 0 0 2 0
BITMAP
ENDCHAR
STARTCHAR 2FF3
ENCODING 12275
SWIDTH 1000 0
DWIDTH 16 0
BBX 0 0 2 0
BITMAP
ENDCHAR
STARTCHAR 2FF4
ENCODING 12276
SWIDTH 1000 0
DWIDTH 16 0
BBX 10 10 2 1
BITMAP
8000
0000
8040
0000
8040
8040
0000
8040
0000
8000
ENDCHAR
STARTCHAR 2FF5
ENCODING 12277
SWIDTH 1000 0
DWIDTH 16 0
BBX 6 9 5 3
BITMAP
84
00
84
00
84
00
84
04
80
ENDCHAR
STARTCHAR 2FF6
ENCODING 12278
SWIDTH 1000 0
DWIDTH 16 0
BBX 6 9 5 0
BITMAP
84
84
84
84
84
00
84
00
84
ENDCHAR
STARTCHAR 2FF7
ENCODING 12279
SWIDTH 1000 0
DWIDTH 16 0
BBX 1 6 5 3
BITMAP
80
80
80
80
80
80
ENDCHAR
STARTCHAR 2FF8
ENCODING 12280
SWIDTH 1000 0
DWIDTH 16 0
BBX 1 9 5 3
BITMAP
80
80
80
00
80
00
80
80
80
ENDCHAR
STARTCHAR 2FF9
ENCODING 12281
SWIDTH 1000 0
DWIDTH 16 0
BBX 1 9 10 3
BITMAP
80
80
80
00
80
00
80
00
80
ENDCHAR
STARTCHAR 2FFA
ENCODING 12282
SWIDTH 1000 0
DWIDTH 16 0
BBX 4 11 2 0
BITMAP
10
90
10
80
10
80
10
80
10
00
80
ENDCHAR
STARTCHAR 2FFB
ENCODING 12283
SWIDTH 1000 0
DWIDTH 16 0
BBX 12 12 2 0
BITMAP
8000
8000
0000
0010
8000
0010
8000
0010
8000
0000
0010
0010
ENDCHAR
STARTCHAR 3000
ENCODING 12288
SWIDTH 1000 0
DWIDTH 16 0
BBX 0 0 0 0
BITMAP
ENDCHAR
STARTCHAR 3001
ENCODING 12289
SWIDTH 1000 0
DWIDTH 16 0
BBX 3 4 1 -1
BITMAP
80
C0
60
20
ENDCHAR
STARTCHAR 3002
ENCODING 12290
SWIDTH 1000 0
DWIDTH 16 0
BBX 4 4 1 -1
BITMAP
E0
90
90
E0
ENDCHAR
STARTCHAR 3003
ENCODING 12291
SWIDTH 1000 0
DWIDTH 16 0
BBX 7 7 4 3
BITMAP
32
36
24
64
4C
48
88
ENDCHAR
STARTCHAR 3004
ENCODING 12292
SWIDTH 1000 0
DWIDTH 16 0
BBX 14 14 1 -1
BITMAP
1E60
2050
4048
8044
8044
8184
8204
8204
8E04
9004
9008
4808
2410
1DE0
ENDCHAR
STARTCHAR 3005
ENCODING 12293
SWIDTH 1000 0
DWIDTH 16 0
BBX 10 9 3 1
BITMAP
1800
1000
3FC0
2080
6180
C100
9A00
0400
0200
ENDCHAR
STARTCHAR 3006
ENCODING 12294
SWIDTH 1000 0
DWIDTH 16 0
BBX 11 12 2 0
BITMAP
0020
0020
0040
1880
3780
2300
6780
4C80
5800
F000
E000
C000
ENDCHAR
STARTCHAR 3007
ENCODING 12295
SWIDTH 1000 0
DWIDTH 16 0
BBX 14 14 1 -1
BITMAP
0780
1860
2010
4018
4008
C008
C004
C004
4008
4008
6008
2010
1860
0780
ENDCHAR
STARTCHAR 3008
ENCODING 12296
SWIDTH 1000 0
DWIDTH 16 0
BBX 6 14 9 -1
BITMAP
0C
18
10
20
60
40
80
80
40
60
30
10
08
0C
ENDCHAR
STARTCHAR 3009
ENCODING 12297
SWIDTH 1000 0
DWIDTH 16 0
BBX 6 14 1 -1
BITMAP
C0
60
20
10
18
08
04
04
08
18
10
20
40
C0
ENDCHAR
STARTCHAR 300A
ENCODING 12298
SWIDTH 1000 0
DWIDTH 16 0
BBX 6 14 9 -1
BITMAP
14
24
28
50
50
A0
A0
A0
A0
50
48
28
24
14
ENDCHAR
STARTCHAR 300B
ENCODING 12299
SWIDTH 1000 0
DWIDTH 16 0
BBX 6 14 1 -1
BITMAP
A0
90
50
28
28
14
14
14
14
28
48
50
90
A0
ENDCHAR
STARTCHAR 300C
ENCODING 12300
SWIDTH 1000 0
DWIDTH 16 0
BBX 5 11 10 2
BITMAP
F8
80
80
80
80
80
80
80
80
80
80
ENDCHAR
STARTCHAR 300D
ENCODING 12301
SWIDTH 1000 0
DWIDTH 16 0
BBX 5 12 1 -1
BITMAP
08
08
08
08
08
08
08
08
08
08
08
F8
ENDCHAR
STARTCHAR 300E
ENCODING 12302
SWIDTH 1000 0
DWIDTH 16 0
BBX 6 11 9 2
BITMAP
FC
84
BC
A0
A0
A0
A0
A0
A0
A0
E0
ENDCHAR
STARTCHAR 300F
ENCODING 12303
SWIDTH 1000 0
DWIDTH 16 0
BBX 6 12 1 -1
BITMAP
1C
14
14
14
14
14
14
14
14
F4
84
FC
ENDCHAR
STARTCHAR 3010
ENCODING 12304
SWIDTH 1000 0
DWIDTH 16 0
BBX 3 14 11 -1
BITMAP
E0
E0
C0
C0
80
80
80
80
80
80
C0
C0
E0
E0
ENDCHAR
STARTCHAR 3011
ENCODING 12305
SWIDTH 1000 0
DWIDTH 16 0
BBX 3 14 2 -1
BITMAP
E0
E0
60
60
20
20
20
20
20
20
60
60
E0
E0
ENDCHAR
STARTCHAR 3012
ENCODING 12306
SWIDTH 1000 0
DWIDTH 16 0
BBX 12 13 2 -1
BITMAP
FFF0
FFF0
0000
0000
FFF0
FFF0
0600
0600
0600
0600
0600
0600
0600
ENDCHAR
STARTCHAR 3013
ENCODING 12307
SWIDTH 1000 0
DWIDTH 16 0
BBX 12 7 2 3
BITMAP
FFF0
FFF0
FFF0
0000
0000
FFF0
FFF0
ENDCHAR
STARTCHAR 3014
ENCODING 12308
SWIDTH 1000 0
DWIDTH 16 0
BBX 4 14 11 -1
BITMAP
30
C0
80
80
80
80
80
80
80
80
80
80
E0
30
ENDCHAR
STARTCHAR 3015
ENCODING 12309
SWIDTH 1000 0
DWIDTH 16 0
BBX 4 14 1 -1
BITMAP
C0
30
10
10
10
10
10
10
10
10
10
10
70
C0
ENDCHAR
STARTCHAR 3016
ENCODING 12310
SWIDTH 1000 0
DWIDTH 16 0
BBX 5 14 10 -1
BITMAP
F8
90
A0
A0
A0
C0
C0
C0
C0
A0
A0
A0
90
F0
ENDCHAR
STARTCHAR 3017
ENCODING 12311
SWIDTH 1000 0
DWIDTH 16 0
BBX 4 14 2 -1
BITMAP
F0
90
50
50
50
30
30
30
30
50
50
50
90
F0
ENDCHAR
STARTCHAR 3018
ENCODING 12312
SWIDTH 1000 0
DWIDTH 16 0
BBX 5 14 10 -1
BITMAP
18
E8
88
B0
A0
A0
A0
A0
A0
A0
B0
88
68
18
ENDCHAR
STARTCHAR 3019
ENCODING 12313
SWIDTH 1000 0
DWIDTH 16 0
BBX 5 14 1 -1
BITMAP
C0
B8
88
68
28
28
28
28
28
28
68
88
B0
C0
ENDCHAR
STARTCHAR 301C
ENCODING 12316
SWIDTH 1000 0
DWIDTH 16 0
BBX 12 4 2 4
BITMAP
7800
8C10
0310
01E0
ENDCHAR
STARTCHAR 301D
ENCODING 12317
SWIDTH 1000 0
DWIDTH 16 0
BBX 4 6 11 7
BITMAP
C0
60
10
C0
60
30
ENDCHAR
STARTCHAR 301F
ENCODING 12319
SWIDTH 1000 0
DWIDTH 16 0
BBX 4 6 1 -1
BITMAP
C0
60
10
C0
60
10
ENDCHAR
STARTCHAR 3020
ENCODING 12320
SWIDTH 1000 0
DWIDTH 16 0
BBX 14 10 1 1
BITMAP
7FF8
0000
7FF8
1320
3B74
9324
8308
4848
37B0
0FC0
ENDCHAR
STARTCHAR 3033
ENCODING 12339
SWIDTH 1000 0
DWIDTH 16 0
BBX 7 14 4 -2
BITMAP
06
04
0C
0C
08
18
10
30
20
60
40
C0
80
80
ENDCHAR
STARTCHAR 3034
ENCODING 12340
SWIDTH 1000 0
DWIDTH 16 0
BBX 9 14 4 -2
BITMAP
0600
0400
0C00
0C00
0800
1800
1180
3280
2300
6000
4000
C000
8000
8000
ENDCHAR
STARTCHAR 3035
ENCODING 12341
SWIDTH 1000 0
DWIDTH 16 0
BBX 7 14 4 -1
BITMAP
80
80
C0
60
20
30
10
18
18
0C
0C
06
06
02
ENDCHAR
STARTCHAR 3036
ENCODING 12342
SWIDTH 1000 0
DWIDTH 16 0
BBX 16 15 0 -1
BITMAP
07E0
1818
300C
2004
5FFA
8002
8002
9FF9
8182
8182
4182
2184
318C
1818
07E0
ENDCHAR
STARTCHAR 303B
ENCODING 12347
SWIDTH 1000 0
DWIDTH 16 0
BBX 6 10 5 1
BITMAP
40
20
18
78
40
40
20
18
3C
C0
ENDCHAR
STARTCHAR 303C
ENCODING 12348
SWIDTH 1000 0
DWIDTH 16 0
BBX 14 14 1 -1
BITMAP
FFFC
801C
8034
8024
8044
8084
8104
8204
8404
8804
9004
B004
E004
FFFC
ENDCHAR
STARTCHAR 303D
ENCODING 12349
SWIDTH 1000 0
DWIDTH 16 0
BBX 13 14 2 -1
BITMAP
E000
A600
1B00
1900
0100
0180
0080
0080
00C0
0040
0060
0020
0030
0018
ENDCHAR
STARTCHAR 3041
ENCODING 12353
SWIDTH 1000 0
DWIDTH 16 0
BBX 10 11 3 -1
BITMAP
1000
1100
7E00
1200
1F80
34C0
5440
9840
90C0
F180
0200
ENDCHAR
STARTCHAR 3042
ENCODING 12354
SWIDTH 1000 0
DWIDTH 16 0
BBX 12 13 2 -1
BITMAP
0800
0BC0
FE00
0900
0B80
1D60
3B30
5A10
8C10
8C10
9830
E9E0
0100
ENDCHAR
STARTCHAR 3043
ENCODING 12355
SWIDTH 1000 0
DWIDTH 16 0
BBX 10 8 3 0
BITMAP
C100
C180
C080
40C0
4040
6840
7800
3000
ENDCHAR
STARTCHAR 3044
ENCODING 12356
SWIDTH 1000 0
DWIDTH 16 0
BBX 12 11 2 0
BITMAP
C000
C0C0
C040
C060
C030
C010
4010
4410
6C00
3C00
1800
ENDCHAR
STARTCHAR 3045
ENCODING 12357
SWIDTH 1000 0
DWIDTH 16 0
BBX 7 11 4 -1
BITMAP
38
04
00
7E
C2
02
02
02
06
1C
30
ENDCHAR
STARTCHAR 3046
ENCODING 12358
SWIDTH 1000 0
DWIDTH 16 0
BBX 9 14 3 -1
BITMAP
1000
0E00
0200
0000
1F00
E180
8080
0080
0080
0180
0100
0300
1C00
1000
ENDCHAR
STARTCHAR 3047
ENCODING 12359
SWIDTH 1000 0
DWIDTH 16 0
BBX 10 10 3 -1
BITMAP
1800
0600
0000
7E00
0600
0C00
1C00
3200
6200
C3C0
ENDCHAR
STARTCHAR 3048
ENCODING 12360
SWIDTH 1000 0
DWIDTH 16 0
BBX 12 12 2 0
BITMAP
0E00
0300
0000
0F00
7900
0200
0400
0E00
1900
2100
6100
C1F0
ENDCHAR
STARTCHAR 3049
ENCODING 12361
SWIDTH 1000 0
DWIDTH 16 0
BBX 10 10 3 0
BITMAP
1000
1100
7C80
D040
1000
1F80
70C0
90C0
9080
7780
ENDCHAR
STARTCHAR 304A
ENCODING 12362
SWIDTH 1000 0
DWIDTH 16 0
BBX 12 12 2 0
BITMAP
1000
1040
1660
F830
1010
1000
1FC0
7020
D030
9030
D060
73C0
ENDCHAR
STARTCHAR 304B
ENCODING 12363
SWIDTH 1000 0
DWIDTH 16 0
BBX 13 12 2 0
BITMAP
0800
0800
1840
7E20
D130
1110
2118
2100
6100
4100
D200
9E00
ENDCHAR
STARTCHAR 304C
ENCODING 12364
SWIDTH 1000 0
DWIDTH 16 0
BBX 13 13 2 0
BITMAP
0018
0828
0810
18D0
7E60
D120
1110
2118
2100
6100
4100
D200
9E00
ENDCHAR
STARTCHAR 304D
ENCODING 12365
SWIDTH 1000 0
DWIDTH 16 0
BBX 10 13 3 0
BITMAP
1000
1800
0F00
FC00
05C0
3F00
E200
0100
3F80
C180
8000
4000
3F00
ENDCHAR
STARTCHAR 304E
ENCODING 12366
SWIDTH 1000 0
DWIDTH 16 0
BBX 13 13 3 1
BITMAP
1050
1968
0F20
F800
05C0
3F00
E200
0100
3F80
C180
8000
C000
3F00
ENDCHAR
STARTCHAR 304F
ENCODING 12367
SWIDTH 1000 0
DWIDTH 16 0
BBX 7 13 4 -1
BITMAP
04
04
0C
18
30
60
80
C0
60
30
18
0C
06
ENDCHAR
STARTCHAR 3050
ENCODING 12368
SWIDTH 1000 0
DWIDTH 16 0
BBX 10 13 4 -1
BITMAP
0400
0C80
08C0
1140
2080
C000
8000
C000
6000
3000
1800
0C00
0600
ENDCHAR
STARTCHAR 3051
ENCODING 12369
SWIDTH 1000 0
DWIDTH 16 0
BBX 12 13 2 -1
BITMAP
4040
4040
4040
4070
CFC0
C040
C040
D040
E040
60C0
4080
4300
0200
ENDCHAR
STARTCHAR 3052
ENCODING 12370
SWIDTH 1000 0
DWIDTH 16 0
BBX 14 14 2 0
BITMAP
0038
40D4
4050
4040
C0F0
8FC0
8040
8040
A040
A0C0
C080
4180
4300
0200
ENDCHAR
STARTCHAR 3053
ENCODING 12371
SWIDTH 1000 0
DWIDTH 16 0
BBX 10 11 3 0
BITMAP
7F80
0300
0C00
0800
0000
0000
C000
8000
8000
C040
3FC0
ENDCHAR
STARTCHAR 3054
ENCODING 12372
SWIDTH 1000 0
DWIDTH 16 0
BBX 12 13 3 0
BITMAP
0030
0050
7F20
0620
0C00
0000
0000
0000
8000
8000
8000
C040
3FC0
ENDCHAR
STARTCHAR 3055
ENCODING 12373
SWIDTH 1000 0
DWIDTH 16 0
BBX 10 13 3 0
BITMAP
0800
0800
0CC0
0780
FE00
0200
0300
0180
3F80
C080
8000
4000
3F00
ENDCHAR
STARTCHAR 3056
ENCODING 12374
SWIDTH 1000 0
DWIDTH 16 0
BBX 14 13 2 1
BITMAP
0008
0C34
0450
07C0
FE00
0300
0100
0080
3FC0
4040
4000
6000
3F80
ENDCHAR
STARTCHAR 3057
ENCODING 12375
SWIDTH 1000 0
DWIDTH 16 0
BBX 10 13 4 -1
BITMAP
C000
C000
C000
C000
C000
C000
C000
C000
C0C0
C080
C180
4300
3C00
ENDCHAR
STARTCHAR 3058
ENCODING 12376
SWIDTH 1000 0
DWIDTH 16 0
BBX 10 13 4 -1
BITMAP
C180
C2C0
C100
C000
C000
C000
C000
8000
80C0
8080
C100
4200
3C00
ENDCHAR
STARTCHAR 3059
ENCODING 12377
SWIDTH 1000 0
DWIDTH 16 0
BBX 12 14 2 -1
BITMAP
0300
0300
0300
FFF0
0300
0F00
1300
1300
1300
0F00
0300
0200
0C00
1800
ENDCHAR
STARTCHAR 305A
ENCODING 12378
SWIDTH 1000 0
DWIDTH 16 0
BBX 13 15 2 -1
BITMAP
0010
0358
0328
0300
FFF0
0300
0F00
1300
1300
1300
0F00
0300
0200
0C00
1800
ENDCHAR
STARTCHAR 305B
ENCODING 12379
SWIDTH 1000 0
DWIDTH 16 0
BBX 14 12 1 0
BITMAP
0040
1040
1040
107C
FFE0
1040
1040
1040
11C0
1000
1800
0FF0
ENDCHAR
STARTCHAR 305C
ENCODING 12380
SWIDTH 1000 0
DWIDTH 16 0
BBX 14 13 1 0
BITMAP
0004
0054
1048
1040
105C
FFF0
1040
1040
1040
11C0
1000
1800
0FF0
ENDCHAR
STARTCHAR 305D
ENCODING 12381
SWIDTH 1000 0
DWIDTH 16 0
BBX 12 13 2 -1
BITMAP
1F80
3980
0300
0600
08F0
FF80
8600
0400
0C00
0800
0400
07C0
00C0
ENDCHAR
STARTCHAR 305E
ENCODING 12382
SWIDTH 1000 0
DWIDTH 16 0
BBX 14 13 2 -1
BITMAP
1F88
31AC
0310
0400
08F0
FF80
8600
0400
0800
0800
0C00
07C0
00C0
ENDCHAR
STARTCHAR 305F
ENCODING 12383
SWIDTH 1000 0
DWIDTH 16 0
BBX 12 13 2 0
BITMAP
0800
0800
1800
FE00
1000
1070
33E0
2000
2000
6000
4400
C600
81F0
ENDCHAR
STARTCHAR 3060
ENCODING 12384
SWIDTH 1000 0
DWIDTH 16 0
BBX 12 13 2 0
BITMAP
0020
0850
1860
FE20
1000
1000
33E0
2000
2000
6000
4400
C600
81F0
ENDCHAR
STARTCHAR 3061
ENCODING 12385
SWIDTH 1000 0
DWIDTH 16 0
BBX 12 13 2 0
BITMAP
0800
0800
1880
FF80
1000
1000
33C0
2C20
3030
2030
0020
00E0
0F80
ENDCHAR
STARTCHAR 3062
ENCODING 12386
SWIDTH 1000 0
DWIDTH 16 0
BBX 14 13 2 1
BITMAP
0808
082C
1890
FF80
1000
1000
33C0
2C20
3020
2030
0020
0060
0F80
ENDCHAR
STARTCHAR 3063
ENCODING 12387
SWIDTH 1000 0
DWIDTH 16 0
BBX 10 8 3 0
BITMAP
1F00
E080
8040
0040
00C0
0080
0300
1C00
ENDCHAR
STARTCHAR 3064
ENCODING 12388
SWIDTH 1000 0
DWIDTH 16 0
BBX 12 9 2 1
BITMAP
1FC0
E060
0030
0010
0010
0030
0060
01C0
1F00
ENDCHAR
STARTCHAR 3065
ENCODING 12389
SWIDTH 1000 0
DWIDTH 16 0
BBX 14 12 1 0
BITMAP
0008
0014
0008
0FE0
F830
0018
0008
0008
0018
0030
0060
0F80
ENDCHAR
STARTCHAR 3066
ENCODING 12390
SWIDTH 1000 0
DWIDTH 16 0
BBX 12 11 2 0
BITMAP
1FF0
F300
0600
0400
0800
0800
0800
0800
0C00
0600
03C0
ENDCHAR
STARTCHAR 3067
ENCODING 12391
SWIDTH 1000 0
DWIDTH 16 0
BBX 12 11 2 0
BITMAP
1FF0
F300
0630
0450
0820
0820
0800
0800
0C00
0600
03C0
ENDCHAR
STARTCHAR 3068
ENCODING 12392
SWIDTH 1000 0
DWIDTH 16 0
BBX 10 12 3 0
BITMAP
2000
3000
1000
1080
1F80
1C00
3000
4000
8000
8000
C000
3FC0
ENDCHAR
STARTCHAR 3069
ENCODING 12393
SWIDTH 1000 0
DWIDTH 16 0
BBX 12 13 3 0
BITMAP
0020
20B0
3050
1000
1080
1F80
1C00
3000
4000
8000
8000
C000
3FC0
ENDCHAR
STARTCHAR 306A
ENCODING 12394
SWIDTH 1000 0
DWIDTH 16 0
BBX 13 14 2 -1
BITMAP
0800
1800
1000
FE60
1030
2090
2080
6080
4080
C780
88E0
08B8
0880
0700
ENDCHAR
STARTCHAR 306B
ENCODING 12395
SWIDTH 1000 0
DWIDTH 16 0
BBX 12 12 2 0
BITMAP
6000
4000
47E0
4000
C000
C000
8000
A000
EC00
E400
C410
43F0
ENDCHAR
STARTCHAR 306C
ENCODING 12396
SWIDTH 1000 0
DWIDTH 16 0
BBX 14 12 1 0
BITMAP
0100
4100
63C0
2D30
3218
3208
5208
4C08
4CE8
CD18
511C
60E0
ENDCHAR
STARTCHAR 306D
ENCODING 12397
SWIDTH 1000 0
DWIDTH 16 0
BBX 14 13 1 -1
BITMAP
1800
1800
18E0
FB10
1408
1808
1008
3008
79E8
D918
191C
19E4
1800
ENDCHAR
STARTCHAR 306E
ENCODING 12398
SWIDTH 1000 0
DWIDTH 16 0
BBX 13 11 2 0
BITMAP
0F80
3260
4630
8410
8410
8418
8C10
8810
D030
70E0
0380
ENDCHAR
STARTCHAR 306F
ENCODING 12399
SWIDTH 1000 0
DWIDTH 16 0
BBX 13 12 2 0
BITMAP
4080
4080
4090
CFF0
8080
8080
8080
A080
A780
C8F0
C898
C780
ENDCHAR
STARTCHAR 3070
ENCODING 12400
SWIDTH 1000 0
DWIDTH 16 0
BBX 14 13 2 1
BITMAP
0028
4094
4090
C090
CFF0
8080
8080
8080
A080
A780
C8E0
C898
C780
ENDCHAR
STARTCHAR 3071
ENCODING 12401
SWIDTH 1000 0
DWIDTH 16 0
BBX 14 14 2 0
BITMAP
0018
0024
40A4
4098
C080
CFF0
8080
8080
8080
A080
A780
C8E0
C898
C780
ENDCHAR
STARTCHAR 3072
ENCODING 12402
SWIDTH 1000 0
DWIDTH 16 0
BBX 14 11 1 0
BITMAP
0C40
F460
0870
1050
3028
202C
2060
2040
2040
1080
0F00
ENDCHAR
STARTCHAR 3073
ENCODING 12403
SWIDTH 1000 0
DWIDTH 16 0
BBX 15 15 1 -1
BITMAP
0008
000C
0016
0C48
FC60
0860
1050
3058
204C
2040
2040
2040
20C0
1180
0F00
ENDCHAR
STARTCHAR 3074
ENCODING 12404
SWIDTH 1000 0
DWIDTH 16 0
BBX 15 14 1 -1
BITMAP
000C
0012
0C52
FC6C
0860
1050
3058
204C
2040
2040
2040
20C0
1180
0F00
ENDCHAR
STARTCHAR 3075
ENCODING 12405
SWIDTH 1000 0
DWIDTH 16 0
BBX 14 12 1 0
BITMAP
0600
0380
0080
0000
0200
0220
2230
2118
6088
C08C
9880
0780
ENDCHAR
STARTCHAR 3076
ENCODING 12406
SWIDTH 1000 0
DWIDTH 16 0
BBX 14 13 1 0
BITMAP
0008
060C
0394
0088
0000
0200
0220
2230
2118
6088
C08C
9880
0780
ENDCHAR
STARTCHAR 3077
ENCODING 12407
SWIDTH 1000 0
DWIDTH 16 0
BBX 14 12 1 0
BITMAP
0618
03A4
0098
0000
0200
0220
2230
2118
6088
C08C
9880
0780
ENDCHAR
STARTCHAR 3078
ENCODING 12408
SWIDTH 1000 0
DWIDTH 16 0
BBX 14 7 1 2
BITMAP
0400
0E00
1B00
31C0
60E0
C030
001C
ENDCHAR
STARTCHAR 3079
ENCODING 12409
SWIDTH 1000 0
DWIDTH 16 0
BBX 13 10 1 2
BITMAP
0030
0058
0020
0C20
1F00
3380
60C0
C070
0038
0008
ENDCHAR
STARTCHAR 307A
ENCODING 12410
SWIDTH 1000 0
DWIDTH 16 0
BBX 13 9 1 2
BITMAP
0030
0048
0C30
1F00
3380
60C0
C070
0038
0008
ENDCHAR
STARTCHAR 307B
ENCODING 12411
SWIDTH 1000 0
DWIDTH 16 0
BBX 12 12 2 0
BITMAP
4010
4FE0
C080
8080
8FF0
8080
8080
A080
A780
C8E0
C890
C780
ENDCHAR
STARTCHAR 307C
ENCODING 12412
SWIDTH 1000 0
DWIDTH 16 0
BBX 14 13 2 1
BITMAP
0028
4014
CFD0
8080
8080
8FF0
8080
8080
8080
C780
C8E0
C890
CF80
ENDCHAR
STARTCHAR 307D
ENCODING 12413
SWIDTH 1000 0
DWIDTH 16 0
BBX 14 13 2 0
BITMAP
0018
4024
CFD8
8080
8080
8FF0
8080
8080
8080
C780
C8E0
C890
CF80
ENDCHAR
STARTCHAR 307E
ENCODING 12414
SWIDTH 1000 0
DWIDTH 16 0
BBX 10 13 3 0
BITMAP
0400
0400
0440
FFC0
0400
0440
7FC0
0400
0400
7C00
8700
85C0
7C40
ENDCHAR
STARTCHAR 307F
ENCODING 12415
SWIDTH 1000 0
DWIDTH 16 0
BBX 14 12 1 -1
BITMAP
0100
3F00
0100
0210
0210
0F10
34F0
4438
C82C
5060
70C0
0180
ENDCHAR
STARTCHAR 3080
ENCODING 12416
SWIDTH 1000 0
DWIDTH 16 0
BBX 14 12 1 0
BITMAP
0800
0800
FF30
0818
080C
3800
4800
4820
5830
7030
1030
1FE0
ENDCHAR
STARTCHAR 3081
ENCODING 12417
SWIDTH 1000 0
DWIDTH 16 0
BBX 13 12 1 0
BITMAP
0080
2180
2180
3F70
3118
3208
4A08
4E08
C408
8E18
5830
71E0
ENDCHAR
STARTCHAR 3082
ENCODING 12418
SWIDTH 1000 0
DWIDTH 16 0
BBX 11 14 2 -1
BITMAP
0800
0800
0800
FF80
1C00
0800
1800
7F00
1020
1020
1020
1020
0860
0780
ENDCHAR
STARTCHAR 3083
ENCODING 12419
SWIDTH 1000 0
DWIDTH 16 0
BBX 10 11 3 -1
BITMAP
0C00
4400
2780
3840
F040
10C0
1380
0800
0800
0800
0800
ENDCHAR
STARTCHAR 3084
ENCODING 12420
SWIDTH 1000 0
DWIDTH 16 0
BBX 13 13 1 -1
BITMAP
0200
0300
3080
10F0
1F08
3808
E808
0418
04F0
0600
0200
0200
0300
ENDCHAR
STARTCHAR 3085
ENCODING 12421
SWIDTH 1000 0
DWIDTH 16 0
BBX 10 11 3 -1
BITMAP
0400
C600
8F80
B2C0
A240
C240
D2C0
8F00
8400
0C00
0800
ENDCHAR
STARTCHAR 3086
ENCODING 12422
SWIDTH 1000 0
DWIDTH 16 0
BBX 12 13 2 -1
BITMAP
0100
C100
87E0
9930
B110
A110
C110
C930
8F60
83C0
0200
0600
0400
ENDCHAR
STARTCHAR 3087
ENCODING 12423
SWIDTH 1000 0
DWIDTH 16 0
BBX 8 10 4 0
BITMAP
10
10
10
1F
10
10
18
FC
8F
F9
ENDCHAR
STARTCHAR 3088
ENCODING 12424
SWIDTH 1000 0
DWIDTH 16 0
BBX 11 12 2 0
BITMAP
0400
0400
0400
07C0
0400
0400
0400
0400
7E00
C780
C460
7C20
ENDCHAR
STARTCHAR 3089
ENCODING 12425
SWIDTH 1000 0
DWIDTH 16 0
BBX 11 14 3 -1
BITMAP
1000
1C00
0600
6000
4000
4000
4780
5840
E060
C060
0040
00C0
1F00
1800
ENDCHAR
STARTCHAR 308A
ENCODING 12426
SWIDTH 1000 0
DWIDTH 16 0
BBX 8 13 4 -1
BITMAP
83
83
81
81
A1
A1
C1
C3
02
02
0C
18
10
ENDCHAR
STARTCHAR 308B
ENCODING 12427
SWIDTH 1000 0
DWIDTH 16 0
BBX 10 12 3 0
BITMAP
1F00
7A00
0600
0C00
1800
3F80
70C0
C040
B840
2440
2280
1F00
ENDCHAR
STARTCHAR 308C
ENCODING 12428
SWIDTH 1000 0
DWIDTH 16 0
BBX 14 13 1 0
BITMAP
0800
0800
0800
38E0
7B20
1C20
1820
1820
3820
7824
D824
182C
1838
ENDCHAR
STARTCHAR 308D
ENCODING 12429
SWIDTH 1000 0
DWIDTH 16 0
BBX 11 12 3 0
BITMAP
0F00
7B00
0600
0C00
1800
3780
7840
E060
8060
0040
01C0
3F80
ENDCHAR
STARTCHAR 308E
ENCODING 12430
SWIDTH 1000 0
DWIDTH 16 0
BBX 10 10 3 0
BITMAP
2000
2000
7000
B780
38C0
2040
6040
A040
2180
2700
ENDCHAR
STARTCHAR 308F
ENCODING 12431
SWIDTH 1000 0
DWIDTH 16 0
BBX 14 13 1 -1
BITMAP
0800
0800
1800
7DF0
0A18
0C08
180C
380C
6808
C818
0870
09C0
0800
ENDCHAR
STARTCHAR 3090
ENCODING 12432
SWIDTH 1000 0
DWIDTH 16 0
BBX 12 13 2 -1
BITMAP
0700
3F00
0200
0200
0FC0
3420
4410
C810
8810
9390
A270
E260
03C0
ENDCHAR
STARTCHAR 3091
ENCODING 12433
SWIDTH 1000 0
DWIDTH 16 0
BBX 14 13 1 -1
BITMAP
1FC0
0100
0600
0FE0
1830
6F10
0930
0EE0
0BC0
1CF0
6398
C30C
8000
ENDCHAR
STARTCHAR 3092
ENCODING 12434
SWIDTH 1000 0
DWIDTH 16 0
BBX 12 14 2 -1
BITMAP
0400
0C00
7F80
1800
1000
2E00
3270
6180
C700
0900
1000
1000
1020
0FE0
ENDCHAR
STARTCHAR 3093
ENCODING 12435
SWIDTH 1000 0
DWIDTH 16 0
BBX 12 12 2 0
BITMAP
0600
0400
0C00
0800
1800
1000
3E00
3300
6310
4110
C130
81C0
ENDCHAR
STARTCHAR 3094
ENCODING 12436
SWIDTH 1000 0
DWIDTH 16 0
BBX 12 14 3 -1
BITMAP
1020
1ED0
0240
0000
1F00
E180
8080
0080
0180
0180
0100
0600
1C00
1000
ENDCHAR
STARTCHAR 3095
ENCODING 12437
SWIDTH 1000 0
DWIDTH 16 0
BBX 10 10 3 0
BITMAP
1000
1000
1100
FC80
24C0
2440
4400
4400
8400
B800
ENDCHAR
STARTCHAR 3096
ENCODING 12438
SWIDTH 1000 0
DWIDTH 16 0
BBX 10 11 3 -1
BITMAP
4100
4100
4100
4FC0
4100
C100
E100
6100
4300
4600
0400
ENDCHAR
STARTCHAR 3099
ENCODING 12441
SWIDTH 1000 0
DWIDTH 16 0
BBX 4 3 11 9
BITMAP
20
B0
40
ENDCHAR
STARTCHAR 309A
ENCODING 12442
SWIDTH 1000 0
DWIDTH 16 0
BBX 4 3 11 10
BITMAP
60
90
60
ENDCHAR
STARTCHAR 309B
ENCODING 12443
SWIDTH 1000 0
DWIDTH 16 0
BBX 4 3 0 9
BITMAP
20
D0
60
ENDCHAR
STARTCHAR 309C
ENCODING 12444
SWIDTH 1000 0
DWIDTH 16 0
BBX 3 3 1 10
BITMAP
E0
A0
E0
ENDCHAR
STARTCHAR 309D
ENCODING 12445
SWIDTH 1000 0
DWIDTH 16 0
BBX 6 8 5 2
BITMAP
80
E0
30
18
0C
04
1C
70
ENDCHAR
STARTCHAR 309E
ENCODING 12446
SWIDTH 1000 0
DWIDTH 16 0
BBX 8 10 5 2
BITMAP
04
0B
8C
E4
30
18
0C
04
1C
70
ENDCHAR
STARTCHAR 309F
ENCODING 12447
SWIDTH 1000 0
DWIDTH 16 0
BBX 9 14 4 -1
BITMAP
1000
1000
1F80
2000
2000
5C00
6200
C300
8100
0300
0200
4200
4400
3800
ENDCHAR
STARTCHAR 30A0
ENCODING 12448
SWIDTH 1000 0
DWIDTH 16 0
BBX 6 4 5 4
BITMAP
FC
00
00
FC
ENDCHAR
STARTCHAR 30A1
ENCODING 12449
SWIDTH 1000 0
DWIDTH 16 0
BBX 10 9 3 0
BITMAP
FFC0
00C0
0980
0900
0A00
0800
1800
3000
6000
ENDCHAR
STARTCHAR 30A2
ENCODING 12450
SWIDTH 1000 0
DWIDTH 16 0
BBX 12 11 2 0
BITMAP
FFF0
0030
0460
04C0
0580
0400
0400
0C00
0800
3000
6000
ENDCHAR
STARTCHAR 30A3
ENCODING 12451
SWIDTH 1000 0
DWIDTH 16 0
BBX 8 11 3 -1
BITMAP
01
03
06
0C
1C
64
84
04
04
04
04
ENDCHAR
STARTCHAR 30A4
ENCODING 12452
SWIDTH 1000 0
DWIDTH 16 0
BBX 10 13 2 -1
BITMAP
0040
0080
0100
0200
0E00
1A00
6200
C200
0200
0200
0200
0200
0200
ENDCHAR
STARTCHAR 30A5
ENCODING 12453
SWIDTH 1000 0
DWIDTH 16 0
BBX 8 10 4 0
BITMAP
10
10
FF
81
81
83
02
06
0C
30
ENDCHAR
STARTCHAR 30A6
ENCODING 12454
SWIDTH 1000 0
DWIDTH 16 0
BBX 10 13 3 0
BITMAP
0800
0800
0800
FFC0
8040
8040
80C0
8080
0080
0100
0300
0E00
1800
ENDCHAR
STARTCHAR 30A7
ENCODING 12455
SWIDTH 1000 0
DWIDTH 16 0
BBX 10 7 3 1
BITMAP
7F80
0C00
0C00
0C00
0C00
0C00
FFC0
ENDCHAR
STARTCHAR 30A8
ENCODING 12456
SWIDTH 1000 0
DWIDTH 16 0
BBX 12 9 2 1
BITMAP
7FE0
0600
0600
0600
0600
0600
0600
0600
FFF0
ENDCHAR
STARTCHAR 30A9
ENCODING 12457
SWIDTH 1000 0
DWIDTH 16 0
BBX 10 10 3 0
BITMAP
0200
0200
03C0
FE00
0600
0A00
1200
2200
C200
0E00
ENDCHAR
STARTCHAR 30AA
ENCODING 12458
SWIDTH 1000 0
DWIDTH 16 0
BBX 12 12 2 0
BITMAP
0100
0100
0100
FFF0
0300
0700
0D00
1900
3100
6100
C100
0F00
ENDCHAR
STARTCHAR 30AB
ENCODING 12459
SWIDTH 1000 0
DWIDTH 16 0
BBX 11 12 2 0
BITMAP
0400
0400
0400
FFE0
0420
0420
0C20
0820
1820
1020
6260
C3C0
ENDCHAR
STARTCHAR 30AC
ENCODING 12460
SWIDTH 1000 0
DWIDTH 16 0
BBX 13 13 2 0
BITMAP
0010
0428
0430
0400
FFE0
0420
0420
0C20
0820
1820
1020
6260
C3C0
ENDCHAR
STARTCHAR 30AD
ENCODING 12461
SWIDTH 1000 0
DWIDTH 16 0
BBX 12 12 2 0
BITMAP
0C00
0C00
07C0
FC00
0400
0610
07F0
FE00
0200
0200
0300
0300
ENDCHAR
STARTCHAR 30AE
ENCODING 12462
SWIDTH 1000 0
DWIDTH 16 0
BBX 13 14 2 -1
BITMAP
0010
0028
0C20
0C10
07C0
FC00
0400
0610
07F0
FE00
0200
0200
0300
0300
ENDCHAR
STARTCHAR 30AF
ENCODING 12463
SWIDTH 1000 0
DWIDTH 16 0
BBX 10 13 3 -1
BITMAP
0800
0800
1FC0
3040
20C0
4080
8180
0100
0300
0600
0C00
3000
2000
ENDCHAR
STARTCHAR 30B0
ENCODING 12464
SWIDTH 1000 0
DWIDTH 16 0
BBX 14 14 2 -1
BITMAP
0008
042C
0C10
0FE0
1860
3040
60C0
C080
0180
0300
0200
0C00
1800
2000
ENDCHAR
STARTCHAR 30B1
ENCODING 12465
SWIDTH 1000 0
DWIDTH 16 0
BBX 12 13 2 -1
BITMAP
1800
1000
1000
3FF0
2100
4100
C100
8100
0300
0200
0400
1800
1000
ENDCHAR
STARTCHAR 30B2
ENCODING 12466
SWIDTH 1000 0
DWIDTH 16 0
BBX 13 14 2 -1
BITMAP
0010
1868
1030
1000
3FF0
2100
4100
C100
8100
0300
0200
0400
1800
1000
ENDCHAR
STARTCHAR 30B3
ENCODING 12467
SWIDTH 1000 0
DWIDTH 16 0
BBX 10 11 3 0
BITMAP
FFC0
0040
0040
0040
0040
0040
0040
0040
0040
FFC0
0040
ENDCHAR
STARTCHAR 30B4
ENCODING 12468
SWIDTH 1000 0
DWIDTH 16 0
BBX 14 13 2 1
BITMAP
0028
0034
0010
FFE0
0060
0060
0060
0060
0060
0060
0060
FFE0
0060
ENDCHAR
STARTCHAR 30B5
ENCODING 12469
SWIDTH 1000 0
DWIDTH 16 0
BBX 14 12 1 0
BITMAP
0840
0840
0840
FFFC
0840
0840
0840
0840
00C0
0080
0100
0600
ENDCHAR
STARTCHAR 30B6
ENCODING 12470
SWIDTH 1000 0
DWIDTH 16 0
BBX 14 14 1 0
BITMAP
000C
0014
1848
1848
1840
FFFC
1840
1840
1840
1840
00C0
0180
0300
0600
ENDCHAR
STARTCHAR 30B7
ENCODING 12471
SWIDTH 1000 0
DWIDTH 16 0
BBX 12 11 2 1
BITMAP
3800
0C00
0000
E010
3020
0060
00C0
0180
0700
3C00
7000
ENDCHAR
STARTCHAR 30B8
ENCODING 12472
SWIDTH 1000 0
DWIDTH 16 0
BBX 12 13 2 0
BITMAP
0030
2050
3820
0C20
0000
E010
3020
0060
00C0
0180
0700
1C00
7000
ENDCHAR
STARTCHAR 30B9
ENCODING 12473
SWIDTH 1000 0
DWIDTH 16 0
BBX 12 11 2 0
BITMAP
7F80
00C0
0080
0180
0100
0200
0700
0D80
1860
6030
C010
ENDCHAR
STARTCHAR 30BA
ENCODING 12474
SWIDTH 1000 0
DWIDTH 16 0
BBX 14 13 2 1
BITMAP
0018
002C
7F90
00C0
0080
0180
0100
0200
0700
0D80
18C0
7060
C030
ENDCHAR
STARTCHAR 30BB
ENCODING 12475
SWIDTH 1000 0
DWIDTH 16 0
BBX 13 12 1 0
BITMAP
0800
0800
0800
09F8
FF10
0830
0860
08C0
0800
0800
0C08
07F8
ENDCHAR
STARTCHAR 30BC
ENCODING 12476
SWIDTH 1000 0
DWIDTH 16 0
BBX 14 13 1 1
BITMAP
0008
0814
0818
0800
09F8
FF90
0830
0860
08C0
0800
0800
0C00
07F8
ENDCHAR
STARTCHAR 30BD
ENCODING 12477
SWIDTH 1000 0
DWIDTH 16 0
BBX 10 11 3 0
BITMAP
8040
C040
40C0
6080
0080
0180
0300
0600
0C00
1800
3000
ENDCHAR
STARTCHAR 30BE
ENCODING 12478
SWIDTH 1000 0
DWIDTH 16 0
BBX 12 14 3 -1
BITMAP
0030
0050
0070
8000
C040
C0C0
6080
4080
0180
0300
0200
0600
1800
7000
ENDCHAR
STARTCHAR 30BF
ENCODING 12479
SWIDTH 1000 0
DWIDTH 16 0
BBX 10 13 3 0
BITMAP
0800
0800
1FC0
3040
20C0
7080
8980
0700
0200
0600
0C00
3800
6000
ENDCHAR
STARTCHAR 30C0
ENCODING 12480
SWIDTH 1000 0
DWIDTH 16 0
BBX 14 14 2 0
BITMAP
0018
042C
0C10
0FE0
1060
3040
78C0
CC80
8780
0300
0600
0C00
1800
7000
ENDCHAR
STARTCHAR 30C1
ENCODING 12481
SWIDTH 1000 0
DWIDTH 16 0
BBX 13 13 2 -1
BITMAP
00C0
1F80
3A00
0200
0200
FFF8
0200
0200
0600
0400
0C00
3000
2000
ENDCHAR
STARTCHAR 30C2
ENCODING 12482
SWIDTH 1000 0
DWIDTH 16 0
BBX 15 13 1 -1
BITMAP
00C0
3F94
111A
0108
0100
FFF8
0100
0300
0300
0200
0400
1800
1000
ENDCHAR
STARTCHAR 30C3
ENCODING 12483
SWIDTH 1000 0
DWIDTH 16 0
BBX 9 9 3 0
BITMAP
1880
C880
4C80
6180
0100
0300
0600
0C00
3000
ENDCHAR
STARTCHAR 30C4
ENCODING 12484
SWIDTH 1000 0
DWIDTH 16 0
BBX 11 11 3 1
BITMAP
9860
8840
CC40
C8C0
0080
0080
0180
0300
0600
1C00
3000
ENDCHAR
STARTCHAR 30C5
ENCODING 12485
SWIDTH 1000 0
DWIDTH 16 0
BBX 13 15 2 -1
BITMAP
0018
0028
0010
0C00
CC20
4420
6460
4060
0040
00C0
0180
0300
0600
1C00
1000
ENDCHAR
STARTCHAR 30C6
ENCODING 12486
SWIDTH 1000 0
DWIDTH 16 0
BBX 13 11 1 0
BITMAP
1FE0
0000
0000
FFF8
0100
0300
0300
0200
0600
0C00
1800
ENDCHAR
STARTCHAR 30C7
ENCODING 12487
SWIDTH 1000 0
DWIDTH 16 0
BBX 15 13 1 0
BITMAP
0004
0016
1FC8
0000
0000
FFF8
0100
0300
0300
0200
0600
0C00
1800
ENDCHAR
STARTCHAR 30C8
ENCODING 12488
SWIDTH 1000 0
DWIDTH 16 0
BBX 7 13 6 0
BITMAP
80
80
80
80
80
C0
F0
9C
86
80
80
80
80
ENDCHAR
STARTCHAR 30C9
ENCODING 12489
SWIDTH 1000 0
DWIDTH 16 0
BBX 8 13 6 -1
BITMAP
82
89
84
80
C0
F0
9C
8E
80
80
80
80
80
ENDCHAR
STARTCHAR 30CA
ENCODING 12490
SWIDTH 1000 0
DWIDTH 16 0
BBX 12 13 2 0
BITMAP
0200
0200
0200
0200
FFF0
0200
0200
0200
0600
0400
0C00
1800
3000
ENDCHAR
STARTCHAR 30CB
ENCODING 12491
SWIDTH 1000 0
DWIDTH 16 0
BBX 12 8 2 2
BITMAP
7FE0
0000
0000
0000
0000
0000
0000
FFF0
ENDCHAR
STARTCHAR 30CC
ENCODING 12492
SWIDTH 1000 0
DWIDTH 16 0
BBX 10 11 3 0
BITMAP
FF80
0080
0180
2100
1B00
0E00
0600
0F00
1980
70C0
C000
ENDCHAR
STARTCHAR 30CD
ENCODING 12493
SWIDTH 1000 0
DWIDTH 16 0
BBX 12 13 2 0
BITMAP
0C00
0300
0000
7FE0
00C0
0180
0300
0EC0
3660
C610
0600
0600
0600
ENDCHAR
STARTCHAR 30CE
ENCODING 12494
SWIDTH 1000 0
DWIDTH 16 0
BBX 9 11 3 0
BITMAP
0180
0180
0100
0100
0300
0600
0400
0C00
3800
6000
C000
ENDCHAR
STARTCHAR 30CF
ENCODING 12495
SWIDTH 1000 0
DWIDTH 16 0
BBX 14 8 1 1
BITMAP
0840
0840
1820
1030
3010
2018
6008
C00C
ENDCHAR
STARTCHAR 30D0
ENCODING 12496
SWIDTH 1000 0
DWIDTH 16 0
BBX 14 11 1 1
BITMAP
0018
002C
0010
0850
0840
1860
1030
3010
2018
6008
C00C
ENDCHAR
STARTCHAR 30D1
ENCODING 12497
SWIDTH 1000 0
DWIDTH 16 0
BBX 14 11 1 1
BITMAP
0018
0024
0018
0040
0840
1860
1030
3010
2018
6008
C00C
ENDCHAR
STARTCHAR 30D2
ENCODING 12498
SWIDTH 1000 0
DWIDTH 16 0
BBX 11 12 3 0
BITMAP
C000
C000
C000
C1C0
CF00
F800
C000
C000
C000
C000
4020
7FE0
ENDCHAR
STARTCHAR 30D3
ENCODING 12499
SWIDTH 1000 0
DWIDTH 16 0
BBX 12 13 3 0
BITMAP
0030
C050
C020
C020
C1C0
CF00
F800
C000
C000
C000
C000
C000
7FC0
ENDCHAR
STARTCHAR 30D4
ENCODING 12500
SWIDTH 1000 0
DWIDTH 16 0
BBX 12 13 3 0
BITMAP
0030
C050
C050
C030
C1C0
CF00
F800
C000
C000
C000
C000
C000
7FC0
ENDCHAR
STARTCHAR 30D5
ENCODING 12501
SWIDTH 1000 0
DWIDTH 16 0
BBX 10 11 3 0
BITMAP
1FC0
FFC0
0040
00C0
0080
0180
0100
0300
0600
1C00
7000
ENDCHAR
STARTCHAR 30D6
ENCODING 12502
SWIDTH 1000 0
DWIDTH 16 0
BBX 13 14 2 0
BITMAP
0010
0028
0010
FFD0
FFE0
0060
0040
00C0
0080
0180
0300
0600
0C00
3800
ENDCHAR
STARTCHAR 30D7
ENCODING 12503
SWIDTH 1000 0
DWIDTH 16 0
BBX 14 14 2 0
BITMAP
0018
0024
0024
00D8
FFE0
0060
0040
0040
00C0
0180
0100
0600
0C00
3800
ENDCHAR
STARTCHAR 30D8
ENCODING 12504
SWIDTH 1000 0
DWIDTH 16 0
BBX 14 7 1 2
BITMAP
0C00
0E00
1380
31C0
6060
C030
001C
ENDCHAR
STARTCHAR 30D9
ENCODING 12505
SWIDTH 1000 0
DWIDTH 16 0
BBX 14 9 1 2
BITMAP
0010
0058
0C28
0E00
1380
31C0
6060
C030
001C
ENDCHAR
STARTCHAR 30DA
ENCODING 12506
SWIDTH 1000 0
DWIDTH 16 0
BBX 14 10 1 2
BITMAP
0030
0048
0C48
0E30
1B80
31C0
60E0
C030
001C
0008
ENDCHAR
STARTCHAR 30DB
ENCODING 12507
SWIDTH 1000 0
DWIDTH 16 0
BBX 12 12 2 0
BITMAP
0600
0600
0600
FFF0
0600
0600
2640
6620
4630
C610
8600
1E00
ENDCHAR
STARTCHAR 30DC
ENCODING 12508
SWIDTH 1000 0
DWIDTH 16 0
BBX 13 14 2 -1
BITMAP
0010
0668
0620
0600
FFF0
0600
0600
2640
6620
4630
C610
8600
0600
1C00
ENDCHAR
STARTCHAR 30DD
ENCODING 12509
SWIDTH 1000 0
DWIDTH 16 0
BBX 13 13 2 0
BITMAP
0030
0648
0630
0600
FFF0
0600
0600
2640
6620
4630
C610
8600
1E00
ENDCHAR
STARTCHAR 30DE
ENCODING 12510
SWIDTH 1000 0
DWIDTH 16 0
BBX 12 10 2 0
BITMAP
FFF0
0030
0060
00C0
3180
0B00
0600
0200
0300
0100
ENDCHAR
STARTCHAR 30DF
ENCODING 12511
SWIDTH 1000 0
DWIDTH 16 0
BBX 9 12 3 0
BITMAP
7000
1E00
0380
0080
3000
1E00
0300
0000
E000
3C00
0F00
0180
ENDCHAR
STARTCHAR 30E0
ENCODING 12512
SWIDTH 1000 0
DWIDTH 16 0
BBX 12 11 2 0
BITMAP
0400
0400
0C00
0800
0800
1980
10C0
1040
3060
2FF0
FC10
ENDCHAR
STARTCHAR 30E1
ENCODING 12513
SWIDTH 1000 0
DWIDTH 16 0
BBX 10 12 2 0
BITMAP
0040
00C0
0080
1180
1D00
0700
0300
0580
0CC0
1800
3000
C000
ENDCHAR
STARTCHAR 30E2
ENCODING 12514
SWIDTH 1000 0
DWIDTH 16 0
BBX 12 11 2 0
BITMAP
7FE0
0C00
0C00
0C00
FFF0
0C00
0C00
0C00
0C00
0C00
07E0
ENDCHAR
STARTCHAR 30E3
ENCODING 12515
SWIDTH 1000 0
DWIDTH 16 0
BBX 10 11 3 -1
BITMAP
2000
3000
11C0
7EC0
D080
1900
0B00
0800
0800
0800
0800
ENDCHAR
STARTCHAR 30E4
ENCODING 12516
SWIDTH 1000 0
DWIDTH 16 0
BBX 12 12 2 -1
BITMAP
1000
1000
1870
0FF0
F820
0860
0CC0
0C80
0400
0400
0400
0600
ENDCHAR
STARTCHAR 30E5
ENCODING 12517
SWIDTH 1000 0
DWIDTH 16 0
BBX 10 7 3 1
BITMAP
7F00
0300
0300
0200
0200
0200
FFC0
ENDCHAR
STARTCHAR 30E6
ENCODING 12518
SWIDTH 1000 0
DWIDTH 16 0
BBX 12 9 2 1
BITMAP
7F80
0080
0080
0080
0080
0080
0080
0180
FFF0
ENDCHAR
STARTCHAR 30E7
ENCODING 12519
SWIDTH 1000 0
DWIDTH 16 0
BBX 8 9 4 0
BITMAP
FF
03
03
03
FF
03
03
FF
03
ENDCHAR
STARTCHAR 30E8
ENCODING 12520
SWIDTH 1000 0
DWIDTH 16 0
BBX 10 11 3 0
BITMAP
FFC0
00C0
00C0
00C0
7FC0
00C0
00C0
00C0
00C0
FFC0
00C0
ENDCHAR
STARTCHAR 30E9
ENCODING 12521
SWIDTH 1000 0
DWIDTH 16 0
BBX 12 12 2 -1
BITMAP
3FC0
0000
0000
0000
FFF0
0020
0060
0040
00C0
0180
0700
1C00
ENDCHAR
STARTCHAR 30EA
ENCODING 12522
SWIDTH 1000 0
DWIDTH 16 0
BBX 8 13 4 -1
BITMAP
C3
C3
C3
C3
C3
C3
C3
02
02
06
0C
18
30
ENDCHAR
STARTCHAR 30EB
ENCODING 12523
SWIDTH 1000 0
DWIDTH 16 0
BBX 14 12 1 0
BITMAP
0100
1900
1900
1100
1100
1100
110C
1108
3130
2160
61C0
C180
ENDCHAR
STARTCHAR 30EC
ENCODING 12524
SWIDTH 1000 0
DWIDTH 16 0
BBX 9 12 4 0
BITMAP
8000
8000
8000
8000
8000
8080
8080
8100
8600
8C00
F000
E000
ENDCHAR
STARTCHAR 30ED
ENCODING 12525
SWIDTH 1000 0
DWIDTH 16 0
BBX 10 11 3 0
BITMAP
FFC0
8040
8040
8040
8040
8040
8040
8040
8040
FFC0
8040
ENDCHAR
STARTCHAR 30EE
ENCODING 12526
SWIDTH 1000 0
DWIDTH 16 0
BBX 8 9 4 0
BITMAP
FF
81
81
83
02
06
0C
18
30
ENDCHAR
STARTCHAR 30EF
ENCODING 12527
SWIDTH 1000 0
DWIDTH 16 0
BBX 10 11 3 0
BITMAP
FFC0
8040
8040
80C0
80C0
0080
0180
0100
0200
0C00
3800
ENDCHAR
STARTCHAR 30F0
ENCODING 12528
SWIDTH 1000 0
DWIDTH 16 0
BBX 13 14 1 -1
BITMAP
0080
0080
0080
3FF0
1880
1880
1880
1880
1880
FFF8
0080
0080
0080
0080
ENDCHAR
STARTCHAR 30F1
ENCODING 12529
SWIDTH 1000 0
DWIDTH 16 0
BBX 12 9 2 1
BITMAP
7FF0
0020
0460
04C0
0480
0400
0400
0400
FFF0
ENDCHAR
STARTCHAR 30F2
ENCODING 12530
SWIDTH 1000 0
DWIDTH 16 0
BBX 10 11 3 -1
BITMAP
FFC0
0040
0040
0040
FF80
0080
0180
0300
0600
0C00
7800
ENDCHAR
STARTCHAR 30F3
ENCODING 12531
SWIDTH 1000 0
DWIDTH 16 0
BBX 11 11 3 0
BITMAP
C000
6000
3020
0060
00C0
0080
0100
0600
1C00
F000
C000
ENDCHAR
STARTCHAR 30F4
ENCODING 12532
SWIDTH 1000 0
DWIDTH 16 0
BBX 12 14 3 0
BITMAP
0020
08D0
0860
0800
FFC0
8040
8040
80C0
8080
0180
0100
0300
0E00
1800
ENDCHAR
STARTCHAR 30F5
ENCODING 12533
SWIDTH 1000 0
DWIDTH 16 0
BBX 9 9 3 0
BITMAP
0800
0800
FF80
0880
0880
1880
1080
2080
C700
ENDCHAR
STARTCHAR 30F6
ENCODING 12534
SWIDTH 1000 0
DWIDTH 16 0
BBX 10 10 3 -1
BITMAP
1000
3000
3FC0
6200
C200
8200
0600
0C00
1800
1000
ENDCHAR
STARTCHAR 30F7
ENCODING 12535
SWIDTH 1000 0
DWIDTH 16 0
BBX 14 14 2 0
BITMAP
0028
0034
0010
FFE0
C020
C060
C060
C040
00C0
0080
0180
0300
0E00
0800
ENDCHAR
STARTCHAR 30F8
ENCODING 12536
SWIDTH 1000 0
DWIDTH 16 0
BBX 14 14 1 -1
BITMAP
000C
0094
0088
0080
3FF0
1880
1880
1880
1880
FFF8
0080
0080
0080
0080
ENDCHAR
STARTCHAR 30F9
ENCODING 12537
SWIDTH 1000 0
DWIDTH 16 0
BBX 13 13 2 1
BITMAP
0018
0028
0010
0010
7FF0
0020
0440
04C0
0580
0400
0400
0400
FFF0
ENDCHAR
STARTCHAR 30FA
ENCODING 12538
SWIDTH 1000 0
DWIDTH 16 0
BBX 13 15 3 -1
BITMAP
0030
0058
0020
FFC0
00C0
00C0
0080
FF80
0180
0100
0300
0600
1C00
7000
4000
ENDCHAR
STARTCHAR 30FB
ENCODING 12539
SWIDTH 1000 0
DWIDTH 16 0
BBX 2 2 7 5
BITMAP
C0
C0
ENDCHAR
STARTCHAR 30FC
ENCODING 12540
SWIDTH 1000 0
DWIDTH 16 0
BBX 14 1 1 6
BITMAP
FFFC
ENDCHAR
STARTCHAR 30FD
ENCODING 12541
SWIDTH 1000 0
DWIDTH 16 0
BBX 7 6 4 3
BITMAP
C0
20
18
0C
04
06
ENDCHAR
STARTCHAR 30FE
ENCODING 12542
SWIDTH 1000 0
DWIDTH 16 0
BBX 8 9 4 2
BITMAP
02
05
C6
62
30
18
0C
06
02
ENDCHAR
STARTCHAR 30FF
ENCODING 12543
SWIDTH 1000 0
DWIDTH 16 0
BBX 9 12 3 0
BITMAP
FF80
0080
0080
0080
0080
0080
0080
0080
0080
0080
0080
0080
ENDCHAR
STARTCHAR 31F0
ENCODING 12784
SWIDTH 1000 0
DWIDTH 16 0
BBX 8 11 4 -1
BITMAP
10
10
3F
23
42
82
04
0C
18
70
40
ENDCHAR
STARTCHAR 31F1
ENCODING 12785
SWIDTH 1000 0
DWIDTH 16 0
BBX 9 9 4 0
BITMAP
6000
3000
9080
C080
4100
0300
0600
1800
F000
ENDCHAR
STARTCHAR 31F2
ENCODING 12786
SWIDTH 1000 0
DWIDTH 16 0
BBX 10 8 3 0
BITMAP
7F00
0300
0200
0400
0E00
1B00
3180
C0C0
ENDCHAR
STARTCHAR 31F3
ENCODING 12787
SWIDTH 1000 0
DWIDTH 16 0
BBX 6 10 6 0
BITMAP
C0
C0
C0
C0
E0
D8
CC
C0
C0
C0
ENDCHAR
STARTCHAR 31F4
ENCODING 12788
SWIDTH 1000 0
DWIDTH 16 0
BBX 8 9 4 0
BITMAP
FE
02
02
24
14
0C
16
63
C0
ENDCHAR
STARTCHAR 31F5
ENCODING 12789
SWIDTH 1000 0
DWIDTH 16 0
BBX 10 7 3 1
BITMAP
3300
2100
6180
6080
C0C0
8040
8040
ENDCHAR
STARTCHAR 31F6
ENCODING 12790
SWIDTH 1000 0
DWIDTH 16 0
BBX 7 9 5 1
BITMAP
80
80
84
9C
F0
80
80
80
FE
ENDCHAR
STARTCHAR 31F7
ENCODING 12791
SWIDTH 1000 0
DWIDTH 16 0
BBX 8 8 4 0
BITMAP
FF
01
03
02
06
0C
18
70
ENDCHAR
STARTCHAR 31F8
ENCODING 12792
SWIDTH 1000 0
DWIDTH 16 0
BBX 10 6 3 2
BITMAP
1800
3C00
6600
C300
81C0
0040
ENDCHAR
STARTCHAR 31F9
ENCODING 12793
SWIDTH 1000 0
DWIDTH 16 0
BBX 10 10 3 -1
BITMAP
0C00
0C00
FFC0
0C00
0D00
6C80
4CC0
8C40
0C00
1800
ENDCHAR
STARTCHAR 31FA
ENCODING 12794
SWIDTH 1000 0
DWIDTH 16 0
BBX 10 9 3 0
BITMAP
0800
0800
1800
1200
1300
2180
2080
FF40
0040
ENDCHAR
STARTCHAR 31FB
ENCODING 12795
SWIDTH 1000 0
DWIDTH 16 0
BBX 8 10 4 -1
BITMAP
7E
00
00
FF
01
03
06
0C
38
20
ENDCHAR
STARTCHAR 31FC
ENCODING 12796
SWIDTH 1000 0
DWIDTH 16 0
BBX 6 10 5 0
BITMAP
0C
8C
8C
8C
8C
8C
0C
08
18
70
ENDCHAR
STARTCHAR 31FD
ENCODING 12797
SWIDTH 1000 0
DWIDTH 16 0
BBX 11 9 3 0
BITMAP
3400
3400
2400
2400
2460
24C0
6580
4700
8600
ENDCHAR
STARTCHAR 31FE
ENCODING 12798
SWIDTH 1000 0
DWIDTH 16 0
BBX 8 9 5 0
BITMAP
80
80
80
80
83
86
8C
B0
E0
ENDCHAR
STARTCHAR 31FF
ENCODING 12799
SWIDTH 1000 0
DWIDTH 16 0
BBX 8 9 4 0
BITMAP
FF
81
81
81
81
81
81
FF
81
ENDCHAR
STARTCHAR 3220
ENCODING 12832
SWIDTH 1000 0
DWIDTH 16 0
BBX 14 14 1 -1
BITMAP
4008
4008
8004
8004
8004
8004
BFF4
8004
8004
8004
8004
8004
4008
4008
ENDCHAR
STARTCHAR 3221
ENCODING 12833
SWIDTH 1000 0
DWIDTH 16 0
BBX 14 15 1 -2
BITMAP
4008
4008
8004
9FE4
8004
8004
8004
8004
8004
8004
8004
BFF4
4008
4008
2000
ENDCHAR
STARTCHAR 3222
ENCODING 12834
SWIDTH 1000 0
DWIDTH 16 0
BBX 14 14 1 -1
BITMAP
4008
4008
9FE4
8004
8004
8004
9FE4
8004
8004
8004
8004
BFF4
4008
4008
ENDCHAR
STARTCHAR 3223
ENCODING 12835
SWIDTH 1000 0
DWIDTH 16 0
BBX 14 14 1 -1
BITMAP
4008
4008
BFF4
B534
B534
B534
B574
BD74
B9F4
B034
B034
BFF4
7038
4008
ENDCHAR
STARTCHAR 3224
ENCODING 12836
SWIDTH 1000 0
DWIDTH 16 0
BBX 14 13 1 -1
BITMAP
4008
4008
9FE4
8204
8204
8204
9FC4
8444
8444
8444
8444
BFF8
4008
ENDCHAR
STARTCHAR 3225
ENCODING 12837
SWIDTH 1000 0
DWIDTH 16 0
BBX 14 14 1 -1
BITMAP
4008
4308
8304
8304
BFF4
8004
8084
8CC4
8844
8864
9824
9034
5008
4008
ENDCHAR
STARTCHAR 3226
ENCODING 12838
SWIDTH 1000 0
DWIDTH 16 0
BBX 14 14 1 -1
BITMAP
4008
4408
8404
8404
84F4
BF84
8404
8404
8404
8414
8434
8434
47E8
4008
ENDCHAR
STARTCHAR 3227
ENCODING 12839
SWIDTH 1000 0
DWIDTH 16 0
BBX 14 15 1 -1
BITMAP
2000
4008
4788
8084
8484
8484
8CC4
8844
8844
8844
9864
9024
B034
4008
4008
ENDCHAR
STARTCHAR 3228
ENCODING 12840
SWIDTH 1000 0
DWIDTH 16 0
BBX 14 14 1 -1
BITMAP
4008
4408
8404
8404
BF84
8484
8484
8484
8484
8C94
8894
9894
70F8
4008
ENDCHAR
STARTCHAR 3229
ENCODING 12841
SWIDTH 1000 0
DWIDTH 16 0
BBX 14 14 1 -1
BITMAP
4008
4308
8304
8304
8304
8304
BFF4
8304
8304
8304
8304
8304
4308
4308
ENDCHAR
STARTCHAR 322A
ENCODING 12842
SWIDTH 1000 0
DWIDTH 16 0
BBX 14 15 1 -1
BITMAP
2000
4008
4FC8
8844
8844
8FC4
8844
8844
8844
8FC4
8844
9844
9044
51C8
4008
ENDCHAR
STARTCHAR 322B
ENCODING 12843
SWIDTH 1000 0
DWIDTH 16 0
BBX 14 14 1 -1
BITMAP
4008
4308
8304
8324
8B24
9B24
9344
9344
8284
8484
8444
8864
7038
4008
ENDCHAR
STARTCHAR 322C
ENCODING 12844
SWIDTH 1000 0
DWIDTH 16 0
BBX 14 14 1 -1
BITMAP
4008
4108
8104
8134
BD64
85C4
8584
8984
8944
9964
9134
A114
4708
4008
ENDCHAR
STARTCHAR 322D
ENCODING 12845
SWIDTH 1000 0
DWIDTH 16 0
BBX 14 14 1 -1
BITMAP
4008
4308
8304
8304
BFF4
8304
8384
8784
8F44
9B64
B334
A314
4308
4008
ENDCHAR
STARTCHAR 322E
ENCODING 12846
SWIDTH 1000 0
DWIDTH 16 0
BBX 14 14 1 -1
BITMAP
4008
4308
8784
8484
8864
97F4
A304
9FE4
8B04
8B44
8B44
8B44
7FF8
4008
ENDCHAR
STARTCHAR 322F
ENCODING 12847
SWIDTH 1000 0
DWIDTH 16 0
BBX 14 13 1 0
BITMAP
4308
8308
8304
8304
9FE4
8304
8304
8304
8304
8304
8304
BFF8
4008
ENDCHAR
STARTCHAR 3230
ENCODING 12848
SWIDTH 1000 0
DWIDTH 16 0
BBX 14 14 1 -1
BITMAP
4008
4008
9FE4
9024
9024
9024
9FE4
9024
9024
9024
9024
9FE4
5028
4008
ENDCHAR
STARTCHAR 3231
ENCODING 12849
SWIDTH 1000 0
DWIDTH 16 0
BBX 14 14 1 -1
BITMAP
4008
5048
9144
BFF4
9244
9044
9BF4
B4C4
B564
D164
9254
9254
5048
4008
ENDCHAR
STARTCHAR 3232
ENCODING 12850
SWIDTH 1000 0
DWIDTH 16 0
BBX 14 13 1 0
BITMAP
4208
8408
BFF4
8404
8FE4
9C24
BFE4
EC24
8FE4
8C24
8C24
4CE8
4C08
ENDCHAR
STARTCHAR 3233
ENCODING 12851
SWIDTH 1000 0
DWIDTH 16 0
BBX 14 14 1 -1
BITMAP
4808
4848
8844
BC44
8444
8FF4
8844
9844
BE44
A844
8844
8844
4BF8
4808
ENDCHAR
STARTCHAR 3234
ENCODING 12852
SWIDTH 1000 0
DWIDTH 16 0
BBX 14 14 1 -1
BITMAP
4008
4208
87E4
8C44
8C84
B784
8304
8604
9FE4
BC24
8C24
8C24
4FE8
4C28
ENDCHAR
STARTCHAR 3235
ENCODING 12853
SWIDTH 1000 0
DWIDTH 16 0
BBX 14 14 1 -1
BITMAP
4008
4888
A884
ABF4
BC84
AFF4
8824
8C24
9BF4
A824
8924
8924
48E8
4808
ENDCHAR
STARTCHAR 3236
ENCODING 12854
SWIDTH 1000 0
DWIDTH 16 0
BBX 14 15 1 -1
BITMAP
2000
4008
7C28
A424
A424
BDF4
A464
BC64
A4A4
A4A4
BD24
9524
9424
62E8
4008
ENDCHAR
STARTCHAR 3237
ENCODING 12855
SWIDTH 1000 0
DWIDTH 16 0
BBX 14 14 1 0
BITMAP
5008
93F8
9214
BE14
8A14
8A14
93F4
9944
B544
9144
9154
9354
5278
5008
ENDCHAR
STARTCHAR 3238
ENCODING 12856
SWIDTH 1000 0
DWIDTH 16 0
BBX 14 13 1 0
BITMAP
4248
8A48
89C4
BFF4
A214
A214
BFE4
8224
8224
8624
8C24
79E8
4008
ENDCHAR
STARTCHAR 3239
ENCODING 12857
SWIDTH 1000 0
DWIDTH 16 0
BBX 14 14 1 -1
BITMAP
4008
4948
8924
9124
9134
B7E4
B104
D084
9084
9084
9094
9054
5068
5008
ENDCHAR
STARTCHAR 323A
ENCODING 12858
SWIDTH 1000 0
DWIDTH 16 0
BBX 14 14 1 -1
BITMAP
4008
4038
BBC4
A8D4
AAD4
A9E4
A9E4
A8C4
ABFC
B8C4
A0C4
80C4
41C8
4008
ENDCHAR
STARTCHAR 323B
ENCODING 12859
SWIDTH 1000 0
DWIDTH 16 0
BBX 14 14 1 0
BITMAP
4208
4A48
8B44
BFF4
A014
AFD4
80C4
8184
8304
BFF4
8104
8104
4F08
4008
ENDCHAR
STARTCHAR 323C
ENCODING 12860
SWIDTH 1000 0
DWIDTH 16 0
BBX 14 14 1 -1
BITMAP
4088
7E88
A8F4
BE84
A304
BE04
A8F4
BE04
A004
9FE4
94A4
94A4
7FF8
4008
ENDCHAR
STARTCHAR 323D
ENCODING 12861
SWIDTH 1000 0
DWIDTH 16 0
BBX 14 14 1 0
BITMAP
4308
4308
8484
8CC4
9964
B114
8904
89E4
8904
8904
8904
8904
7FF8
4008
ENDCHAR
STARTCHAR 323E
ENCODING 12862
SWIDTH 1000 0
DWIDTH 16 0
BBX 14 14 1 -1
BITMAP
4008
4208
93F4
84A4
8984
B674
9FE4
9FE4
9024
9FE4
9FE4
84C4
5878
4008
ENDCHAR
STARTCHAR 323F
ENCODING 12863
SWIDTH 1000 0
DWIDTH 16 0
BBX 14 14 1 -1
BITMAP
4008
5088
97E4
9124
B924
92E4
9404
9444
9FF4
9554
9554
9554
5FB8
5888
ENDCHAR
STARTCHAR 3240
ENCODING 12864
SWIDTH 1000 0
DWIDTH 16 0
BBX 14 13 1 0
BITMAP
4908
8F78
92A4
ACA4
9C44
9FE4
A014
BFF4
8104
8964
9134
6718
4008
ENDCHAR
STARTCHAR 3241
ENCODING 12865
SWIDTH 1000 0
DWIDTH 16 0
BBX 14 14 1 -1
BITMAP
4008
4888
8884
9084
97F4
9184
B184
B1C4
92E4
92A4
9494
9094
5088
4008
ENDCHAR
STARTCHAR 3242
ENCODING 12866
SWIDTH 1000 0
DWIDTH 16 0
BBX 14 13 1 -1
BITMAP
4008
4208
8204
9FE4
9024
9024
9FE4
9024
9FE4
9024
9024
9FE8
5028
ENDCHAR
STARTCHAR 3243
ENCODING 12867
SWIDTH 1000 0
DWIDTH 16 0
BBX 14 14 1 -1
BITMAP
4008
4008
BFF8
8404
8444
BFE4
8324
8304
9FE4
8304
8304
8304
7FF8
4008
ENDCHAR
STARTCHAR 3251
ENCODING 12881
SWIDTH 1000 0
DWIDTH 16 0
BBX 16 15 0 -2
BITMAP
07E0
1810
3E3C
6A74
5232
8232
8632
8431
8832
4832
5832
3F34
300C
0C10
07E0
ENDCHAR
STARTCHAR 3252
ENCODING 12882
SWIDTH 1000 0
DWIDTH 16 0
BBX 16 15 0 -2
BITMAP
07E0
1810
3E7C
7A5C
52CA
8212
8612
8421
8862
4842
5842
3FFC
300C
0C30
07E0
ENDCHAR
STARTCHAR 3253
ENCODING 12883
SWIDTH 1000 0
DWIDTH 16 0
BBX 16 15 0 -2
BITMAP
07E0
1810
3E7C
6A54
5392
8212
8232
8411
8C1A
488A
58DA
3F74
300C
0C10
07E0
ENDCHAR
STARTCHAR 3254
ENCODING 12884
SWIDTH 1000 0
DWIDTH 16 0
BBX 16 15 0 -2
BITMAP
07E0
1810
3E1C
6A34
5332
9252
8252
8451
8C92
48FA
4812
3F14
300C
0C10
07E0
ENDCHAR
STARTCHAR 3255
ENCODING 12885
SWIDTH 1000 0
DWIDTH 16 0
BBX 16 16 0 -2
BITMAP
03E0
0C10
1008
2E74
4A42
5342
8272
8251
8409
8C0A
48CA
485A
3F74
1008
0C30
07E0
ENDCHAR
STARTCHAR 3256
ENCODING 12886
SWIDTH 1000 0
DWIDTH 16 0
BBX 16 15 0 -2
BITMAP
07E0
1810
3E7C
6A5C
53CA
8282
82B2
84C9
8C8A
488A
584A
3F74
300C
0C10
07E0
ENDCHAR
STARTCHAR 3257
ENCODING 12887
SWIDTH 1000 0
DWIDTH 16 0
BBX 16 16 0 -2
BITMAP
03E0
0C10
1008
2EF4
4A12
5312
8212
8221
8421
8C22
4822
4862
3F44
1008
0C30
07E0
ENDCHAR
STARTCHAR 3258
ENCODING 12888
SWIDTH 1000 0
DWIDTH 16 0
BBX 16 15 0 -2
BITMAP
07E0
1810
3E7C
6A54
534A
8252
8272
8451
8C8A
488A
48CA
3F74
300C
0C10
07E0
ENDCHAR
STARTCHAR 3259
ENCODING 12889
SWIDTH 1000 0
DWIDTH 16 0
BBX 16 15 0 -2
BITMAP
07E0
1810
3E7C
6A4C
528A
828A
864A
8479
8C0A
480A
5852
3F74
300C
0C10
07E0
ENDCHAR
STARTCHAR 325A
ENCODING 12890
SWIDTH 1000 0
DWIDTH 16 0
BBX 16 15 0 -1
BITMAP
03E0
0C10
100C
2E74
5A5A
424A
82CA
8CC9
82CA
43CA
534A
325C
3E7C
1810
07E0
ENDCHAR
STARTCHAR 325B
ENCODING 12891
SWIDTH 1000 0
DWIDTH 16 0
BBX 16 15 0 -1
BITMAP
03E0
0C10
100C
2E34
5A72
4232
8232
8431
8232
4332
5132
3A34
3E3C
1810
07E0
ENDCHAR
STARTCHAR 325C
ENCODING 12892
SWIDTH 1000 0
DWIDTH 16 0
BBX 16 15 0 -2
BITMAP
07E0
1810
3E7C
7A5C
52CA
4212
8C12
8221
8262
5342
5242
2EFC
300C
0830
07E0
ENDCHAR
STARTCHAR 325D
ENCODING 12893
SWIDTH 1000 0
DWIDTH 16 0
BBX 16 15 0 -1
BITMAP
03E0
0C10
100C
2E74
5A52
421A
8212
8C21
8212
430A
538A
32DC
3E7C
1810
07E0
ENDCHAR
STARTCHAR 325E
ENCODING 12894
SWIDTH 1000 0
DWIDTH 16 0
BBX 16 15 0 -2
BITMAP
07E0
1810
3E1C
7A34
5232
4232
8652
8E51
8292
53FA
5212
2E14
300C
0810
07E0
ENDCHAR
STARTCHAR 325F
ENCODING 12895
SWIDTH 1000 0
DWIDTH 16 0
BBX 16 15 0 -1
BITMAP
03E0
0C10
100C
2E74
5A42
4242
8272
8C51
820A
430A
53CA
3254
3E7C
1810
07E0
ENDCHAR
STARTCHAR 3280
ENCODING 12928
SWIDTH 1000 0
DWIDTH 16 0
BBX 16 15 0 -1
BITMAP
03E0
0C10
100C
2004
4002
4002
8002
9FF9
8002
4002
4002
2004
300C
1810
07E0
ENDCHAR
STARTCHAR 3281
ENCODING 12929
SWIDTH 1000 0
DWIDTH 16 0
BBX 16 16 0 -2
BITMAP
07E0
0810
3008
2004
4FF2
4002
8002
8001
8001
8002
4002
5FFA
2004
1008
0830
07E0
ENDCHAR
STARTCHAR 3282
ENCODING 12930
SWIDTH 1000 0
DWIDTH 16 0
BBX 16 15 0 -1
BITMAP
03E0
0C10
100C
2004
4FF2
4002
8002
8FF1
8002
4002
4002
3FFC
300C
1810
07E0
ENDCHAR
STARTCHAR 3283
ENCODING 12931
SWIDTH 1000 0
DWIDTH 16 0
BBX 16 15 0 -2
BITMAP
07E0
1810
300C
7FFC
528A
528A
92AA
96A9
9C6A
500A
5FFA
300C
300C
0810
07E0
ENDCHAR
STARTCHAR 3284
ENCODING 12932
SWIDTH 1000 0
DWIDTH 16 0
BBX 16 15 0 -1
BITMAP
07E0
1810
300C
2FF4
4102
4102
8102
8FE1
8222
4222
4222
3FFC
300C
0810
07E0
ENDCHAR
STARTCHAR 3285
ENCODING 12933
SWIDTH 1000 0
DWIDTH 16 0
BBX 16 16 0 -2
BITMAP
03E0
0C10
1008
2184
4182
5FFA
8002
8241
8421
8432
4812
580A
2004
3008
0830
07E0
ENDCHAR
STARTCHAR 3286
ENCODING 12934
SWIDTH 1000 0
DWIDTH 16 0
BBX 16 15 0 -1
BITMAP
03E0
0C10
100C
2204
4202
420A
9FFA
9201
8202
421A
4212
23F4
300C
1810
07E0
ENDCHAR
STARTCHAR 3287
ENCODING 12935
SWIDTH 1000 0
DWIDTH 16 0
BBX 16 16 0 -2
BITMAP
03E0
0C10
1008
23C4
4042
4242
8662
8421
8421
8C12
481A
500A
2004
3008
0830
07E0
ENDCHAR
STARTCHAR 3288
ENCODING 12936
SWIDTH 1000 0
DWIDTH 16 0
BBX 16 16 0 -2
BITMAP
03E0
0C10
1008
2304
4302
4FE2
8322
8221
8221
822A
442A
4C3A
2004
3008
0830
07E0
ENDCHAR
STARTCHAR 3289
ENCODING 12937
SWIDTH 1000 0
DWIDTH 16 0
BBX 16 16 0 -2
BITMAP
03E0
0C10
1008
2184
4182
4182
8182
9FF9
8181
8182
4182
4182
2184
3008
0830
07E0
ENDCHAR
STARTCHAR 328A
ENCODING 12938
SWIDTH 1000 0
DWIDTH 16 0
BBX 16 16 0 -2
BITMAP
07E0
1810
3008
27E4
4422
4422
87E2
8421
8421
87E2
4C22
4822
2824
10E8
0830
07E0
ENDCHAR
STARTCHAR 328B
ENCODING 12939
SWIDTH 1000 0
DWIDTH 16 0
BBX 16 15 0 -1
BITMAP
03E0
0C10
100C
2184
4192
4592
8DB2
89A1
8982
4342
4622
2C1C
300C
1810
07E0
ENDCHAR
STARTCHAR 328C
ENCODING 12940
SWIDTH 1000 0
DWIDTH 16 0
BBX 16 15 0 -1
BITMAP
07E0
0810
308C
2084
4092
5EB2
82E2
82C1
84E2
4CB2
589A
208C
330C
0810
07E0
ENDCHAR
STARTCHAR 328D
ENCODING 12941
SWIDTH 1000 0
DWIDTH 16 0
BBX 16 15 0 -1
BITMAP
07E0
1810
300C
2184
4182
5FFA
8182
83C1
83E2
45B2
599A
2184
318C
0810
07E0
ENDCHAR
STARTCHAR 328E
ENCODING 12942
SWIDTH 1000 0
DWIDTH 16 0
BBX 16 15 0 -1
BITMAP
03E0
0C10
100C
2184
4242
4622
8FFA
9189
8FF2
45A2
47A2
3FFC
300C
1810
07E0
ENDCHAR
STARTCHAR 328F
ENCODING 12943
SWIDTH 1000 0
DWIDTH 16 0
BBX 16 14 0 -1
BITMAP
07E0
1818
318C
4182
4182
8FF2
8181
8181
8182
4182
5FFA
300C
1818
07E0
ENDCHAR
STARTCHAR 3290
ENCODING 12944
SWIDTH 1000 0
DWIDTH 16 0
BBX 16 14 0 -1
BITMAP
07E0
1818
300C
4FF2
4812
8812
8FF1
8811
8812
4812
4FF2
381C
1818
07E0
ENDCHAR
STARTCHAR 3291
ENCODING 12945
SWIDTH 1000 0
DWIDTH 16 0
BBX 16 14 0 -1
BITMAP
07E0
1818
384C
4942
5FFA
8942
8DF9
9A61
98E2
49DA
4B4A
304C
1818
07E0
ENDCHAR
STARTCHAR 3292
ENCODING 12946
SWIDTH 1000 0
DWIDTH 16 0
BBX 16 16 0 -2
BITMAP
07E0
0810
3108
2204
5FFA
4202
87F2
8411
8FF1
9412
47F2
4412
2474
1008
0830
07E0
ENDCHAR
STARTCHAR 3293
ENCODING 12947
SWIDTH 1000 0
DWIDTH 16 0
BBX 16 16 0 -2
BITMAP
03E0
0C10
1008
2444
4442
5E42
83FA
8441
8E41
9742
4442
4442
25FC
3008
0830
07E0
ENDCHAR
STARTCHAR 3294
ENCODING 12948
SWIDTH 1000 0
DWIDTH 16 0
BBX 16 14 0 -1
BITMAP
07E0
1818
310C
43E2
4462
9A82
8301
8FF1
9412
4412
47F2
341C
1818
07E0
ENDCHAR
STARTCHAR 3295
ENCODING 12949
SWIDTH 1000 0
DWIDTH 16 0
BBX 16 16 0 -2
BITMAP
07E0
1810
3448
3444
55FA
5E42
95FA
9421
8621
8DFA
5412
4492
2414
1468
0830
07E0
ENDCHAR
STARTCHAR 3296
ENCODING 12950
SWIDTH 1000 0
DWIDTH 16 0
BBX 16 16 0 -2
BITMAP
07E0
0810
1008
2F14
5112
4FFA
9112
8F31
9151
9152
4F92
4A12
2974
1008
0830
07E0
ENDCHAR
STARTCHAR 3297
ENCODING 12951
SWIDTH 1000 0
DWIDTH 16 0
BBX 16 15 0 -1
BITMAP
07E0
1810
380C
29F4
4912
5F12
8512
85F1
9EA2
54A2
44AA
252C
373C
0810
07E0
ENDCHAR
STARTCHAR 3298
ENCODING 12952
SWIDTH 1000 0
DWIDTH 16 0
BBX 16 16 0 -2
BITMAP
07E0
0810
1008
2524
44A2
5FFA
910A
9109
8FF1
8112
4112
4612
2CE4
1008
0830
07E0
ENDCHAR
STARTCHAR 3299
ENCODING 12953
SWIDTH 1000 0
DWIDTH 16 0
BBX 16 16 0 -2
BITMAP
03E0
0C10
1008
2684
5C72
4452
9E52
8D61
8D69
974A
5552
44D2
2574
1008
0830
07E0
ENDCHAR
STARTCHAR 329A
ENCODING 12954
SWIDTH 1000 0
DWIDTH 16 0
BBX 16 16 0 -2
BITMAP
07E0
0810
1008
2FF4
4912
4FF2
8912
8FF1
8101
9FF2
4112
4312
2EF4
1008
0830
07E0
ENDCHAR
STARTCHAR 329B
ENCODING 12955
SWIDTH 1000 0
DWIDTH 16 0
BBX 16 15 0 -1
BITMAP
07E0
0810
110C
2104
4302
5FFA
8222
8461
8642
41C2
41E2
3E1C
300C
1810
07E0
ENDCHAR
STARTCHAR 329C
ENCODING 12956
SWIDTH 1000 0
DWIDTH 16 0
BBX 16 15 0 -2
BITMAP
07E0
1810
304C
6BFC
43FA
424A
9BEA
8A49
8BAA
4AEA
4A1A
37FC
300C
0810
07E0
ENDCHAR
STARTCHAR 329D
ENCODING 12957
SWIDTH 1000 0
DWIDTH 16 0
BBX 16 16 0 -2
BITMAP
07E0
0810
1008
2BF4
4BF2
4BF2
9BF2
9FF9
AD59
8AC2
49F2
4EA2
29F4
1208
0830
07E0
ENDCHAR
STARTCHAR 329E
ENCODING 12958
SWIDTH 1000 0
DWIDTH 16 0
BBX 16 14 0 -1
BITMAP
07E0
1818
300C
5EFA
508A
908A
9F89
9089
908A
5FBA
5082
308C
1818
07E0
ENDCHAR
STARTCHAR 329F
ENCODING 12959
SWIDTH 1000 0
DWIDTH 16 0
BBX 16 16 0 -2
BITMAP
03E0
0C10
1008
28C4
4C42
43FA
9842
8841
83F9
8442
4842
4842
33FC
3008
0830
07E0
ENDCHAR
STARTCHAR 32A0
ENCODING 12960
SWIDTH 1000 0
DWIDTH 16 0
BBX 16 16 0 -2
BITMAP
07E0
0810
1008
23F4
5C42
49F2
8912
89F1
89F1
8F12
79F2
40A2
231C
1008
0830
07E0
ENDCHAR
STARTCHAR 32A1
ENCODING 12961
SWIDTH 1000 0
DWIDTH 16 0
BBX 16 15 0 -1
BITMAP
07E0
1810
304C
2444
4442
4BFA
88C2
98E1
8962
4952
4A4A
2844
384C
0810
07E0
ENDCHAR
STARTCHAR 32A2
ENCODING 12962
SWIDTH 1000 0
DWIDTH 16 0
BBX 16 15 0 -2
BITMAP
07E0
1810
300C
7FFC
520A
53EA
8402
87E1
8422
5FFA
4022
2044
33CC
0810
07E0
ENDCHAR
STARTCHAR 32A3
ENCODING 12963
SWIDTH 1000 0
DWIDTH 16 0
BBX 16 14 0 -1
BITMAP
07E0
1818
300C
4FF2
4082
8482
84F1
8481
8482
4482
5FFA
300C
1818
07E0
ENDCHAR
STARTCHAR 32A4
ENCODING 12964
SWIDTH 1000 0
DWIDTH 16 0
BBX 16 15 0 -2
BITMAP
07E0
1810
310C
6104
4102
41F2
8102
8101
8102
4102
5FFA
2004
300C
0810
07E0
ENDCHAR
STARTCHAR 32A5
ENCODING 12965
SWIDTH 1000 0
DWIDTH 16 0
BBX 16 15 0 -2
BITMAP
07E0
1810
318C
6184
4FF2
4992
8992
8991
8FF2
4992
4182
2184
318C
0810
07E0
ENDCHAR
STARTCHAR 32A6
ENCODING 12966
SWIDTH 1000 0
DWIDTH 16 0
BBX 16 16 0 -2
BITMAP
03E0
0C10
1008
2004
5FFA
4102
8102
81C1
8131
8112
4102
4102
2104
3008
0830
07E0
ENDCHAR
STARTCHAR 32A7
ENCODING 12967
SWIDTH 1000 0
DWIDTH 16 0
BBX 16 15 0 -1
BITMAP
07E0
1810
310C
2304
5FFA
4202
8202
8601
87F2
4C82
5882
27FC
300C
0810
07E0
ENDCHAR
STARTCHAR 32A8
ENCODING 12968
SWIDTH 1000 0
DWIDTH 16 0
BBX 16 14 0 -1
BITMAP
07E0
1818
310C
4102
5FFA
8202
8601
87F1
8E12
5612
47F2
361C
1818
07E0
ENDCHAR
STARTCHAR 32A9
ENCODING 12969
SWIDTH 1000 0
DWIDTH 16 0
BBX 16 16 0 -2
BITMAP
07E0
1810
3008
2FFC
4902
4BF2
8E82
8FF9
8881
88E2
4B32
4A12
2FFC
1008
0830
07E0
ENDCHAR
STARTCHAR 32AA
ENCODING 12970
SWIDTH 1000 0
DWIDTH 16 0
BBX 16 16 0 -2
BITMAP
07E0
0810
1108
2104
5FFA
500A
97EA
8001
9FF9
80A2
44B2
589A
2384
1008
0830
07E0
ENDCHAR
STARTCHAR 32AB
ENCODING 12971
SWIDTH 1000 0
DWIDTH 16 0
BBX 16 15 0 -1
BITMAP
03E0
0C10
100C
2D24
45A2
5FFA
900A
97E9
8082
5FFA
4082
2084
330C
1810
07E0
ENDCHAR
STARTCHAR 32AC
ENCODING 12972
SWIDTH 1000 0
DWIDTH 16 0
BBX 16 16 0 -2
BITMAP
07E0
0810
1008
3F44
547A
5F82
9F02
9479
9F01
8FF2
4A92
4A92
3FFC
1008
0830
07E0
ENDCHAR
STARTCHAR 32AD
ENCODING 12973
SWIDTH 1000 0
DWIDTH 16 0
BBX 16 16 0 -2
BITMAP
03E0
0C10
1008
2184
4242
46A2
989A
9481
84F1
8482
4482
4482
3FFC
1008
0830
07E0
ENDCHAR
STARTCHAR 32AE
ENCODING 12974
SWIDTH 1000 0
DWIDTH 16 0
BBX 16 15 0 -1
BITMAP
07E0
1810
310C
2DFC
4252
44C2
9B3A
9FF1
8FF2
4FF2
4FF2
2664
381C
0810
07E0
ENDCHAR
STARTCHAR 32AF
ENCODING 12975
SWIDTH 1000 0
DWIDTH 16 0
BBX 16 14 0 -1
BITMAP
07E0
1818
388C
4BF2
5C92
8B72
8821
8FF9
8AAA
4AAA
4AD2
3DCC
1818
07E0
ENDCHAR
STARTCHAR 32B0
ENCODING 12976
SWIDTH 1000 0
DWIDTH 16 0
BBX 16 16 0 -2
BITMAP
07E0
0810
1108
2104
5FFA
4482
84F2
8911
9B61
9AA2
48C2
48E2
2B14
1008
0830
07E0
ENDCHAR
STARTCHAR 32B1
ENCODING 12977
SWIDTH 1000 0
DWIDTH 16 0
BBX 16 15 0 -1
BITMAP
03E0
0C10
100C
2E74
5A5A
42C2
8282
8CB1
82CA
438A
538A
324C
3E7C
1810
07E0
ENDCHAR
STARTCHAR 32B2
ENCODING 12978
SWIDTH 1000 0
DWIDTH 16 0
BBX 16 15 0 -1
BITMAP
03E0
0C10
100C
2EF4
5A12
4212
8212
8C21
8222
4322
5362
3244
3E4C
1810
07E0
ENDCHAR
STARTCHAR 32B3
ENCODING 12979
SWIDTH 1000 0
DWIDTH 16 0
BBX 16 15 0 -1
BITMAP
03E0
0C10
100C
2E74
5252
424A
8252
8C31
824A
428A
538A
324C
3E7C
1810
07E0
ENDCHAR
STARTCHAR 32B4
ENCODING 12980
SWIDTH 1000 0
DWIDTH 16 0
BBX 16 15 0 -1
BITMAP
03E0
0C10
100C
2E74
5A4A
42CA
82CA
8C49
827A
430A
534A
325C
3E7C
1810
07E0
ENDCHAR
STARTCHAR 32B5
ENCODING 12981
SWIDTH 1000 0
DWIDTH 16 0
BBX 16 15 0 -2
BITMAP
07E0
1810
367C
6654
4ECA
4E8A
8E8A
9689
968A
5ECA
4652
2674
300C
0810
07E0
ENDCHAR
STARTCHAR 32B6
ENCODING 12982
SWIDTH 1000 0
DWIDTH 16 0
BBX 16 15 0 -2
BITMAP
07E0
1810
321C
6674
4632
4A32
8A32
9231
9232
5F32
4232
2234
300C
0810
07E0
ENDCHAR
STARTCHAR 32B7
ENCODING 12983
SWIDTH 1000 0
DWIDTH 16 0
BBX 16 15 0 -2
BITMAP
07E0
1810
367C
665C
464A
4AD2
8A12
9221
9262
5F42
4242
22FC
300C
0830
07E0
ENDCHAR
STARTCHAR 32B8
ENCODING 12984
SWIDTH 1000 0
DWIDTH 16 0
BBX 16 15 0 -2
BITMAP
07E0
1810
367C
6654
4692
4A12
8A32
9231
921A
5F8A
42DA
2274
300C
0810
07E0
ENDCHAR
STARTCHAR 32B9
ENCODING 12985
SWIDTH 1000 0
DWIDTH 16 0
BBX 16 15 0 -2
BITMAP
07E0
1810
361C
6634
4A32
4A32
8A52
9251
9292
7EFA
4212
2214
300C
0810
07E0
ENDCHAR
STARTCHAR 32BA
ENCODING 12986
SWIDTH 1000 0
DWIDTH 16 0
BBX 16 16 0 -2
BITMAP
03E0
0C10
1008
2474
4442
4C42
8CB2
9451
9409
940A
7E0A
44D2
2474
1008
0830
07E0
ENDCHAR
STARTCHAR 32BB
ENCODING 12987
SWIDTH 1000 0
DWIDTH 16 0
BBX 16 15 0 -2
BITMAP
07E0
1810
367C
6654
4EDA
4E82
8EB2
96D9
968A
7E8A
465A
2674
300C
0810
07E0
ENDCHAR
STARTCHAR 32BC
ENCODING 12988
SWIDTH 1000 0
DWIDTH 16 0
BBX 16 16 0 -2
BITMAP
03E0
0C10
1008
26F4
4612
4612
8A12
8A21
9221
9222
5F22
4262
2244
1008
0830
07E0
ENDCHAR
STARTCHAR 32BD
ENCODING 12989
SWIDTH 1000 0
DWIDTH 16 0
BBX 16 15 0 -2
BITMAP
07E0
1810
367C
6654
464A
4A5A
8A72
9251
928A
5F8A
42CA
2274
300C
0810
07E0
ENDCHAR
STARTCHAR 32BE
ENCODING 12990
SWIDTH 1000 0
DWIDTH 16 0
BBX 16 15 0 -2
BITMAP
07E0
1810
367C
664C
468A
4A8A
8A4A
9279
920A
5F0A
4252
2274
300C
0810
07E0
ENDCHAR
STARTCHAR 32BF
ENCODING 12991
SWIDTH 1000 0
DWIDTH 16 0
BBX 16 15 0 -1
BITMAP
03E0
0C10
100C
2E34
505A
504A
96CA
9AC9
83CA
43CA
524A
3A5C
3E3C
1810
07E0
ENDCHAR
ENDFONT
